{
  "accessors": [
    {
      "name": "vertex",
      "bufferView": 0,
      "componentType": 5126,
      "type": "VEC3",
      "count": 210,
      "min": [-0.0852050781, -0.0993652344, -0.105224609],
      "max": [0.0852050781, 0.112548828, 0.100341797]
    },
    {
      "name": "vertex",
      "bufferView": 0,
      "componentType": 5126,
      "type": "VEC3",
      "byteOffset": 2520,
      "count": 414,
      "min": [-0.0458984375, -0.0930175781, -0.0983886719],
      "max": [0.0461425781, 0.0490722656, 0.0595703125]
    },
    {
      "name": "vertex",
      "bufferView": 0,
      "componentType": 5126,
      "type": "VEC3",
      "byteOffset": 7488,
      "count": 414,
      "min": [-0.0461425781, -0.0930175781, -0.0983886719],
      "max": [0.0458984375, 0.0490722656, 0.0595703125]
    },
    {
      "name": "vertex",
      "bufferView": 0,
      "componentType": 5126,
      "type": "VEC3",
      "byteOffset": 12456,
      "count": 126,
      "min": [-0.0434570312, -0.0417480469, -0.0734863281],
      "max": [0.0434570312, 0.0769042969, 0.158447266]
    },
    {
      "name": "vertex",
      "bufferView": 0,
      "componentType": 5126,
      "type": "VEC3",
      "byteOffset": 13968,
      "count": 36,
      "min": [-0.009765625, -0.0380859375, -0.033203125],
      "max": [0.009765625, 0.00659179688, -0.00122070312]
    },
    {
      "name": "vertex",
      "bufferView": 0,
      "componentType": 5126,
      "type": "VEC3",
      "byteOffset": 14400,
      "count": 378,
      "min": [-0.0476074219, -0.0510253906, -0.160644531],
      "max": [0.0495605469, 0.0517578125, 0.041015625]
    },
    {
      "name": "vertex",
      "bufferView": 0,
      "componentType": 5126,
      "type": "VEC3",
      "byteOffset": 18936,
      "count": 378,
      "min": [-0.0495605469, -0.0510253906, -0.160644531],
      "max": [0.0476074219, 0.0517578125, 0.041015625]
    },
    {
      "name": "vertex",
      "bufferView": 0,
      "componentType": 5126,
      "type": "VEC3",
      "byteOffset": 23472,
      "count": 708,
      "min": [-0.115234375, -0.0856933594, -0.176757812],
      "max": [0.115234375, 0.205322266, 0.176513672]
    },
    {
      "name": "vertex_index",
      "bufferView": 1,
      "componentType": 5125,
      "type": "SCALAR",
      "count": 210
    },
    {
      "name": "vertex_index",
      "bufferView": 1,
      "componentType": 5125,
      "type": "SCALAR",
      "byteOffset": 840,
      "count": 414
    },
    {
      "name": "vertex_index",
      "bufferView": 1,
      "componentType": 5125,
      "type": "SCALAR",
      "byteOffset": 2496,
      "count": 414
    },
    {
      "name": "vertex_index",
      "bufferView": 1,
      "componentType": 5125,
      "type": "SCALAR",
      "byteOffset": 4152,
      "count": 126
    },
    {
      "name": "vertex_index",
      "bufferView": 1,
      "componentType": 5125,
      "type": "SCALAR",
      "byteOffset": 4656,
      "count": 36
    },
    {
      "name": "vertex_index",
      "bufferView": 1,
      "componentType": 5125,
      "type": "SCALAR",
      "byteOffset": 4800,
      "count": 378
    },
    {
      "name": "vertex_index",
      "bufferView": 1,
      "componentType": 5125,
      "type": "SCALAR",
      "byteOffset": 6312,
      "count": 378
    },
    {
      "name": "vertex_index",
      "bufferView": 1,
      "componentType": 5125,
      "type": "SCALAR",
      "byteOffset": 7824,
      "count": 708
    },
    {
      "name": "animation_rotation_output",
      "bufferView": 3,
      "componentType": 5126,
      "type": "VEC4",
      "count": 44
    },
    {
      "name": "animation_rotation_output",
      "bufferView": 3,
      "componentType": 5126,
      "type": "VEC4",
      "byteOffset": 704,
      "count": 44
    },
    {
      "name": "animation_rotation_output",
      "bufferView": 3,
      "componentType": 5126,
      "type": "VEC4",
      "byteOffset": 1408,
      "count": 44
    },
    {
      "name": "animation_rotation_output",
      "bufferView": 3,
      "componentType": 5126,
      "type": "VEC4",
      "byteOffset": 2112,
      "count": 44
    },
    {
      "name": "animation_rotation_output",
      "bufferView": 3,
      "componentType": 5126,
      "type": "VEC4",
      "byteOffset": 2816,
      "count": 44
    },
    {
      "name": "animation_rotation_output",
      "bufferView": 3,
      "componentType": 5126,
      "type": "VEC4",
      "byteOffset": 3520,
      "count": 44
    },
    {
      "name": "animation_rotation_output",
      "bufferView": 3,
      "componentType": 5126,
      "type": "VEC4",
      "byteOffset": 4224,
      "count": 44
    },
    {
      "name": "animation_rotation_output",
      "bufferView": 3,
      "componentType": 5126,
      "type": "VEC4",
      "byteOffset": 4928,
      "count": 44
    },
    {
      "name": "animation_translation_output",
      "bufferView": 4,
      "componentType": 5126,
      "type": "VEC3",
      "count": 44
    },
    {
      "name": "animation_translation_output",
      "bufferView": 4,
      "componentType": 5126,
      "type": "VEC3",
      "byteOffset": 528,
      "count": 44
    },
    {
      "name": "animation_translation_output",
      "bufferView": 4,
      "componentType": 5126,
      "type": "VEC3",
      "byteOffset": 1056,
      "count": 44
    },
    {
      "name": "animation_translation_output",
      "bufferView": 4,
      "componentType": 5126,
      "type": "VEC3",
      "byteOffset": 1584,
      "count": 44
    },
    {
      "name": "animation_translation_output",
      "bufferView": 4,
      "componentType": 5126,
      "type": "VEC3",
      "byteOffset": 2112,
      "count": 44
    },
    {
      "name": "animation_translation_output",
      "bufferView": 4,
      "componentType": 5126,
      "type": "VEC3",
      "byteOffset": 2640,
      "count": 44
    },
    {
      "name": "animation_translation_output",
      "bufferView": 4,
      "componentType": 5126,
      "type": "VEC3",
      "byteOffset": 3168,
      "count": 44
    },
    {
      "name": "animation_translation_output",
      "bufferView": 4,
      "componentType": 5126,
      "type": "VEC3",
      "byteOffset": 3696,
      "count": 44
    },
    {
      "name": "animation_scale_output",
      "bufferView": 5,
      "componentType": 5126,
      "type": "VEC3",
      "count": 44
    },
    {
      "name": "animation_scale_output",
      "bufferView": 5,
      "componentType": 5126,
      "type": "VEC3",
      "byteOffset": 528,
      "count": 44
    },
    {
      "name": "animation_scale_output",
      "bufferView": 5,
      "componentType": 5126,
      "type": "VEC3",
      "byteOffset": 1056,
      "count": 44
    },
    {
      "name": "animation_scale_output",
      "bufferView": 5,
      "componentType": 5126,
      "type": "VEC3",
      "byteOffset": 1584,
      "count": 44
    },
    {
      "name": "animation_scale_output",
      "bufferView": 5,
      "componentType": 5126,
      "type": "VEC3",
      "byteOffset": 2112,
      "count": 44
    },
    {
      "name": "animation_scale_output",
      "bufferView": 5,
      "componentType": 5126,
      "type": "VEC3",
      "byteOffset": 2640,
      "count": 44
    },
    {
      "name": "animation_scale_output",
      "bufferView": 5,
      "componentType": 5126,
      "type": "VEC3",
      "byteOffset": 3168,
      "count": 44
    },
    {
      "name": "animation_scale_output",
      "bufferView": 5,
      "componentType": 5126,
      "type": "VEC3",
      "byteOffset": 3696,
      "count": 44
    },
    {
      "name": "texcoord",
      "bufferView": 6,
      "componentType": 5126,
      "type": "VEC2",
      "count": 210
    },
    {
      "name": "texcoord",
      "bufferView": 6,
      "componentType": 5126,
      "type": "VEC2",
      "byteOffset": 1680,
      "count": 414
    },
    {
      "name": "texcoord",
      "bufferView": 6,
      "componentType": 5126,
      "type": "VEC2",
      "byteOffset": 4992,
      "count": 414
    },
    {
      "name": "texcoord",
      "bufferView": 6,
      "componentType": 5126,
      "type": "VEC2",
      "byteOffset": 8304,
      "count": 126
    },
    {
      "name": "texcoord",
      "bufferView": 6,
      "componentType": 5126,
      "type": "VEC2",
      "byteOffset": 9312,
      "count": 36
    },
    {
      "name": "texcoord",
      "bufferView": 6,
      "componentType": 5126,
      "type": "VEC2",
      "byteOffset": 9600,
      "count": 378
    },
    {
      "name": "texcoord",
      "bufferView": 6,
      "componentType": 5126,
      "type": "VEC2",
      "byteOffset": 12624,
      "count": 378
    },
    {
      "name": "texcoord",
      "bufferView": 6,
      "componentType": 5126,
      "type": "VEC2",
      "byteOffset": 15648,
      "count": 708
    },
    {
      "name": "animation_rotation_input",
      "bufferView": 2,
      "componentType": 5126,
      "type": "SCALAR",
      "count": 44,
      "min": [0],
      "max": [1.43333185]
    }
  ],
  "asset": {
    "copyright": "",
    "generator": "bukosoft corporation",
    "version": "2.0"
  },
  "bufferViews": [
    {
      "name": "vertex_buffer_view",
      "buffer": 0,
      "byteLength": 31968,
      "byteStride": 12
    },
    {
      "name": "vertex_index_buffer_view",
      "buffer": 1,
      "byteLength": 10656
    },
    {
      "name": "animation_rotation_input",
      "buffer": 2,
      "byteLength": 176
    },
    {
      "name": "animation_rotation_output_view",
      "buffer": 3,
      "byteLength": 5632
    },
    {
      "name": "animation_translation_output_view",
      "buffer": 4,
      "byteLength": 4224
    },
    {
      "name": "animation_scale_output_view",
      "buffer": 5,
      "byteLength": 4224
    },
    {
      "name": "texcoord_view",
      "buffer": 6,
      "byteLength": 21312,
      "byteStride": 8
    },
    {
      "name": "texture_view",
      "buffer": 7,
      "byteLength": 194019
    }
  ],
  "buffers": [
    {
      "name": "vertex_buffer",
      "uri": "data:application/octet-stream;base64,",
      "byteLength": 31968
    },
    {
      "name": "vertex_index_buffer",
      "uri": "data:application/octet-stream;base64,",
      "byteLength": 10656
    },
    {
      "name": "animation_rotation_input",
      "uri": "data:application/octet-stream;base64,",
      "byteLength": 176
    },
    {
      "name": "animation_rotation_output",
      "uri": "data:application/octet-stream;base64,",
      "byteLength": 5632
    },
    {
      "name": "animation_translation_output",
      "uri": "data:application/octet-stream;base64,",
      "byteLength": 4224
    },
    {
      "name": "animation_scale_output",
      "uri": "data:application/octet-stream;base64,",
      "byteLength": 4224
    },
    {
      "name": "texcoord",
      "uri": "data:application/octet-stream;base64,",
      "byteLength": 21312
    },
    {
      "name": "texture_buffer",
      "uri": "data:application/octet-stream;base64,",
      "byteLength": 194019
    }
  ],
  "images": [
    {
      "name": "texture_image",
      "bufferView": 7,
      "mimeType": "image/png"
    }
  ],
  "meshes": [
    {
      "primitives": [
        {
          "indices": 8,
          "material": 0,
          "attributes": {
            "POSITION": 0,
            "TEXCOORD_0": 40
          }
        }
      ]
    },
    {
      "primitives": [
        {
          "indices": 9,
          "material": 0,
          "attributes": {
            "POSITION": 1,
            "TEXCOORD_0": 41
          }
        }
      ]
    },
    {
      "primitives": [
        {
          "indices": 10,
          "material": 0,
          "attributes": {
            "POSITION": 2,
            "TEXCOORD_0": 42
          }
        }
      ]
    },
    {
      "primitives": [
        {
          "indices": 11,
          "material": 0,
          "attributes": {
            "POSITION": 3,
            "TEXCOORD_0": 43
          }
        }
      ]
    },
    {
      "primitives": [
        {
          "indices": 12,
          "material": 0,
          "attributes": {
            "POSITION": 4,
            "TEXCOORD_0": 44
          }
        }
      ]
    },
    {
      "primitives": [
        {
          "indices": 13,
          "material": 0,
          "attributes": {
            "POSITION": 5,
            "TEXCOORD_0": 45
          }
        }
      ]
    },
    {
      "primitives": [
        {
          "indices": 14,
          "material": 0,
          "attributes": {
            "POSITION": 6,
            "TEXCOORD_0": 46
          }
        }
      ]
    },
    {
      "primitives": [
        {
          "indices": 15,
          "material": 0,
          "attributes": {
            "POSITION": 7,
            "TEXCOORD_0": 47
          }
        }
      ]
    }
  ],
  "materials": [
    {
      "name": "material",
      "alphaCutoff": 0.100000001,
      "pbrMetallicRoughness": {
        "baseColorTexture": {
          "index": 0,
          "scale": 0
        },
        "metallicFactor": 0
      },
      "alphaMode": "MASK"
    }
  ],
  "nodes": [
    {
      "mesh": 0,
      "name": "node",
      "translation": [0, 0, 0]
    },
    {
      "mesh": 1,
      "name": "node",
      "translation": [0, 0, 0]
    },
    {
      "mesh": 2,
      "name": "node",
      "translation": [0, 0, 0]
    },
    {
      "mesh": 3,
      "name": "node",
      "translation": [0, 0, 0]
    },
    {
      "mesh": 4,
      "name": "node",
      "translation": [0, 0, 0]
    },
    {
      "mesh": 5,
      "name": "node",
      "translation": [0, 0, 0]
    },
    {
      "mesh": 6,
      "name": "node",
      "translation": [0, 0, 0]
    },
    {
      "mesh": 7,
      "name": "node",
      "translation": [0, 0, 0]
    }
  ],
  "samplers": [
    {
      "name": "texture_sampler",
      "magFilter": 9728,
      "minFilter": 9728,
      "wrapS": 33071,
      "wrapT": 33071
    }
  ],
  "scenes": [
    {
      "name": "scene",
      "nodes": [ 0, 1, 2, 3, 4, 5, 6, 7 ]
    }
  ],
  "textures": [
    {
      "name": "texture",
      "source": 0,
      "sampler": 0
    }
  ],
  "animations": [
    {
      "name": "animation",
      "samplers": [
        {
          "interpolation": "STEP",
          "input": 48,
          "output": 16
        },
        {
          "interpolation": "STEP",
          "input": 48,
          "output": 17
        },
        {
          "interpolation": "STEP",
          "input": 48,
          "output": 18
        },
        {
          "interpolation": "STEP",
          "input": 48,
          "output": 19
        },
        {
          "interpolation": "STEP",
          "input": 48,
          "output": 20
        },
        {
          "interpolation": "STEP",
          "input": 48,
          "output": 21
        },
        {
          "interpolation": "STEP",
          "input": 48,
          "output": 22
        },
        {
          "interpolation": "STEP",
          "input": 48,
          "output": 23
        },
        {
          "interpolation": "STEP",
          "input": 48,
          "output": 24
        },
        {
          "interpolation": "STEP",
          "input": 48,
          "output": 25
        },
        {
          "interpolation": "STEP",
          "input": 48,
          "output": 26
        },
        {
          "interpolation": "STEP",
          "input": 48,
          "output": 27
        },
        {
          "interpolation": "STEP",
          "input": 48,
          "output": 28
        },
        {
          "interpolation": "STEP",
          "input": 48,
          "output": 29
        },
        {
          "interpolation": "STEP",
          "input": 48,
          "output": 30
        },
        {
          "interpolation": "STEP",
          "input": 48,
          "output": 31
        },
        {
          "interpolation": "STEP",
          "input": 48,
          "output": 32
        },
        {
          "interpolation": "STEP",
          "input": 48,
          "output": 33
        },
        {
          "interpolation": "STEP",
          "input": 48,
          "output": 34
        },
        {
          "interpolation": "STEP",
          "input": 48,
          "output": 35
        },
        {
          "interpolation": "STEP",
          "input": 48,
          "output": 36
        },
        {
          "interpolation": "STEP",
          "input": 48,
          "output": 37
        },
        {
          "interpolation": "STEP",
          "input": 48,
          "output": 38
        },
        {
          "interpolation": "STEP",
          "input": 48,
          "output": 39
        }
      ],
      "channels": [
        {
          "sampler": 0,
          "target": {
            "node": 0,
            "path": "rotation"
          }
        },
        {
          "sampler": 1,
          "target": {
            "node": 1,
            "path": "rotation"
          }
        },
        {
          "sampler": 2,
          "target": {
            "node": 2,
            "path": "rotation"
          }
        },
        {
          "sampler": 3,
          "target": {
            "node": 3,
            "path": "rotation"
          }
        },
        {
          "sampler": 4,
          "target": {
            "node": 4,
            "path": "rotation"
          }
        },
        {
          "sampler": 5,
          "target": {
            "node": 5,
            "path": "rotation"
          }
        },
        {
          "sampler": 6,
          "target": {
            "node": 6,
            "path": "rotation"
          }
        },
        {
          "sampler": 7,
          "target": {
            "node": 7,
            "path": "rotation"
          }
        },
        {
          "sampler": 8,
          "target": {
            "node": 0,
            "path": "translation"
          }
        },
        {
          "sampler": 9,
          "target": {
            "node": 1,
            "path": "translation"
          }
        },
        {
          "sampler": 10,
          "target": {
            "node": 2,
            "path": "translation"
          }
        },
        {
          "sampler": 11,
          "target": {
            "node": 3,
            "path": "translation"
          }
        },
        {
          "sampler": 12,
          "target": {
            "node": 4,
            "path": "translation"
          }
        },
        {
          "sampler": 13,
          "target": {
            "node": 5,
            "path": "translation"
          }
        },
        {
          "sampler": 14,
          "target": {
            "node": 6,
            "path": "translation"
          }
        },
        {
          "sampler": 15,
          "target": {
            "node": 7,
            "path": "translation"
          }
        },
        {
          "sampler": 16,
          "target": {
            "node": 0,
            "path": "scale"
          }
        },
        {
          "sampler": 17,
          "target": {
            "node": 1,
            "path": "scale"
          }
        },
        {
          "sampler": 18,
          "target": {
            "node": 2,
            "path": "scale"
          }
        },
        {
          "sampler": 19,
          "target": {
            "node": 3,
            "path": "scale"
          }
        },
        {
          "sampler": 20,
          "target": {
            "node": 4,
            "path": "scale"
          }
        },
        {
          "sampler": 21,
          "target": {
            "node": 5,
            "path": "scale"
          }
        },
        {
          "sampler": 22,
          "target": {
            "node": 6,
            "path": "scale"
          }
        },
        {
          "sampler": 23,
          "target": {
            "node": 7,
            "path": "scale"
          }
        }
      ]
    }
  ]
}
