{
  "accessors": [
    {
      "name": "vertex",
      "bufferView": 0,
      "componentType": 5126,
      "type": "VEC3",
      "count": 441,
      "min": [-0.196533203, -0.180908203, -0.1875],
      "max": [0.196533203, 0.187988281, 0.186279297]
    },
    {
      "name": "vertex",
      "bufferView": 0,
      "componentType": 5126,
      "type": "VEC3",
      "byteOffset": 5292,
      "count": 312,
      "min": [-0.13671875, -0.0773925781, -0.121826172],
      "max": [0.13671875, 0.0537109375, 0.174072266]
    },
    {
      "name": "vertex",
      "bufferView": 0,
      "componentType": 5126,
      "type": "VEC3",
      "byteOffset": 9036,
      "count": 114,
      "min": [-0.0212402344, -0.0673828125, -0.0617675781],
      "max": [0.0241699219, 0.00341796875, 0.0270996094]
    },
    {
      "name": "vertex",
      "bufferView": 0,
      "componentType": 5126,
      "type": "VEC3",
      "byteOffset": 10404,
      "count": 78,
      "min": [-0.0212402344, -0.0732421875, -0.0649414062],
      "max": [0.0202636719, 0.00341796875, 0.00463867188]
    },
    {
      "name": "vertex",
      "bufferView": 0,
      "componentType": 5126,
      "type": "VEC3",
      "byteOffset": 11340,
      "count": 102,
      "min": [-0.021484375, -0.0815429688, -0.0581054688],
      "max": [0.0205078125, 0.00366210938, 0.00415039062]
    },
    {
      "name": "vertex",
      "bufferView": 0,
      "componentType": 5126,
      "type": "VEC3",
      "byteOffset": 12564,
      "count": 114,
      "min": [-0.0241699219, -0.0673828125, -0.0617675781],
      "max": [0.0212402344, 0.00341796875, 0.0270996094]
    },
    {
      "name": "vertex",
      "bufferView": 0,
      "componentType": 5126,
      "type": "VEC3",
      "byteOffset": 13932,
      "count": 78,
      "min": [-0.0202636719, -0.0732421875, -0.0649414062],
      "max": [0.0212402344, 0.00341796875, 0.00463867188]
    },
    {
      "name": "vertex",
      "bufferView": 0,
      "componentType": 5126,
      "type": "VEC3",
      "byteOffset": 14868,
      "count": 102,
      "min": [-0.0205078125, -0.0815429688, -0.0581054688],
      "max": [0.021484375, 0.00366210938, 0.00415039062]
    },
    {
      "name": "vertex_index",
      "bufferView": 1,
      "componentType": 5125,
      "type": "SCALAR",
      "count": 441
    },
    {
      "name": "vertex_index",
      "bufferView": 1,
      "componentType": 5125,
      "type": "SCALAR",
      "byteOffset": 1764,
      "count": 312
    },
    {
      "name": "vertex_index",
      "bufferView": 1,
      "componentType": 5125,
      "type": "SCALAR",
      "byteOffset": 3012,
      "count": 114
    },
    {
      "name": "vertex_index",
      "bufferView": 1,
      "componentType": 5125,
      "type": "SCALAR",
      "byteOffset": 3468,
      "count": 78
    },
    {
      "name": "vertex_index",
      "bufferView": 1,
      "componentType": 5125,
      "type": "SCALAR",
      "byteOffset": 3780,
      "count": 102
    },
    {
      "name": "vertex_index",
      "bufferView": 1,
      "componentType": 5125,
      "type": "SCALAR",
      "byteOffset": 4188,
      "count": 114
    },
    {
      "name": "vertex_index",
      "bufferView": 1,
      "componentType": 5125,
      "type": "SCALAR",
      "byteOffset": 4644,
      "count": 78
    },
    {
      "name": "vertex_index",
      "bufferView": 1,
      "componentType": 5125,
      "type": "SCALAR",
      "byteOffset": 4956,
      "count": 102
    },
    {
      "name": "animation_rotation_output",
      "bufferView": 3,
      "componentType": 5126,
      "type": "VEC4",
      "count": 75
    },
    {
      "name": "animation_rotation_output",
      "bufferView": 3,
      "componentType": 5126,
      "type": "VEC4",
      "byteOffset": 1200,
      "count": 75
    },
    {
      "name": "animation_rotation_output",
      "bufferView": 3,
      "componentType": 5126,
      "type": "VEC4",
      "byteOffset": 2400,
      "count": 75
    },
    {
      "name": "animation_rotation_output",
      "bufferView": 3,
      "componentType": 5126,
      "type": "VEC4",
      "byteOffset": 3600,
      "count": 75
    },
    {
      "name": "animation_rotation_output",
      "bufferView": 3,
      "componentType": 5126,
      "type": "VEC4",
      "byteOffset": 4800,
      "count": 75
    },
    {
      "name": "animation_rotation_output",
      "bufferView": 3,
      "componentType": 5126,
      "type": "VEC4",
      "byteOffset": 6000,
      "count": 75
    },
    {
      "name": "animation_rotation_output",
      "bufferView": 3,
      "componentType": 5126,
      "type": "VEC4",
      "byteOffset": 7200,
      "count": 75
    },
    {
      "name": "animation_rotation_output",
      "bufferView": 3,
      "componentType": 5126,
      "type": "VEC4",
      "byteOffset": 8400,
      "count": 75
    },
    {
      "name": "animation_translation_output",
      "bufferView": 4,
      "componentType": 5126,
      "type": "VEC3",
      "count": 75
    },
    {
      "name": "animation_translation_output",
      "bufferView": 4,
      "componentType": 5126,
      "type": "VEC3",
      "byteOffset": 900,
      "count": 75
    },
    {
      "name": "animation_translation_output",
      "bufferView": 4,
      "componentType": 5126,
      "type": "VEC3",
      "byteOffset": 1800,
      "count": 75
    },
    {
      "name": "animation_translation_output",
      "bufferView": 4,
      "componentType": 5126,
      "type": "VEC3",
      "byteOffset": 2700,
      "count": 75
    },
    {
      "name": "animation_translation_output",
      "bufferView": 4,
      "componentType": 5126,
      "type": "VEC3",
      "byteOffset": 3600,
      "count": 75
    },
    {
      "name": "animation_translation_output",
      "bufferView": 4,
      "componentType": 5126,
      "type": "VEC3",
      "byteOffset": 4500,
      "count": 75
    },
    {
      "name": "animation_translation_output",
      "bufferView": 4,
      "componentType": 5126,
      "type": "VEC3",
      "byteOffset": 5400,
      "count": 75
    },
    {
      "name": "animation_translation_output",
      "bufferView": 4,
      "componentType": 5126,
      "type": "VEC3",
      "byteOffset": 6300,
      "count": 75
    },
    {
      "name": "animation_scale_output",
      "bufferView": 5,
      "componentType": 5126,
      "type": "VEC3",
      "count": 75
    },
    {
      "name": "animation_scale_output",
      "bufferView": 5,
      "componentType": 5126,
      "type": "VEC3",
      "byteOffset": 900,
      "count": 75
    },
    {
      "name": "animation_scale_output",
      "bufferView": 5,
      "componentType": 5126,
      "type": "VEC3",
      "byteOffset": 1800,
      "count": 75
    },
    {
      "name": "animation_scale_output",
      "bufferView": 5,
      "componentType": 5126,
      "type": "VEC3",
      "byteOffset": 2700,
      "count": 75
    },
    {
      "name": "animation_scale_output",
      "bufferView": 5,
      "componentType": 5126,
      "type": "VEC3",
      "byteOffset": 3600,
      "count": 75
    },
    {
      "name": "animation_scale_output",
      "bufferView": 5,
      "componentType": 5126,
      "type": "VEC3",
      "byteOffset": 4500,
      "count": 75
    },
    {
      "name": "animation_scale_output",
      "bufferView": 5,
      "componentType": 5126,
      "type": "VEC3",
      "byteOffset": 5400,
      "count": 75
    },
    {
      "name": "animation_scale_output",
      "bufferView": 5,
      "componentType": 5126,
      "type": "VEC3",
      "byteOffset": 6300,
      "count": 75
    },
    {
      "name": "texcoord",
      "bufferView": 6,
      "componentType": 5126,
      "type": "VEC2",
      "count": 441
    },
    {
      "name": "texcoord",
      "bufferView": 6,
      "componentType": 5126,
      "type": "VEC2",
      "byteOffset": 3528,
      "count": 312
    },
    {
      "name": "texcoord",
      "bufferView": 6,
      "componentType": 5126,
      "type": "VEC2",
      "byteOffset": 6024,
      "count": 114
    },
    {
      "name": "texcoord",
      "bufferView": 6,
      "componentType": 5126,
      "type": "VEC2",
      "byteOffset": 6936,
      "count": 78
    },
    {
      "name": "texcoord",
      "bufferView": 6,
      "componentType": 5126,
      "type": "VEC2",
      "byteOffset": 7560,
      "count": 102
    },
    {
      "name": "texcoord",
      "bufferView": 6,
      "componentType": 5126,
      "type": "VEC2",
      "byteOffset": 8376,
      "count": 114
    },
    {
      "name": "texcoord",
      "bufferView": 6,
      "componentType": 5126,
      "type": "VEC2",
      "byteOffset": 9288,
      "count": 78
    },
    {
      "name": "texcoord",
      "bufferView": 6,
      "componentType": 5126,
      "type": "VEC2",
      "byteOffset": 9912,
      "count": 102
    },
    {
      "name": "animation_rotation_input",
      "bufferView": 2,
      "componentType": 5126,
      "type": "SCALAR",
      "count": 75,
      "min": [0],
      "max": [2.46666431]
    }
  ],
  "asset": {
    "copyright": "",
    "generator": "bukosoft corporation",
    "version": "2.0"
  },
  "bufferViews": [
    {
      "name": "vertex_buffer_view",
      "buffer": 0,
      "byteLength": 16092,
      "byteStride": 12
    },
    {
      "name": "vertex_index_buffer_view",
      "buffer": 1,
      "byteLength": 5364
    },
    {
      "name": "animation_rotation_input",
      "buffer": 2,
      "byteLength": 300
    },
    {
      "name": "animation_rotation_output_view",
      "buffer": 3,
      "byteLength": 9600
    },
    {
      "name": "animation_translation_output_view",
      "buffer": 4,
      "byteLength": 7200
    },
    {
      "name": "animation_scale_output_view",
      "buffer": 5,
      "byteLength": 7200
    },
    {
      "name": "texcoord_view",
      "buffer": 6,
      "byteLength": 10728,
      "byteStride": 8
    },
    {
      "name": "texture_view",
      "buffer": 7,
      "byteLength": 209049
    }
  ],
  "buffers": [
    {
      "name": "vertex_buffer",
      "uri": "data:application/octet-stream;base64,",
      "byteLength": 16092
    },
    {
      "name": "vertex_index_buffer",
      "uri": "data:application/octet-stream;base64,",
      "byteLength": 5364
    },
    {
      "name": "animation_rotation_input",
      "uri": "data:application/octet-stream;base64,",
      "byteLength": 300
    },
    {
      "name": "animation_rotation_output",
      "uri": "data:application/octet-stream;base64,",
      "byteLength": 9600
    },
    {
      "name": "animation_translation_output",
      "uri": "data:application/octet-stream;base64,",
      "byteLength": 7200
    },
    {
      "name": "animation_scale_output",
      "uri": "data:application/octet-stream;base64,",
      "byteLength": 7200
    },
    {
      "name": "texcoord",
      "uri": "data:application/octet-stream;base64,",
      "byteLength": 10728
    },
    {
      "name": "texture_buffer",
      "uri": "data:application/octet-stream;base64,",
      "byteLength": 209049
    }
  ],
  "images": [
    {
      "name": "texture_image",
      "bufferView": 7,
      "mimeType": "image/png"
    }
  ],
  "meshes": [
    {
      "primitives": [
        {
          "indices": 8,
          "material": 0,
          "attributes": {
            "POSITION": 0,
            "TEXCOORD_0": 40
          }
        }
      ]
    },
    {
      "primitives": [
        {
          "indices": 9,
          "material": 0,
          "attributes": {
            "POSITION": 1,
            "TEXCOORD_0": 41
          }
        }
      ]
    },
    {
      "primitives": [
        {
          "indices": 10,
          "material": 0,
          "attributes": {
            "POSITION": 2,
            "TEXCOORD_0": 42
          }
        }
      ]
    },
    {
      "primitives": [
        {
          "indices": 11,
          "material": 0,
          "attributes": {
            "POSITION": 3,
            "TEXCOORD_0": 43
          }
        }
      ]
    },
    {
      "primitives": [
        {
          "indices": 12,
          "material": 0,
          "attributes": {
            "POSITION": 4,
            "TEXCOORD_0": 44
          }
        }
      ]
    },
    {
      "primitives": [
        {
          "indices": 13,
          "material": 0,
          "attributes": {
            "POSITION": 5,
            "TEXCOORD_0": 45
          }
        }
      ]
    },
    {
      "primitives": [
        {
          "indices": 14,
          "material": 0,
          "attributes": {
            "POSITION": 6,
            "TEXCOORD_0": 46
          }
        }
      ]
    },
    {
      "primitives": [
        {
          "indices": 15,
          "material": 0,
          "attributes": {
            "POSITION": 7,
            "TEXCOORD_0": 47
          }
        }
      ]
    }
  ],
  "materials": [
    {
      "name": "material",
      "alphaCutoff": 0.100000001,
      "pbrMetallicRoughness": {
        "baseColorTexture": {
          "index": 0,
          "scale": 0
        },
        "metallicFactor": 0
      },
      "alphaMode": "MASK"
    }
  ],
  "nodes": [
    {
      "mesh": 0,
      "name": "node",
      "translation": [0, 0, 0]
    },
    {
      "mesh": 1,
      "name": "node",
      "translation": [0, 0, 0]
    },
    {
      "children": [ 3 ],
      "mesh": 2,
      "name": "node",
      "translation": [0, 0, 0]
    },
    {
      "children": [ 4 ],
      "mesh": 3,
      "name": "node",
      "translation": [0, 0, 0]
    },
    {
      "mesh": 4,
      "name": "node",
      "translation": [0, 0, 0]
    },
    {
      "children": [ 6 ],
      "mesh": 5,
      "name": "node",
      "translation": [0, 0, 0]
    },
    {
      "children": [ 7 ],
      "mesh": 6,
      "name": "node",
      "translation": [0, 0, 0]
    },
    {
      "mesh": 7,
      "name": "node",
      "translation": [0, 0, 0]
    }
  ],
  "samplers": [
    {
      "name": "texture_sampler",
      "magFilter": 9728,
      "minFilter": 9728,
      "wrapS": 33071,
      "wrapT": 33071
    }
  ],
  "scenes": [
    {
      "name": "scene",
      "nodes": [ 0, 1, 2, 5 ]
    }
  ],
  "textures": [
    {
      "name": "texture",
      "source": 0,
      "sampler": 0
    }
  ],
  "animations": [
    {
      "name": "animation",
      "samplers": [
        {
          "interpolation": "STEP",
          "input": 48,
          "output": 16
        },
        {
          "interpolation": "STEP",
          "input": 48,
          "output": 17
        },
        {
          "interpolation": "STEP",
          "input": 48,
          "output": 18
        },
        {
          "interpolation": "STEP",
          "input": 48,
          "output": 19
        },
        {
          "interpolation": "STEP",
          "input": 48,
          "output": 20
        },
        {
          "interpolation": "STEP",
          "input": 48,
          "output": 21
        },
        {
          "interpolation": "STEP",
          "input": 48,
          "output": 22
        },
        {
          "interpolation": "STEP",
          "input": 48,
          "output": 23
        },
        {
          "interpolation": "STEP",
          "input": 48,
          "output": 24
        },
        {
          "interpolation": "STEP",
          "input": 48,
          "output": 25
        },
        {
          "interpolation": "STEP",
          "input": 48,
          "output": 26
        },
        {
          "interpolation": "STEP",
          "input": 48,
          "output": 27
        },
        {
          "interpolation": "STEP",
          "input": 48,
          "output": 28
        },
        {
          "interpolation": "STEP",
          "input": 48,
          "output": 29
        },
        {
          "interpolation": "STEP",
          "input": 48,
          "output": 30
        },
        {
          "interpolation": "STEP",
          "input": 48,
          "output": 31
        },
        {
          "interpolation": "STEP",
          "input": 48,
          "output": 32
        },
        {
          "interpolation": "STEP",
          "input": 48,
          "output": 33
        },
        {
          "interpolation": "STEP",
          "input": 48,
          "output": 34
        },
        {
          "interpolation": "STEP",
          "input": 48,
          "output": 35
        },
        {
          "interpolation": "STEP",
          "input": 48,
          "output": 36
        },
        {
          "interpolation": "STEP",
          "input": 48,
          "output": 37
        },
        {
          "interpolation": "STEP",
          "input": 48,
          "output": 38
        },
        {
          "interpolation": "STEP",
          "input": 48,
          "output": 39
        }
      ],
      "channels": [
        {
          "sampler": 0,
          "target": {
            "node": 0,
            "path": "rotation"
          }
        },
        {
          "sampler": 1,
          "target": {
            "node": 1,
            "path": "rotation"
          }
        },
        {
          "sampler": 2,
          "target": {
            "node": 2,
            "path": "rotation"
          }
        },
        {
          "sampler": 3,
          "target": {
            "node": 3,
            "path": "rotation"
          }
        },
        {
          "sampler": 4,
          "target": {
            "node": 4,
            "path": "rotation"
          }
        },
        {
          "sampler": 5,
          "target": {
            "node": 5,
            "path": "rotation"
          }
        },
        {
          "sampler": 6,
          "target": {
            "node": 6,
            "path": "rotation"
          }
        },
        {
          "sampler": 7,
          "target": {
            "node": 7,
            "path": "rotation"
          }
        },
        {
          "sampler": 8,
          "target": {
            "node": 0,
            "path": "translation"
          }
        },
        {
          "sampler": 9,
          "target": {
            "node": 1,
            "path": "translation"
          }
        },
        {
          "sampler": 10,
          "target": {
            "node": 2,
            "path": "translation"
          }
        },
        {
          "sampler": 11,
          "target": {
            "node": 3,
            "path": "translation"
          }
        },
        {
          "sampler": 12,
          "target": {
            "node": 4,
            "path": "translation"
          }
        },
        {
          "sampler": 13,
          "target": {
            "node": 5,
            "path": "translation"
          }
        },
        {
          "sampler": 14,
          "target": {
            "node": 6,
            "path": "translation"
          }
        },
        {
          "sampler": 15,
          "target": {
            "node": 7,
            "path": "translation"
          }
        },
        {
          "sampler": 16,
          "target": {
            "node": 0,
            "path": "scale"
          }
        },
        {
          "sampler": 17,
          "target": {
            "node": 1,
            "path": "scale"
          }
        },
        {
          "sampler": 18,
          "target": {
            "node": 2,
            "path": "scale"
          }
        },
        {
          "sampler": 19,
          "target": {
            "node": 3,
            "path": "scale"
          }
        },
        {
          "sampler": 20,
          "target": {
            "node": 4,
            "path": "scale"
          }
        },
        {
          "sampler": 21,
          "target": {
            "node": 5,
            "path": "scale"
          }
        },
        {
          "sampler": 22,
          "target": {
            "node": 6,
            "path": "scale"
          }
        },
        {
          "sampler": 23,
          "target": {
            "node": 7,
            "path": "scale"
          }
        }
      ]
    }
  ]
}
