{
  "accessors": [
    {
      "name": "vertex",
      "bufferView": 0,
      "componentType": 5126,
      "type": "VEC3",
      "count": 330,
      "min": [-0.107421875, -0.138671875, -0.104248047],
      "max": [0.107421875, 0.168212891, 0.107910156]
    },
    {
      "name": "vertex",
      "bufferView": 0,
      "componentType": 5126,
      "type": "VEC3",
      "byteOffset": 3960,
      "count": 588,
      "min": [-0.116699219, -0.0510253906, -0.177978516],
      "max": [0.116699219, 0.151123047, 0.0576171875]
    },
    {
      "name": "vertex",
      "bufferView": 0,
      "componentType": 5126,
      "type": "VEC3",
      "byteOffset": 11016,
      "count": 24,
      "min": [-0.131103516, -0.0610351562, -0.0246582031],
      "max": [0.131103516, 0.00366210938, 0.0437011719]
    },
    {
      "name": "vertex",
      "bufferView": 0,
      "componentType": 5126,
      "type": "VEC3",
      "byteOffset": 11304,
      "count": 60,
      "min": [-0.166748047, -0.0734863281, -0.0227050781],
      "max": [0.166748047, 0.00854492188, 0.0485839844]
    },
    {
      "name": "vertex",
      "bufferView": 0,
      "componentType": 5126,
      "type": "VEC3",
      "byteOffset": 12024,
      "count": 78,
      "min": [-0.0590820312, -0.136474609, -0.0424804688],
      "max": [0.0141601562, 0.0170898438, 0.0417480469]
    },
    {
      "name": "vertex",
      "bufferView": 0,
      "componentType": 5126,
      "type": "VEC3",
      "byteOffset": 12960,
      "count": 90,
      "min": [-0.044921875, -0.0642089844, -0.0446777344],
      "max": [0.0324707031, 0.0185546875, 0.0461425781]
    },
    {
      "name": "vertex",
      "bufferView": 0,
      "componentType": 5126,
      "type": "VEC3",
      "byteOffset": 14040,
      "count": 171,
      "min": [-0.0417480469, -0.145019531, -0.0490722656],
      "max": [0.0363769531, 0.0224609375, 0.0549316406]
    },
    {
      "name": "vertex",
      "bufferView": 0,
      "componentType": 5126,
      "type": "VEC3",
      "byteOffset": 16092,
      "count": 144,
      "min": [-0.0234375, -0.239257812, -0.0534667969],
      "max": [0.0737304688, 0.0146484375, 0.0461425781]
    },
    {
      "name": "vertex",
      "bufferView": 0,
      "componentType": 5126,
      "type": "VEC3",
      "byteOffset": 17820,
      "count": 138,
      "min": [-0.0561523438, -0.131347656, -0.0729980469],
      "max": [0.0502929688, 0.033203125, 0.0612792969]
    },
    {
      "name": "vertex",
      "bufferView": 0,
      "componentType": 5126,
      "type": "VEC3",
      "byteOffset": 19476,
      "count": 138,
      "min": [-0.0502929688, -0.131347656, -0.0729980469],
      "max": [0.0561523438, 0.033203125, 0.0612792969]
    },
    {
      "name": "vertex_index",
      "bufferView": 1,
      "componentType": 5125,
      "type": "SCALAR",
      "count": 330
    },
    {
      "name": "vertex_index",
      "bufferView": 1,
      "componentType": 5125,
      "type": "SCALAR",
      "byteOffset": 1320,
      "count": 588
    },
    {
      "name": "vertex_index",
      "bufferView": 1,
      "componentType": 5125,
      "type": "SCALAR",
      "byteOffset": 3672,
      "count": 24
    },
    {
      "name": "vertex_index",
      "bufferView": 1,
      "componentType": 5125,
      "type": "SCALAR",
      "byteOffset": 3768,
      "count": 60
    },
    {
      "name": "vertex_index",
      "bufferView": 1,
      "componentType": 5125,
      "type": "SCALAR",
      "byteOffset": 4008,
      "count": 78
    },
    {
      "name": "vertex_index",
      "bufferView": 1,
      "componentType": 5125,
      "type": "SCALAR",
      "byteOffset": 4320,
      "count": 90
    },
    {
      "name": "vertex_index",
      "bufferView": 1,
      "componentType": 5125,
      "type": "SCALAR",
      "byteOffset": 4680,
      "count": 171
    },
    {
      "name": "vertex_index",
      "bufferView": 1,
      "componentType": 5125,
      "type": "SCALAR",
      "byteOffset": 5364,
      "count": 144
    },
    {
      "name": "vertex_index",
      "bufferView": 1,
      "componentType": 5125,
      "type": "SCALAR",
      "byteOffset": 5940,
      "count": 138
    },
    {
      "name": "vertex_index",
      "bufferView": 1,
      "componentType": 5125,
      "type": "SCALAR",
      "byteOffset": 6492,
      "count": 138
    },
    {
      "name": "animation_rotation_output",
      "bufferView": 3,
      "componentType": 5126,
      "type": "VEC4",
      "count": 52
    },
    {
      "name": "animation_rotation_output",
      "bufferView": 3,
      "componentType": 5126,
      "type": "VEC4",
      "byteOffset": 832,
      "count": 52
    },
    {
      "name": "animation_rotation_output",
      "bufferView": 3,
      "componentType": 5126,
      "type": "VEC4",
      "byteOffset": 1664,
      "count": 52
    },
    {
      "name": "animation_rotation_output",
      "bufferView": 3,
      "componentType": 5126,
      "type": "VEC4",
      "byteOffset": 2496,
      "count": 52
    },
    {
      "name": "animation_rotation_output",
      "bufferView": 3,
      "componentType": 5126,
      "type": "VEC4",
      "byteOffset": 3328,
      "count": 52
    },
    {
      "name": "animation_rotation_output",
      "bufferView": 3,
      "componentType": 5126,
      "type": "VEC4",
      "byteOffset": 4160,
      "count": 52
    },
    {
      "name": "animation_rotation_output",
      "bufferView": 3,
      "componentType": 5126,
      "type": "VEC4",
      "byteOffset": 4992,
      "count": 52
    },
    {
      "name": "animation_rotation_output",
      "bufferView": 3,
      "componentType": 5126,
      "type": "VEC4",
      "byteOffset": 5824,
      "count": 52
    },
    {
      "name": "animation_rotation_output",
      "bufferView": 3,
      "componentType": 5126,
      "type": "VEC4",
      "byteOffset": 6656,
      "count": 52
    },
    {
      "name": "animation_rotation_output",
      "bufferView": 3,
      "componentType": 5126,
      "type": "VEC4",
      "byteOffset": 7488,
      "count": 52
    },
    {
      "name": "animation_translation_output",
      "bufferView": 4,
      "componentType": 5126,
      "type": "VEC3",
      "count": 52
    },
    {
      "name": "animation_translation_output",
      "bufferView": 4,
      "componentType": 5126,
      "type": "VEC3",
      "byteOffset": 624,
      "count": 52
    },
    {
      "name": "animation_translation_output",
      "bufferView": 4,
      "componentType": 5126,
      "type": "VEC3",
      "byteOffset": 1248,
      "count": 52
    },
    {
      "name": "animation_translation_output",
      "bufferView": 4,
      "componentType": 5126,
      "type": "VEC3",
      "byteOffset": 1872,
      "count": 52
    },
    {
      "name": "animation_translation_output",
      "bufferView": 4,
      "componentType": 5126,
      "type": "VEC3",
      "byteOffset": 2496,
      "count": 52
    },
    {
      "name": "animation_translation_output",
      "bufferView": 4,
      "componentType": 5126,
      "type": "VEC3",
      "byteOffset": 3120,
      "count": 52
    },
    {
      "name": "animation_translation_output",
      "bufferView": 4,
      "componentType": 5126,
      "type": "VEC3",
      "byteOffset": 3744,
      "count": 52
    },
    {
      "name": "animation_translation_output",
      "bufferView": 4,
      "componentType": 5126,
      "type": "VEC3",
      "byteOffset": 4368,
      "count": 52
    },
    {
      "name": "animation_translation_output",
      "bufferView": 4,
      "componentType": 5126,
      "type": "VEC3",
      "byteOffset": 4992,
      "count": 52
    },
    {
      "name": "animation_translation_output",
      "bufferView": 4,
      "componentType": 5126,
      "type": "VEC3",
      "byteOffset": 5616,
      "count": 52
    },
    {
      "name": "animation_scale_output",
      "bufferView": 5,
      "componentType": 5126,
      "type": "VEC3",
      "count": 52
    },
    {
      "name": "animation_scale_output",
      "bufferView": 5,
      "componentType": 5126,
      "type": "VEC3",
      "byteOffset": 624,
      "count": 52
    },
    {
      "name": "animation_scale_output",
      "bufferView": 5,
      "componentType": 5126,
      "type": "VEC3",
      "byteOffset": 1248,
      "count": 52
    },
    {
      "name": "animation_scale_output",
      "bufferView": 5,
      "componentType": 5126,
      "type": "VEC3",
      "byteOffset": 1872,
      "count": 52
    },
    {
      "name": "animation_scale_output",
      "bufferView": 5,
      "componentType": 5126,
      "type": "VEC3",
      "byteOffset": 2496,
      "count": 52
    },
    {
      "name": "animation_scale_output",
      "bufferView": 5,
      "componentType": 5126,
      "type": "VEC3",
      "byteOffset": 3120,
      "count": 52
    },
    {
      "name": "animation_scale_output",
      "bufferView": 5,
      "componentType": 5126,
      "type": "VEC3",
      "byteOffset": 3744,
      "count": 52
    },
    {
      "name": "animation_scale_output",
      "bufferView": 5,
      "componentType": 5126,
      "type": "VEC3",
      "byteOffset": 4368,
      "count": 52
    },
    {
      "name": "animation_scale_output",
      "bufferView": 5,
      "componentType": 5126,
      "type": "VEC3",
      "byteOffset": 4992,
      "count": 52
    },
    {
      "name": "animation_scale_output",
      "bufferView": 5,
      "componentType": 5126,
      "type": "VEC3",
      "byteOffset": 5616,
      "count": 52
    },
    {
      "name": "texcoord",
      "bufferView": 6,
      "componentType": 5126,
      "type": "VEC2",
      "count": 330
    },
    {
      "name": "texcoord",
      "bufferView": 6,
      "componentType": 5126,
      "type": "VEC2",
      "byteOffset": 2640,
      "count": 588
    },
    {
      "name": "texcoord",
      "bufferView": 6,
      "componentType": 5126,
      "type": "VEC2",
      "byteOffset": 7344,
      "count": 24
    },
    {
      "name": "texcoord",
      "bufferView": 6,
      "componentType": 5126,
      "type": "VEC2",
      "byteOffset": 7536,
      "count": 60
    },
    {
      "name": "texcoord",
      "bufferView": 6,
      "componentType": 5126,
      "type": "VEC2",
      "byteOffset": 8016,
      "count": 78
    },
    {
      "name": "texcoord",
      "bufferView": 6,
      "componentType": 5126,
      "type": "VEC2",
      "byteOffset": 8640,
      "count": 90
    },
    {
      "name": "texcoord",
      "bufferView": 6,
      "componentType": 5126,
      "type": "VEC2",
      "byteOffset": 9360,
      "count": 171
    },
    {
      "name": "texcoord",
      "bufferView": 6,
      "componentType": 5126,
      "type": "VEC2",
      "byteOffset": 10728,
      "count": 144
    },
    {
      "name": "texcoord",
      "bufferView": 6,
      "componentType": 5126,
      "type": "VEC2",
      "byteOffset": 11880,
      "count": 138
    },
    {
      "name": "texcoord",
      "bufferView": 6,
      "componentType": 5126,
      "type": "VEC2",
      "byteOffset": 12984,
      "count": 138
    },
    {
      "name": "animation_rotation_input",
      "bufferView": 2,
      "componentType": 5126,
      "type": "SCALAR",
      "count": 52,
      "min": [0],
      "max": [1.69999826]
    }
  ],
  "asset": {
    "copyright": "",
    "generator": "bukosoft corporation",
    "version": "2.0"
  },
  "bufferViews": [
    {
      "name": "vertex_buffer_view",
      "buffer": 0,
      "byteLength": 21132,
      "byteStride": 12
    },
    {
      "name": "vertex_index_buffer_view",
      "buffer": 1,
      "byteLength": 7044
    },
    {
      "name": "animation_rotation_input",
      "buffer": 2,
      "byteLength": 208
    },
    {
      "name": "animation_rotation_output_view",
      "buffer": 3,
      "byteLength": 8320
    },
    {
      "name": "animation_translation_output_view",
      "buffer": 4,
      "byteLength": 6240
    },
    {
      "name": "animation_scale_output_view",
      "buffer": 5,
      "byteLength": 6240
    },
    {
      "name": "texcoord_view",
      "buffer": 6,
      "byteLength": 14088,
      "byteStride": 8
    },
    {
      "name": "texture_view",
      "buffer": 7,
      "byteLength": 142753
    }
  ],
  "buffers": [
    {
      "name": "vertex_buffer",
      "uri": "data:application/octet-stream;base64,",
      "byteLength": 21132
    },
    {
      "name": "vertex_index_buffer",
      "uri": "data:application/octet-stream;base64,",
      "byteLength": 7044
    },
    {
      "name": "animation_rotation_input",
      "uri": "data:application/octet-stream;base64,",
      "byteLength": 208
    },
    {
      "name": "animation_rotation_output",
      "uri": "data:application/octet-stream;base64,",
      "byteLength": 8320
    },
    {
      "name": "animation_translation_output",
      "uri": "data:application/octet-stream;base64,",
      "byteLength": 6240
    },
    {
      "name": "animation_scale_output",
      "uri": "data:application/octet-stream;base64,",
      "byteLength": 6240
    },
    {
      "name": "texcoord",
      "uri": "data:application/octet-stream;base64,",
      "byteLength": 14088
    },
    {
      "name": "texture_buffer",
      "uri": "data:application/octet-stream;base64,",
      "byteLength": 142753
    }
  ],
  "images": [
    {
      "name": "texture_image",
      "bufferView": 7,
      "mimeType": "image/png"
    }
  ],
  "meshes": [
    {
      "primitives": [
        {
          "indices": 10,
          "material": 0,
          "attributes": {
            "POSITION": 0,
            "TEXCOORD_0": 50
          }
        }
      ]
    },
    {
      "primitives": [
        {
          "indices": 11,
          "material": 0,
          "attributes": {
            "POSITION": 1,
            "TEXCOORD_0": 51
          }
        }
      ]
    },
    {
      "primitives": [
        {
          "indices": 12,
          "material": 0,
          "attributes": {
            "POSITION": 2,
            "TEXCOORD_0": 52
          }
        }
      ]
    },
    {
      "primitives": [
        {
          "indices": 13,
          "material": 0,
          "attributes": {
            "POSITION": 3,
            "TEXCOORD_0": 53
          }
        }
      ]
    },
    {
      "primitives": [
        {
          "indices": 14,
          "material": 0,
          "attributes": {
            "POSITION": 4,
            "TEXCOORD_0": 54
          }
        }
      ]
    },
    {
      "primitives": [
        {
          "indices": 15,
          "material": 0,
          "attributes": {
            "POSITION": 5,
            "TEXCOORD_0": 55
          }
        }
      ]
    },
    {
      "primitives": [
        {
          "indices": 16,
          "material": 0,
          "attributes": {
            "POSITION": 6,
            "TEXCOORD_0": 56
          }
        }
      ]
    },
    {
      "primitives": [
        {
          "indices": 17,
          "material": 0,
          "attributes": {
            "POSITION": 7,
            "TEXCOORD_0": 57
          }
        }
      ]
    },
    {
      "primitives": [
        {
          "indices": 18,
          "material": 0,
          "attributes": {
            "POSITION": 8,
            "TEXCOORD_0": 58
          }
        }
      ]
    },
    {
      "primitives": [
        {
          "indices": 19,
          "material": 0,
          "attributes": {
            "POSITION": 9,
            "TEXCOORD_0": 59
          }
        }
      ]
    }
  ],
  "materials": [
    {
      "name": "material",
      "alphaCutoff": 0.100000001,
      "pbrMetallicRoughness": {
        "baseColorTexture": {
          "index": 0,
          "scale": 0
        },
        "metallicFactor": 0
      },
      "alphaMode": "MASK"
    }
  ],
  "nodes": [
    {
      "children": [ 1, 2, 4, 7 ],
      "mesh": 0,
      "name": "node",
      "translation": [0, 0, 0]
    },
    {
      "mesh": 1,
      "name": "node",
      "translation": [0, 0, 0]
    },
    {
      "children": [ 3 ],
      "mesh": 2,
      "name": "node",
      "translation": [0, 0, 0]
    },
    {
      "mesh": 3,
      "name": "node",
      "translation": [0, 0, 0]
    },
    {
      "children": [ 5 ],
      "mesh": 4,
      "name": "node",
      "translation": [0, 0, 0]
    },
    {
      "children": [ 6 ],
      "mesh": 5,
      "name": "node",
      "translation": [0, 0, 0]
    },
    {
      "mesh": 6,
      "name": "node",
      "translation": [0, 0, 0]
    },
    {
      "mesh": 7,
      "name": "node",
      "translation": [0, 0, 0]
    },
    {
      "mesh": 8,
      "name": "node",
      "translation": [0, 0, 0]
    },
    {
      "mesh": 9,
      "name": "node",
      "translation": [0, 0, 0]
    }
  ],
  "samplers": [
    {
      "name": "texture_sampler",
      "magFilter": 9728,
      "minFilter": 9728,
      "wrapS": 33071,
      "wrapT": 33071
    }
  ],
  "scenes": [
    {
      "name": "scene",
      "nodes": [ 0, 8, 9 ]
    }
  ],
  "textures": [
    {
      "name": "texture",
      "source": 0,
      "sampler": 0
    }
  ],
  "animations": [
    {
      "name": "animation",
      "samplers": [
        {
          "interpolation": "STEP",
          "input": 60,
          "output": 20
        },
        {
          "interpolation": "STEP",
          "input": 60,
          "output": 21
        },
        {
          "interpolation": "STEP",
          "input": 60,
          "output": 22
        },
        {
          "interpolation": "STEP",
          "input": 60,
          "output": 23
        },
        {
          "interpolation": "STEP",
          "input": 60,
          "output": 24
        },
        {
          "interpolation": "STEP",
          "input": 60,
          "output": 25
        },
        {
          "interpolation": "STEP",
          "input": 60,
          "output": 26
        },
        {
          "interpolation": "STEP",
          "input": 60,
          "output": 27
        },
        {
          "interpolation": "STEP",
          "input": 60,
          "output": 28
        },
        {
          "interpolation": "STEP",
          "input": 60,
          "output": 29
        },
        {
          "interpolation": "STEP",
          "input": 60,
          "output": 30
        },
        {
          "interpolation": "STEP",
          "input": 60,
          "output": 31
        },
        {
          "interpolation": "STEP",
          "input": 60,
          "output": 32
        },
        {
          "interpolation": "STEP",
          "input": 60,
          "output": 33
        },
        {
          "interpolation": "STEP",
          "input": 60,
          "output": 34
        },
        {
          "interpolation": "STEP",
          "input": 60,
          "output": 35
        },
        {
          "interpolation": "STEP",
          "input": 60,
          "output": 36
        },
        {
          "interpolation": "STEP",
          "input": 60,
          "output": 37
        },
        {
          "interpolation": "STEP",
          "input": 60,
          "output": 38
        },
        {
          "interpolation": "STEP",
          "input": 60,
          "output": 39
        },
        {
          "interpolation": "STEP",
          "input": 60,
          "output": 40
        },
        {
          "interpolation": "STEP",
          "input": 60,
          "output": 41
        },
        {
          "interpolation": "STEP",
          "input": 60,
          "output": 42
        },
        {
          "interpolation": "STEP",
          "input": 60,
          "output": 43
        },
        {
          "interpolation": "STEP",
          "input": 60,
          "output": 44
        },
        {
          "interpolation": "STEP",
          "input": 60,
          "output": 45
        },
        {
          "interpolation": "STEP",
          "input": 60,
          "output": 46
        },
        {
          "interpolation": "STEP",
          "input": 60,
          "output": 47
        },
        {
          "interpolation": "STEP",
          "input": 60,
          "output": 48
        },
        {
          "interpolation": "STEP",
          "input": 60,
          "output": 49
        }
      ],
      "channels": [
        {
          "sampler": 0,
          "target": {
            "node": 0,
            "path": "rotation"
          }
        },
        {
          "sampler": 1,
          "target": {
            "node": 1,
            "path": "rotation"
          }
        },
        {
          "sampler": 2,
          "target": {
            "node": 2,
            "path": "rotation"
          }
        },
        {
          "sampler": 3,
          "target": {
            "node": 3,
            "path": "rotation"
          }
        },
        {
          "sampler": 4,
          "target": {
            "node": 4,
            "path": "rotation"
          }
        },
        {
          "sampler": 5,
          "target": {
            "node": 5,
            "path": "rotation"
          }
        },
        {
          "sampler": 6,
          "target": {
            "node": 6,
            "path": "rotation"
          }
        },
        {
          "sampler": 7,
          "target": {
            "node": 7,
            "path": "rotation"
          }
        },
        {
          "sampler": 8,
          "target": {
            "node": 8,
            "path": "rotation"
          }
        },
        {
          "sampler": 9,
          "target": {
            "node": 9,
            "path": "rotation"
          }
        },
        {
          "sampler": 10,
          "target": {
            "node": 0,
            "path": "translation"
          }
        },
        {
          "sampler": 11,
          "target": {
            "node": 1,
            "path": "translation"
          }
        },
        {
          "sampler": 12,
          "target": {
            "node": 2,
            "path": "translation"
          }
        },
        {
          "sampler": 13,
          "target": {
            "node": 3,
            "path": "translation"
          }
        },
        {
          "sampler": 14,
          "target": {
            "node": 4,
            "path": "translation"
          }
        },
        {
          "sampler": 15,
          "target": {
            "node": 5,
            "path": "translation"
          }
        },
        {
          "sampler": 16,
          "target": {
            "node": 6,
            "path": "translation"
          }
        },
        {
          "sampler": 17,
          "target": {
            "node": 7,
            "path": "translation"
          }
        },
        {
          "sampler": 18,
          "target": {
            "node": 8,
            "path": "translation"
          }
        },
        {
          "sampler": 19,
          "target": {
            "node": 9,
            "path": "translation"
          }
        },
        {
          "sampler": 20,
          "target": {
            "node": 0,
            "path": "scale"
          }
        },
        {
          "sampler": 21,
          "target": {
            "node": 1,
            "path": "scale"
          }
        },
        {
          "sampler": 22,
          "target": {
            "node": 2,
            "path": "scale"
          }
        },
        {
          "sampler": 23,
          "target": {
            "node": 3,
            "path": "scale"
          }
        },
        {
          "sampler": 24,
          "target": {
            "node": 4,
            "path": "scale"
          }
        },
        {
          "sampler": 25,
          "target": {
            "node": 5,
            "path": "scale"
          }
        },
        {
          "sampler": 26,
          "target": {
            "node": 6,
            "path": "scale"
          }
        },
        {
          "sampler": 27,
          "target": {
            "node": 7,
            "path": "scale"
          }
        },
        {
          "sampler": 28,
          "target": {
            "node": 8,
            "path": "scale"
          }
        },
        {
          "sampler": 29,
          "target": {
            "node": 9,
            "path": "scale"
          }
        }
      ]
    }
  ]
}
