{
  "accessors": [
    {
      "name": "vertex",
      "bufferView": 0,
      "componentType": 5126,
      "type": "VEC3",
      "count": 342,
      "min": [-0.166259766, -0.0783691406, -0.327880859],
      "max": [0.166259766, 0.231201172, -0.001953125]
    },
    {
      "name": "vertex",
      "bufferView": 0,
      "componentType": 5126,
      "type": "VEC3",
      "byteOffset": 4104,
      "count": 180,
      "min": [-0.129394531, -0.121826172, -0.251953125],
      "max": [0.129394531, 0.0190429688, 0.0144042969]
    },
    {
      "name": "vertex",
      "bufferView": 0,
      "componentType": 5126,
      "type": "VEC3",
      "byteOffset": 6264,
      "count": 192,
      "min": [-0.129394531, -0.121826172, -0.0385742188],
      "max": [0.129394531, 0.159912109, 0.216552734]
    },
    {
      "name": "vertex",
      "bufferView": 0,
      "componentType": 5126,
      "type": "VEC3",
      "byteOffset": 8568,
      "count": 192,
      "min": [-0.102539062, -0.1015625, -0.0229492188],
      "max": [0.102539062, 0.112548828, 0.132568359]
    },
    {
      "name": "vertex",
      "bufferView": 0,
      "componentType": 5126,
      "type": "VEC3",
      "byteOffset": 10872,
      "count": 132,
      "min": [-0.0637207031, -0.0581054688, -0.0153808594],
      "max": [0.0637207031, 0.0822753906, 0.0983886719]
    },
    {
      "name": "vertex",
      "bufferView": 0,
      "componentType": 5126,
      "type": "VEC3",
      "byteOffset": 12456,
      "count": 240,
      "min": [-0.199707031, -0.0231933594, -0.0119628906],
      "max": [0.199462891, 0.0549316406, 0.179199219]
    },
    {
      "name": "vertex",
      "bufferView": 0,
      "componentType": 5126,
      "type": "VEC3",
      "byteOffset": 15336,
      "count": 60,
      "min": [0, -0.114501953, -0.0393066406],
      "max": [0.165771484, 0.00219726562, 0.165039062]
    },
    {
      "name": "vertex",
      "bufferView": 0,
      "componentType": 5126,
      "type": "VEC3",
      "byteOffset": 16056,
      "count": 60,
      "min": [-0.165771484, -0.114501953, -0.0393066406],
      "max": [0, 0.00219726562, 0.165039062]
    },
    {
      "name": "vertex_index",
      "bufferView": 1,
      "componentType": 5125,
      "type": "SCALAR",
      "count": 342
    },
    {
      "name": "vertex_index",
      "bufferView": 1,
      "componentType": 5125,
      "type": "SCALAR",
      "byteOffset": 1368,
      "count": 180
    },
    {
      "name": "vertex_index",
      "bufferView": 1,
      "componentType": 5125,
      "type": "SCALAR",
      "byteOffset": 2088,
      "count": 192
    },
    {
      "name": "vertex_index",
      "bufferView": 1,
      "componentType": 5125,
      "type": "SCALAR",
      "byteOffset": 2856,
      "count": 192
    },
    {
      "name": "vertex_index",
      "bufferView": 1,
      "componentType": 5125,
      "type": "SCALAR",
      "byteOffset": 3624,
      "count": 132
    },
    {
      "name": "vertex_index",
      "bufferView": 1,
      "componentType": 5125,
      "type": "SCALAR",
      "byteOffset": 4152,
      "count": 240
    },
    {
      "name": "vertex_index",
      "bufferView": 1,
      "componentType": 5125,
      "type": "SCALAR",
      "byteOffset": 5112,
      "count": 60
    },
    {
      "name": "vertex_index",
      "bufferView": 1,
      "componentType": 5125,
      "type": "SCALAR",
      "byteOffset": 5352,
      "count": 60
    },
    {
      "name": "animation_rotation_output",
      "bufferView": 3,
      "componentType": 5126,
      "type": "VEC4",
      "count": 40
    },
    {
      "name": "animation_rotation_output",
      "bufferView": 3,
      "componentType": 5126,
      "type": "VEC4",
      "byteOffset": 640,
      "count": 40
    },
    {
      "name": "animation_rotation_output",
      "bufferView": 3,
      "componentType": 5126,
      "type": "VEC4",
      "byteOffset": 1280,
      "count": 40
    },
    {
      "name": "animation_rotation_output",
      "bufferView": 3,
      "componentType": 5126,
      "type": "VEC4",
      "byteOffset": 1920,
      "count": 40
    },
    {
      "name": "animation_rotation_output",
      "bufferView": 3,
      "componentType": 5126,
      "type": "VEC4",
      "byteOffset": 2560,
      "count": 40
    },
    {
      "name": "animation_rotation_output",
      "bufferView": 3,
      "componentType": 5126,
      "type": "VEC4",
      "byteOffset": 3200,
      "count": 40
    },
    {
      "name": "animation_rotation_output",
      "bufferView": 3,
      "componentType": 5126,
      "type": "VEC4",
      "byteOffset": 3840,
      "count": 40
    },
    {
      "name": "animation_rotation_output",
      "bufferView": 3,
      "componentType": 5126,
      "type": "VEC4",
      "byteOffset": 4480,
      "count": 40
    },
    {
      "name": "animation_translation_output",
      "bufferView": 4,
      "componentType": 5126,
      "type": "VEC3",
      "count": 40
    },
    {
      "name": "animation_translation_output",
      "bufferView": 4,
      "componentType": 5126,
      "type": "VEC3",
      "byteOffset": 480,
      "count": 40
    },
    {
      "name": "animation_translation_output",
      "bufferView": 4,
      "componentType": 5126,
      "type": "VEC3",
      "byteOffset": 960,
      "count": 40
    },
    {
      "name": "animation_translation_output",
      "bufferView": 4,
      "componentType": 5126,
      "type": "VEC3",
      "byteOffset": 1440,
      "count": 40
    },
    {
      "name": "animation_translation_output",
      "bufferView": 4,
      "componentType": 5126,
      "type": "VEC3",
      "byteOffset": 1920,
      "count": 40
    },
    {
      "name": "animation_translation_output",
      "bufferView": 4,
      "componentType": 5126,
      "type": "VEC3",
      "byteOffset": 2400,
      "count": 40
    },
    {
      "name": "animation_translation_output",
      "bufferView": 4,
      "componentType": 5126,
      "type": "VEC3",
      "byteOffset": 2880,
      "count": 40
    },
    {
      "name": "animation_translation_output",
      "bufferView": 4,
      "componentType": 5126,
      "type": "VEC3",
      "byteOffset": 3360,
      "count": 40
    },
    {
      "name": "animation_scale_output",
      "bufferView": 5,
      "componentType": 5126,
      "type": "VEC3",
      "count": 40
    },
    {
      "name": "animation_scale_output",
      "bufferView": 5,
      "componentType": 5126,
      "type": "VEC3",
      "byteOffset": 480,
      "count": 40
    },
    {
      "name": "animation_scale_output",
      "bufferView": 5,
      "componentType": 5126,
      "type": "VEC3",
      "byteOffset": 960,
      "count": 40
    },
    {
      "name": "animation_scale_output",
      "bufferView": 5,
      "componentType": 5126,
      "type": "VEC3",
      "byteOffset": 1440,
      "count": 40
    },
    {
      "name": "animation_scale_output",
      "bufferView": 5,
      "componentType": 5126,
      "type": "VEC3",
      "byteOffset": 1920,
      "count": 40
    },
    {
      "name": "animation_scale_output",
      "bufferView": 5,
      "componentType": 5126,
      "type": "VEC3",
      "byteOffset": 2400,
      "count": 40
    },
    {
      "name": "animation_scale_output",
      "bufferView": 5,
      "componentType": 5126,
      "type": "VEC3",
      "byteOffset": 2880,
      "count": 40
    },
    {
      "name": "animation_scale_output",
      "bufferView": 5,
      "componentType": 5126,
      "type": "VEC3",
      "byteOffset": 3360,
      "count": 40
    },
    {
      "name": "texcoord",
      "bufferView": 6,
      "componentType": 5126,
      "type": "VEC2",
      "count": 342
    },
    {
      "name": "texcoord",
      "bufferView": 6,
      "componentType": 5126,
      "type": "VEC2",
      "byteOffset": 2736,
      "count": 180
    },
    {
      "name": "texcoord",
      "bufferView": 6,
      "componentType": 5126,
      "type": "VEC2",
      "byteOffset": 4176,
      "count": 192
    },
    {
      "name": "texcoord",
      "bufferView": 6,
      "componentType": 5126,
      "type": "VEC2",
      "byteOffset": 5712,
      "count": 192
    },
    {
      "name": "texcoord",
      "bufferView": 6,
      "componentType": 5126,
      "type": "VEC2",
      "byteOffset": 7248,
      "count": 132
    },
    {
      "name": "texcoord",
      "bufferView": 6,
      "componentType": 5126,
      "type": "VEC2",
      "byteOffset": 8304,
      "count": 240
    },
    {
      "name": "texcoord",
      "bufferView": 6,
      "componentType": 5126,
      "type": "VEC2",
      "byteOffset": 10224,
      "count": 60
    },
    {
      "name": "texcoord",
      "bufferView": 6,
      "componentType": 5126,
      "type": "VEC2",
      "byteOffset": 10704,
      "count": 60
    },
    {
      "name": "animation_rotation_input",
      "bufferView": 2,
      "componentType": 5126,
      "type": "SCALAR",
      "count": 40,
      "min": [0],
      "max": [1.29999864]
    }
  ],
  "asset": {
    "copyright": "",
    "generator": "bukosoft corporation",
    "version": "2.0"
  },
  "bufferViews": [
    {
      "name": "vertex_buffer_view",
      "buffer": 0,
      "byteLength": 16776,
      "byteStride": 12
    },
    {
      "name": "vertex_index_buffer_view",
      "buffer": 1,
      "byteLength": 5592
    },
    {
      "name": "animation_rotation_input",
      "buffer": 2,
      "byteLength": 160
    },
    {
      "name": "animation_rotation_output_view",
      "buffer": 3,
      "byteLength": 5120
    },
    {
      "name": "animation_translation_output_view",
      "buffer": 4,
      "byteLength": 3840
    },
    {
      "name": "animation_scale_output_view",
      "buffer": 5,
      "byteLength": 3840
    },
    {
      "name": "texcoord_view",
      "buffer": 6,
      "byteLength": 11184,
      "byteStride": 8
    },
    {
      "name": "texture_view",
      "buffer": 7,
      "byteLength": 128505
    }
  ],
  "buffers": [
    {
      "name": "vertex_buffer",
      "uri": "data:application/octet-stream;base64,",
      "byteLength": 16776
    },
    {
      "name": "vertex_index_buffer",
      "uri": "data:application/octet-stream;base64,",
      "byteLength": 5592
    },
    {
      "name": "animation_rotation_input",
      "uri": "data:application/octet-stream;base64,",
      "byteLength": 160
    },
    {
      "name": "animation_rotation_output",
      "uri": "data:application/octet-stream;base64,",
      "byteLength": 5120
    },
    {
      "name": "animation_translation_output",
      "uri": "data:application/octet-stream;base64,",
      "byteLength": 3840
    },
    {
      "name": "animation_scale_output",
      "uri": "data:application/octet-stream;base64,",
      "byteLength": 3840
    },
    {
      "name": "texcoord",
      "uri": "data:application/octet-stream;base64,",
      "byteLength": 11184
    },
    {
      "name": "texture_buffer",
      "uri": "data:application/octet-stream;base64,",
      "byteLength": 128505
    }
  ],
  "images": [
    {
      "name": "texture_image",
      "bufferView": 7,
      "mimeType": "image/png"
    }
  ],
  "meshes": [
    {
      "primitives": [
        {
          "indices": 8,
          "material": 0,
          "attributes": {
            "POSITION": 0,
            "TEXCOORD_0": 40
          }
        }
      ]
    },
    {
      "primitives": [
        {
          "indices": 9,
          "material": 0,
          "attributes": {
            "POSITION": 1,
            "TEXCOORD_0": 41
          }
        }
      ]
    },
    {
      "primitives": [
        {
          "indices": 10,
          "material": 0,
          "attributes": {
            "POSITION": 2,
            "TEXCOORD_0": 42
          }
        }
      ]
    },
    {
      "primitives": [
        {
          "indices": 11,
          "material": 0,
          "attributes": {
            "POSITION": 3,
            "TEXCOORD_0": 43
          }
        }
      ]
    },
    {
      "primitives": [
        {
          "indices": 12,
          "material": 0,
          "attributes": {
            "POSITION": 4,
            "TEXCOORD_0": 44
          }
        }
      ]
    },
    {
      "primitives": [
        {
          "indices": 13,
          "material": 0,
          "attributes": {
            "POSITION": 5,
            "TEXCOORD_0": 45
          }
        }
      ]
    },
    {
      "primitives": [
        {
          "indices": 14,
          "material": 0,
          "attributes": {
            "POSITION": 6,
            "TEXCOORD_0": 46
          }
        }
      ]
    },
    {
      "primitives": [
        {
          "indices": 15,
          "material": 0,
          "attributes": {
            "POSITION": 7,
            "TEXCOORD_0": 47
          }
        }
      ]
    }
  ],
  "materials": [
    {
      "name": "material",
      "alphaCutoff": 0.100000001,
      "pbrMetallicRoughness": {
        "baseColorTexture": {
          "index": 0,
          "scale": 0
        },
        "metallicFactor": 0
      },
      "alphaMode": "MASK"
    }
  ],
  "nodes": [
    {
      "children": [ 1 ],
      "mesh": 0,
      "name": "node",
      "translation": [0, 0, 0]
    },
    {
      "mesh": 1,
      "name": "node",
      "translation": [0, 0, 0]
    },
    {
      "children": [ 3, 6, 7 ],
      "mesh": 2,
      "name": "node",
      "translation": [0, 0, 0]
    },
    {
      "children": [ 4 ],
      "mesh": 3,
      "name": "node",
      "translation": [0, 0, 0]
    },
    {
      "children": [ 5 ],
      "mesh": 4,
      "name": "node",
      "translation": [0, 0, 0]
    },
    {
      "mesh": 5,
      "name": "node",
      "translation": [0, 0, 0]
    },
    {
      "mesh": 6,
      "name": "node",
      "translation": [0, 0, 0]
    },
    {
      "mesh": 7,
      "name": "node",
      "translation": [0, 0, 0]
    }
  ],
  "samplers": [
    {
      "name": "texture_sampler",
      "magFilter": 9728,
      "minFilter": 9728,
      "wrapS": 33071,
      "wrapT": 33071
    }
  ],
  "scenes": [
    {
      "name": "scene",
      "nodes": [ 0, 2 ]
    }
  ],
  "textures": [
    {
      "name": "texture",
      "source": 0,
      "sampler": 0
    }
  ],
  "animations": [
    {
      "name": "animation",
      "samplers": [
        {
          "interpolation": "STEP",
          "input": 48,
          "output": 16
        },
        {
          "interpolation": "STEP",
          "input": 48,
          "output": 17
        },
        {
          "interpolation": "STEP",
          "input": 48,
          "output": 18
        },
        {
          "interpolation": "STEP",
          "input": 48,
          "output": 19
        },
        {
          "interpolation": "STEP",
          "input": 48,
          "output": 20
        },
        {
          "interpolation": "STEP",
          "input": 48,
          "output": 21
        },
        {
          "interpolation": "STEP",
          "input": 48,
          "output": 22
        },
        {
          "interpolation": "STEP",
          "input": 48,
          "output": 23
        },
        {
          "interpolation": "STEP",
          "input": 48,
          "output": 24
        },
        {
          "interpolation": "STEP",
          "input": 48,
          "output": 25
        },
        {
          "interpolation": "STEP",
          "input": 48,
          "output": 26
        },
        {
          "interpolation": "STEP",
          "input": 48,
          "output": 27
        },
        {
          "interpolation": "STEP",
          "input": 48,
          "output": 28
        },
        {
          "interpolation": "STEP",
          "input": 48,
          "output": 29
        },
        {
          "interpolation": "STEP",
          "input": 48,
          "output": 30
        },
        {
          "interpolation": "STEP",
          "input": 48,
          "output": 31
        },
        {
          "interpolation": "STEP",
          "input": 48,
          "output": 32
        },
        {
          "interpolation": "STEP",
          "input": 48,
          "output": 33
        },
        {
          "interpolation": "STEP",
          "input": 48,
          "output": 34
        },
        {
          "interpolation": "STEP",
          "input": 48,
          "output": 35
        },
        {
          "interpolation": "STEP",
          "input": 48,
          "output": 36
        },
        {
          "interpolation": "STEP",
          "input": 48,
          "output": 37
        },
        {
          "interpolation": "STEP",
          "input": 48,
          "output": 38
        },
        {
          "interpolation": "STEP",
          "input": 48,
          "output": 39
        }
      ],
      "channels": [
        {
          "sampler": 0,
          "target": {
            "node": 0,
            "path": "rotation"
          }
        },
        {
          "sampler": 1,
          "target": {
            "node": 1,
            "path": "rotation"
          }
        },
        {
          "sampler": 2,
          "target": {
            "node": 2,
            "path": "rotation"
          }
        },
        {
          "sampler": 3,
          "target": {
            "node": 3,
            "path": "rotation"
          }
        },
        {
          "sampler": 4,
          "target": {
            "node": 4,
            "path": "rotation"
          }
        },
        {
          "sampler": 5,
          "target": {
            "node": 5,
            "path": "rotation"
          }
        },
        {
          "sampler": 6,
          "target": {
            "node": 6,
            "path": "rotation"
          }
        },
        {
          "sampler": 7,
          "target": {
            "node": 7,
            "path": "rotation"
          }
        },
        {
          "sampler": 8,
          "target": {
            "node": 0,
            "path": "translation"
          }
        },
        {
          "sampler": 9,
          "target": {
            "node": 1,
            "path": "translation"
          }
        },
        {
          "sampler": 10,
          "target": {
            "node": 2,
            "path": "translation"
          }
        },
        {
          "sampler": 11,
          "target": {
            "node": 3,
            "path": "translation"
          }
        },
        {
          "sampler": 12,
          "target": {
            "node": 4,
            "path": "translation"
          }
        },
        {
          "sampler": 13,
          "target": {
            "node": 5,
            "path": "translation"
          }
        },
        {
          "sampler": 14,
          "target": {
            "node": 6,
            "path": "translation"
          }
        },
        {
          "sampler": 15,
          "target": {
            "node": 7,
            "path": "translation"
          }
        },
        {
          "sampler": 16,
          "target": {
            "node": 0,
            "path": "scale"
          }
        },
        {
          "sampler": 17,
          "target": {
            "node": 1,
            "path": "scale"
          }
        },
        {
          "sampler": 18,
          "target": {
            "node": 2,
            "path": "scale"
          }
        },
        {
          "sampler": 19,
          "target": {
            "node": 3,
            "path": "scale"
          }
        },
        {
          "sampler": 20,
          "target": {
            "node": 4,
            "path": "scale"
          }
        },
        {
          "sampler": 21,
          "target": {
            "node": 5,
            "path": "scale"
          }
        },
        {
          "sampler": 22,
          "target": {
            "node": 6,
            "path": "scale"
          }
        },
        {
          "sampler": 23,
          "target": {
            "node": 7,
            "path": "scale"
          }
        }
      ]
    }
  ]
}
