{
  "accessors": [
    {
      "name": "vertex",
      "bufferView": 0,
      "componentType": 5126,
      "type": "VEC3",
      "count": 204,
      "min": [-0.0734863281, -0.115722656, -0.100830078],
      "max": [0.0388183594, 0.116943359, 0.100830078]
    },
    {
      "name": "vertex",
      "bufferView": 0,
      "componentType": 5126,
      "type": "VEC3",
      "byteOffset": 2448,
      "count": 48,
      "min": [-0.0380859375, -0.0129394531, -0.0129394531],
      "max": [0.00634765625, 0.0126953125, 0.0129394531]
    },
    {
      "name": "vertex",
      "bufferView": 0,
      "componentType": 5126,
      "type": "VEC3",
      "byteOffset": 3024,
      "count": 378,
      "min": [-0.106445312, -0.0363769531, -0.0502929688],
      "max": [0.00341796875, 0.0327148438, 0.0502929688]
    },
    {
      "name": "vertex",
      "bufferView": 0,
      "componentType": 5126,
      "type": "VEC3",
      "byteOffset": 7560,
      "count": 516,
      "min": [-0.170166016, -0.140136719, -0.0739746094],
      "max": [0.00659179688, 0.0375976562, 0.0739746094]
    },
    {
      "name": "vertex",
      "bufferView": 0,
      "componentType": 5126,
      "type": "VEC3",
      "byteOffset": 13752,
      "count": 90,
      "min": [-0.0588378906, -0.0161132812, -0.0151367188],
      "max": [0.00439453125, 0.0148925781, 0.0151367188]
    },
    {
      "name": "vertex",
      "bufferView": 0,
      "componentType": 5126,
      "type": "VEC3",
      "byteOffset": 14832,
      "count": 72,
      "min": [-0.0573730469, -0.0119628906, -0.0122070312],
      "max": [0.00415039062, 0.0122070312, 0.0122070312]
    },
    {
      "name": "vertex",
      "bufferView": 0,
      "componentType": 5126,
      "type": "VEC3",
      "byteOffset": 15696,
      "count": 174,
      "min": [-0.0847167969, -0.0190429688, -0.0400390625],
      "max": [0.00317382812, 0.0471191406, 0.0275878906]
    },
    {
      "name": "vertex",
      "bufferView": 0,
      "componentType": 5126,
      "type": "VEC3",
      "byteOffset": 17784,
      "count": 90,
      "min": [-0.0588378906, -0.0161132812, -0.0151367188],
      "max": [0.00439453125, 0.0148925781, 0.0151367188]
    },
    {
      "name": "vertex",
      "bufferView": 0,
      "componentType": 5126,
      "type": "VEC3",
      "byteOffset": 18864,
      "count": 72,
      "min": [-0.0573730469, -0.0119628906, -0.0122070312],
      "max": [0.00415039062, 0.0122070312, 0.0122070312]
    },
    {
      "name": "vertex",
      "bufferView": 0,
      "componentType": 5126,
      "type": "VEC3",
      "byteOffset": 19728,
      "count": 378,
      "min": [-0.121582031, -0.0258789062, -0.0520019531],
      "max": [0.0029296875, 0.0256347656, 0.0246582031]
    },
    {
      "name": "vertex_index",
      "bufferView": 1,
      "componentType": 5125,
      "type": "SCALAR",
      "count": 204
    },
    {
      "name": "vertex_index",
      "bufferView": 1,
      "componentType": 5125,
      "type": "SCALAR",
      "byteOffset": 816,
      "count": 48
    },
    {
      "name": "vertex_index",
      "bufferView": 1,
      "componentType": 5125,
      "type": "SCALAR",
      "byteOffset": 1008,
      "count": 378
    },
    {
      "name": "vertex_index",
      "bufferView": 1,
      "componentType": 5125,
      "type": "SCALAR",
      "byteOffset": 2520,
      "count": 516
    },
    {
      "name": "vertex_index",
      "bufferView": 1,
      "componentType": 5125,
      "type": "SCALAR",
      "byteOffset": 4584,
      "count": 90
    },
    {
      "name": "vertex_index",
      "bufferView": 1,
      "componentType": 5125,
      "type": "SCALAR",
      "byteOffset": 4944,
      "count": 72
    },
    {
      "name": "vertex_index",
      "bufferView": 1,
      "componentType": 5125,
      "type": "SCALAR",
      "byteOffset": 5232,
      "count": 174
    },
    {
      "name": "vertex_index",
      "bufferView": 1,
      "componentType": 5125,
      "type": "SCALAR",
      "byteOffset": 5928,
      "count": 90
    },
    {
      "name": "vertex_index",
      "bufferView": 1,
      "componentType": 5125,
      "type": "SCALAR",
      "byteOffset": 6288,
      "count": 72
    },
    {
      "name": "vertex_index",
      "bufferView": 1,
      "componentType": 5125,
      "type": "SCALAR",
      "byteOffset": 6576,
      "count": 378
    },
    {
      "name": "animation_rotation_output",
      "bufferView": 3,
      "componentType": 5126,
      "type": "VEC4",
      "count": 64
    },
    {
      "name": "animation_rotation_output",
      "bufferView": 3,
      "componentType": 5126,
      "type": "VEC4",
      "byteOffset": 1024,
      "count": 64
    },
    {
      "name": "animation_rotation_output",
      "bufferView": 3,
      "componentType": 5126,
      "type": "VEC4",
      "byteOffset": 2048,
      "count": 64
    },
    {
      "name": "animation_rotation_output",
      "bufferView": 3,
      "componentType": 5126,
      "type": "VEC4",
      "byteOffset": 3072,
      "count": 64
    },
    {
      "name": "animation_rotation_output",
      "bufferView": 3,
      "componentType": 5126,
      "type": "VEC4",
      "byteOffset": 4096,
      "count": 64
    },
    {
      "name": "animation_rotation_output",
      "bufferView": 3,
      "componentType": 5126,
      "type": "VEC4",
      "byteOffset": 5120,
      "count": 64
    },
    {
      "name": "animation_rotation_output",
      "bufferView": 3,
      "componentType": 5126,
      "type": "VEC4",
      "byteOffset": 6144,
      "count": 64
    },
    {
      "name": "animation_rotation_output",
      "bufferView": 3,
      "componentType": 5126,
      "type": "VEC4",
      "byteOffset": 7168,
      "count": 64
    },
    {
      "name": "animation_rotation_output",
      "bufferView": 3,
      "componentType": 5126,
      "type": "VEC4",
      "byteOffset": 8192,
      "count": 64
    },
    {
      "name": "animation_rotation_output",
      "bufferView": 3,
      "componentType": 5126,
      "type": "VEC4",
      "byteOffset": 9216,
      "count": 64
    },
    {
      "name": "animation_translation_output",
      "bufferView": 4,
      "componentType": 5126,
      "type": "VEC3",
      "count": 64
    },
    {
      "name": "animation_translation_output",
      "bufferView": 4,
      "componentType": 5126,
      "type": "VEC3",
      "byteOffset": 768,
      "count": 64
    },
    {
      "name": "animation_translation_output",
      "bufferView": 4,
      "componentType": 5126,
      "type": "VEC3",
      "byteOffset": 1536,
      "count": 64
    },
    {
      "name": "animation_translation_output",
      "bufferView": 4,
      "componentType": 5126,
      "type": "VEC3",
      "byteOffset": 2304,
      "count": 64
    },
    {
      "name": "animation_translation_output",
      "bufferView": 4,
      "componentType": 5126,
      "type": "VEC3",
      "byteOffset": 3072,
      "count": 64
    },
    {
      "name": "animation_translation_output",
      "bufferView": 4,
      "componentType": 5126,
      "type": "VEC3",
      "byteOffset": 3840,
      "count": 64
    },
    {
      "name": "animation_translation_output",
      "bufferView": 4,
      "componentType": 5126,
      "type": "VEC3",
      "byteOffset": 4608,
      "count": 64
    },
    {
      "name": "animation_translation_output",
      "bufferView": 4,
      "componentType": 5126,
      "type": "VEC3",
      "byteOffset": 5376,
      "count": 64
    },
    {
      "name": "animation_translation_output",
      "bufferView": 4,
      "componentType": 5126,
      "type": "VEC3",
      "byteOffset": 6144,
      "count": 64
    },
    {
      "name": "animation_translation_output",
      "bufferView": 4,
      "componentType": 5126,
      "type": "VEC3",
      "byteOffset": 6912,
      "count": 64
    },
    {
      "name": "animation_scale_output",
      "bufferView": 5,
      "componentType": 5126,
      "type": "VEC3",
      "count": 64
    },
    {
      "name": "animation_scale_output",
      "bufferView": 5,
      "componentType": 5126,
      "type": "VEC3",
      "byteOffset": 768,
      "count": 64
    },
    {
      "name": "animation_scale_output",
      "bufferView": 5,
      "componentType": 5126,
      "type": "VEC3",
      "byteOffset": 1536,
      "count": 64
    },
    {
      "name": "animation_scale_output",
      "bufferView": 5,
      "componentType": 5126,
      "type": "VEC3",
      "byteOffset": 2304,
      "count": 64
    },
    {
      "name": "animation_scale_output",
      "bufferView": 5,
      "componentType": 5126,
      "type": "VEC3",
      "byteOffset": 3072,
      "count": 64
    },
    {
      "name": "animation_scale_output",
      "bufferView": 5,
      "componentType": 5126,
      "type": "VEC3",
      "byteOffset": 3840,
      "count": 64
    },
    {
      "name": "animation_scale_output",
      "bufferView": 5,
      "componentType": 5126,
      "type": "VEC3",
      "byteOffset": 4608,
      "count": 64
    },
    {
      "name": "animation_scale_output",
      "bufferView": 5,
      "componentType": 5126,
      "type": "VEC3",
      "byteOffset": 5376,
      "count": 64
    },
    {
      "name": "animation_scale_output",
      "bufferView": 5,
      "componentType": 5126,
      "type": "VEC3",
      "byteOffset": 6144,
      "count": 64
    },
    {
      "name": "animation_scale_output",
      "bufferView": 5,
      "componentType": 5126,
      "type": "VEC3",
      "byteOffset": 6912,
      "count": 64
    },
    {
      "name": "texcoord",
      "bufferView": 6,
      "componentType": 5126,
      "type": "VEC2",
      "count": 204
    },
    {
      "name": "texcoord",
      "bufferView": 6,
      "componentType": 5126,
      "type": "VEC2",
      "byteOffset": 1632,
      "count": 48
    },
    {
      "name": "texcoord",
      "bufferView": 6,
      "componentType": 5126,
      "type": "VEC2",
      "byteOffset": 2016,
      "count": 378
    },
    {
      "name": "texcoord",
      "bufferView": 6,
      "componentType": 5126,
      "type": "VEC2",
      "byteOffset": 5040,
      "count": 516
    },
    {
      "name": "texcoord",
      "bufferView": 6,
      "componentType": 5126,
      "type": "VEC2",
      "byteOffset": 9168,
      "count": 90
    },
    {
      "name": "texcoord",
      "bufferView": 6,
      "componentType": 5126,
      "type": "VEC2",
      "byteOffset": 9888,
      "count": 72
    },
    {
      "name": "texcoord",
      "bufferView": 6,
      "componentType": 5126,
      "type": "VEC2",
      "byteOffset": 10464,
      "count": 174
    },
    {
      "name": "texcoord",
      "bufferView": 6,
      "componentType": 5126,
      "type": "VEC2",
      "byteOffset": 11856,
      "count": 90
    },
    {
      "name": "texcoord",
      "bufferView": 6,
      "componentType": 5126,
      "type": "VEC2",
      "byteOffset": 12576,
      "count": 72
    },
    {
      "name": "texcoord",
      "bufferView": 6,
      "componentType": 5126,
      "type": "VEC2",
      "byteOffset": 13152,
      "count": 378
    },
    {
      "name": "animation_rotation_input",
      "bufferView": 2,
      "componentType": 5126,
      "type": "SCALAR",
      "count": 64,
      "min": [0],
      "max": [2.099998]
    }
  ],
  "asset": {
    "copyright": "",
    "generator": "bukosoft corporation",
    "version": "2.0"
  },
  "bufferViews": [
    {
      "name": "vertex_buffer_view",
      "buffer": 0,
      "byteLength": 24264,
      "byteStride": 12
    },
    {
      "name": "vertex_index_buffer_view",
      "buffer": 1,
      "byteLength": 8088
    },
    {
      "name": "animation_rotation_input",
      "buffer": 2,
      "byteLength": 256
    },
    {
      "name": "animation_rotation_output_view",
      "buffer": 3,
      "byteLength": 10240
    },
    {
      "name": "animation_translation_output_view",
      "buffer": 4,
      "byteLength": 7680
    },
    {
      "name": "animation_scale_output_view",
      "buffer": 5,
      "byteLength": 7680
    },
    {
      "name": "texcoord_view",
      "buffer": 6,
      "byteLength": 16176,
      "byteStride": 8
    },
    {
      "name": "texture_view",
      "buffer": 7,
      "byteLength": 152257
    }
  ],
  "buffers": [
    {
      "name": "vertex_buffer",
      "uri": "data:application/octet-stream;base64,",
      "byteLength": 24264
    },
    {
      "name": "vertex_index_buffer",
      "uri": "data:application/octet-stream;base64,",
      "byteLength": 8088
    },
    {
      "name": "animation_rotation_input",
      "uri": "data:application/octet-stream;base64,",
      "byteLength": 256
    },
    {
      "name": "animation_rotation_output",
      "uri": "data:application/octet-stream;base64,",
      "byteLength": 10240
    },
    {
      "name": "animation_translation_output",
      "uri": "data:application/octet-stream;base64,",
      "byteLength": 7680
    },
    {
      "name": "animation_scale_output",
      "uri": "data:application/octet-stream;base64,",
      "byteLength": 7680
    },
    {
      "name": "texcoord",
      "uri": "data:application/octet-stream;base64,",
      "byteLength": 16176
    },
    {
      "name": "texture_buffer",
      "uri": "data:application/octet-stream;base64,",
      "byteLength": 152257
    }
  ],
  "images": [
    {
      "name": "texture_image",
      "bufferView": 7,
      "mimeType": "image/png"
    }
  ],
  "meshes": [
    {
      "primitives": [
        {
          "indices": 10,
          "material": 0,
          "attributes": {
            "POSITION": 0,
            "TEXCOORD_0": 50
          }
        }
      ]
    },
    {
      "primitives": [
        {
          "indices": 11,
          "material": 0,
          "attributes": {
            "POSITION": 1,
            "TEXCOORD_0": 51
          }
        }
      ]
    },
    {
      "primitives": [
        {
          "indices": 12,
          "material": 0,
          "attributes": {
            "POSITION": 2,
            "TEXCOORD_0": 52
          }
        }
      ]
    },
    {
      "primitives": [
        {
          "indices": 13,
          "material": 0,
          "attributes": {
            "POSITION": 3,
            "TEXCOORD_0": 53
          }
        }
      ]
    },
    {
      "primitives": [
        {
          "indices": 14,
          "material": 0,
          "attributes": {
            "POSITION": 4,
            "TEXCOORD_0": 54
          }
        }
      ]
    },
    {
      "primitives": [
        {
          "indices": 15,
          "material": 0,
          "attributes": {
            "POSITION": 5,
            "TEXCOORD_0": 55
          }
        }
      ]
    },
    {
      "primitives": [
        {
          "indices": 16,
          "material": 0,
          "attributes": {
            "POSITION": 6,
            "TEXCOORD_0": 56
          }
        }
      ]
    },
    {
      "primitives": [
        {
          "indices": 17,
          "material": 0,
          "attributes": {
            "POSITION": 7,
            "TEXCOORD_0": 57
          }
        }
      ]
    },
    {
      "primitives": [
        {
          "indices": 18,
          "material": 0,
          "attributes": {
            "POSITION": 8,
            "TEXCOORD_0": 58
          }
        }
      ]
    },
    {
      "primitives": [
        {
          "indices": 19,
          "material": 0,
          "attributes": {
            "POSITION": 9,
            "TEXCOORD_0": 59
          }
        }
      ]
    }
  ],
  "materials": [
    {
      "name": "material",
      "alphaCutoff": 0.100000001,
      "pbrMetallicRoughness": {
        "baseColorTexture": {
          "index": 0,
          "scale": 0
        },
        "metallicFactor": 0
      },
      "alphaMode": "MASK"
    }
  ],
  "nodes": [
    {
      "mesh": 0,
      "name": "node",
      "translation": [0, 0, 0]
    },
    {
      "children": [ 2, 4, 7 ],
      "mesh": 1,
      "name": "node",
      "translation": [0, 0, 0]
    },
    {
      "children": [ 3 ],
      "mesh": 2,
      "name": "node",
      "translation": [0, 0, 0]
    },
    {
      "mesh": 3,
      "name": "node",
      "translation": [0, 0, 0]
    },
    {
      "children": [ 5 ],
      "mesh": 4,
      "name": "node",
      "translation": [0, 0, 0]
    },
    {
      "children": [ 6 ],
      "mesh": 5,
      "name": "node",
      "translation": [0, 0, 0]
    },
    {
      "mesh": 6,
      "name": "node",
      "translation": [0, 0, 0]
    },
    {
      "children": [ 8 ],
      "mesh": 7,
      "name": "node",
      "translation": [0, 0, 0]
    },
    {
      "children": [ 9 ],
      "mesh": 8,
      "name": "node",
      "translation": [0, 0, 0]
    },
    {
      "mesh": 9,
      "name": "node",
      "translation": [0, 0, 0]
    }
  ],
  "samplers": [
    {
      "name": "texture_sampler",
      "magFilter": 9728,
      "minFilter": 9728,
      "wrapS": 33071,
      "wrapT": 33071
    }
  ],
  "scenes": [
    {
      "name": "scene",
      "nodes": [ 0, 1 ]
    }
  ],
  "textures": [
    {
      "name": "texture",
      "source": 0,
      "sampler": 0
    }
  ],
  "animations": [
    {
      "name": "animation",
      "samplers": [
        {
          "interpolation": "STEP",
          "input": 60,
          "output": 20
        },
        {
          "interpolation": "STEP",
          "input": 60,
          "output": 21
        },
        {
          "interpolation": "STEP",
          "input": 60,
          "output": 22
        },
        {
          "interpolation": "STEP",
          "input": 60,
          "output": 23
        },
        {
          "interpolation": "STEP",
          "input": 60,
          "output": 24
        },
        {
          "interpolation": "STEP",
          "input": 60,
          "output": 25
        },
        {
          "interpolation": "STEP",
          "input": 60,
          "output": 26
        },
        {
          "interpolation": "STEP",
          "input": 60,
          "output": 27
        },
        {
          "interpolation": "STEP",
          "input": 60,
          "output": 28
        },
        {
          "interpolation": "STEP",
          "input": 60,
          "output": 29
        },
        {
          "interpolation": "STEP",
          "input": 60,
          "output": 30
        },
        {
          "interpolation": "STEP",
          "input": 60,
          "output": 31
        },
        {
          "interpolation": "STEP",
          "input": 60,
          "output": 32
        },
        {
          "interpolation": "STEP",
          "input": 60,
          "output": 33
        },
        {
          "interpolation": "STEP",
          "input": 60,
          "output": 34
        },
        {
          "interpolation": "STEP",
          "input": 60,
          "output": 35
        },
        {
          "interpolation": "STEP",
          "input": 60,
          "output": 36
        },
        {
          "interpolation": "STEP",
          "input": 60,
          "output": 37
        },
        {
          "interpolation": "STEP",
          "input": 60,
          "output": 38
        },
        {
          "interpolation": "STEP",
          "input": 60,
          "output": 39
        },
        {
          "interpolation": "STEP",
          "input": 60,
          "output": 40
        },
        {
          "interpolation": "STEP",
          "input": 60,
          "output": 41
        },
        {
          "interpolation": "STEP",
          "input": 60,
          "output": 42
        },
        {
          "interpolation": "STEP",
          "input": 60,
          "output": 43
        },
        {
          "interpolation": "STEP",
          "input": 60,
          "output": 44
        },
        {
          "interpolation": "STEP",
          "input": 60,
          "output": 45
        },
        {
          "interpolation": "STEP",
          "input": 60,
          "output": 46
        },
        {
          "interpolation": "STEP",
          "input": 60,
          "output": 47
        },
        {
          "interpolation": "STEP",
          "input": 60,
          "output": 48
        },
        {
          "interpolation": "STEP",
          "input": 60,
          "output": 49
        }
      ],
      "channels": [
        {
          "sampler": 0,
          "target": {
            "node": 0,
            "path": "rotation"
          }
        },
        {
          "sampler": 1,
          "target": {
            "node": 1,
            "path": "rotation"
          }
        },
        {
          "sampler": 2,
          "target": {
            "node": 2,
            "path": "rotation"
          }
        },
        {
          "sampler": 3,
          "target": {
            "node": 3,
            "path": "rotation"
          }
        },
        {
          "sampler": 4,
          "target": {
            "node": 4,
            "path": "rotation"
          }
        },
        {
          "sampler": 5,
          "target": {
            "node": 5,
            "path": "rotation"
          }
        },
        {
          "sampler": 6,
          "target": {
            "node": 6,
            "path": "rotation"
          }
        },
        {
          "sampler": 7,
          "target": {
            "node": 7,
            "path": "rotation"
          }
        },
        {
          "sampler": 8,
          "target": {
            "node": 8,
            "path": "rotation"
          }
        },
        {
          "sampler": 9,
          "target": {
            "node": 9,
            "path": "rotation"
          }
        },
        {
          "sampler": 10,
          "target": {
            "node": 0,
            "path": "translation"
          }
        },
        {
          "sampler": 11,
          "target": {
            "node": 1,
            "path": "translation"
          }
        },
        {
          "sampler": 12,
          "target": {
            "node": 2,
            "path": "translation"
          }
        },
        {
          "sampler": 13,
          "target": {
            "node": 3,
            "path": "translation"
          }
        },
        {
          "sampler": 14,
          "target": {
            "node": 4,
            "path": "translation"
          }
        },
        {
          "sampler": 15,
          "target": {
            "node": 5,
            "path": "translation"
          }
        },
        {
          "sampler": 16,
          "target": {
            "node": 6,
            "path": "translation"
          }
        },
        {
          "sampler": 17,
          "target": {
            "node": 7,
            "path": "translation"
          }
        },
        {
          "sampler": 18,
          "target": {
            "node": 8,
            "path": "translation"
          }
        },
        {
          "sampler": 19,
          "target": {
            "node": 9,
            "path": "translation"
          }
        },
        {
          "sampler": 20,
          "target": {
            "node": 0,
            "path": "scale"
          }
        },
        {
          "sampler": 21,
          "target": {
            "node": 1,
            "path": "scale"
          }
        },
        {
          "sampler": 22,
          "target": {
            "node": 2,
            "path": "scale"
          }
        },
        {
          "sampler": 23,
          "target": {
            "node": 3,
            "path": "scale"
          }
        },
        {
          "sampler": 24,
          "target": {
            "node": 4,
            "path": "scale"
          }
        },
        {
          "sampler": 25,
          "target": {
            "node": 5,
            "path": "scale"
          }
        },
        {
          "sampler": 26,
          "target": {
            "node": 6,
            "path": "scale"
          }
        },
        {
          "sampler": 27,
          "target": {
            "node": 7,
            "path": "scale"
          }
        },
        {
          "sampler": 28,
          "target": {
            "node": 8,
            "path": "scale"
          }
        },
        {
          "sampler": 29,
          "target": {
            "node": 9,
            "path": "scale"
          }
        }
      ]
    }
  ]
}
