{
  "accessors": [
    {
      "name": "vertex",
      "bufferView": 0,
      "componentType": 5126,
      "type": "VEC3",
      "count": 582,
      "min": [-0.148925781, -0.000732421875, -0.132568359],
      "max": [0.148925781, 0.269775391, 0.150634766]
    },
    {
      "name": "vertex",
      "bufferView": 0,
      "componentType": 5126,
      "type": "VEC3",
      "byteOffset": 6984,
      "count": 252,
      "min": [0, -0.200683594, -0.0539550781],
      "max": [0.056640625, 0.0622558594, 0.0539550781]
    },
    {
      "name": "vertex",
      "bufferView": 0,
      "componentType": 5126,
      "type": "VEC3",
      "byteOffset": 10008,
      "count": 252,
      "min": [-0.056640625, -0.200683594, -0.0539550781],
      "max": [0, 0.0622558594, 0.0539550781]
    },
    {
      "name": "vertex",
      "bufferView": 0,
      "componentType": 5126,
      "type": "VEC3",
      "byteOffset": 13032,
      "count": 468,
      "min": [-0.1640625, 0, -0.112060547],
      "max": [0.1640625, 0.222167969, 0.0966796875]
    },
    {
      "name": "vertex",
      "bufferView": 0,
      "componentType": 5126,
      "type": "VEC3",
      "byteOffset": 18648,
      "count": 84,
      "min": [-0.0200195312, -0.142822266, 0],
      "max": [0.0200195312, 0.142822266, 0.201171875]
    },
    {
      "name": "vertex_index",
      "bufferView": 1,
      "componentType": 5125,
      "type": "SCALAR",
      "count": 582
    },
    {
      "name": "vertex_index",
      "bufferView": 1,
      "componentType": 5125,
      "type": "SCALAR",
      "byteOffset": 2328,
      "count": 252
    },
    {
      "name": "vertex_index",
      "bufferView": 1,
      "componentType": 5125,
      "type": "SCALAR",
      "byteOffset": 3336,
      "count": 252
    },
    {
      "name": "vertex_index",
      "bufferView": 1,
      "componentType": 5125,
      "type": "SCALAR",
      "byteOffset": 4344,
      "count": 468
    },
    {
      "name": "vertex_index",
      "bufferView": 1,
      "componentType": 5125,
      "type": "SCALAR",
      "byteOffset": 6216,
      "count": 84
    },
    {
      "name": "animation_rotation_output",
      "bufferView": 3,
      "componentType": 5126,
      "type": "VEC4",
      "count": 61
    },
    {
      "name": "animation_rotation_output",
      "bufferView": 3,
      "componentType": 5126,
      "type": "VEC4",
      "byteOffset": 976,
      "count": 61
    },
    {
      "name": "animation_rotation_output",
      "bufferView": 3,
      "componentType": 5126,
      "type": "VEC4",
      "byteOffset": 1952,
      "count": 61
    },
    {
      "name": "animation_rotation_output",
      "bufferView": 3,
      "componentType": 5126,
      "type": "VEC4",
      "byteOffset": 2928,
      "count": 61
    },
    {
      "name": "animation_rotation_output",
      "bufferView": 3,
      "componentType": 5126,
      "type": "VEC4",
      "byteOffset": 3904,
      "count": 61
    },
    {
      "name": "animation_translation_output",
      "bufferView": 4,
      "componentType": 5126,
      "type": "VEC3",
      "count": 61
    },
    {
      "name": "animation_translation_output",
      "bufferView": 4,
      "componentType": 5126,
      "type": "VEC3",
      "byteOffset": 732,
      "count": 61
    },
    {
      "name": "animation_translation_output",
      "bufferView": 4,
      "componentType": 5126,
      "type": "VEC3",
      "byteOffset": 1464,
      "count": 61
    },
    {
      "name": "animation_translation_output",
      "bufferView": 4,
      "componentType": 5126,
      "type": "VEC3",
      "byteOffset": 2196,
      "count": 61
    },
    {
      "name": "animation_translation_output",
      "bufferView": 4,
      "componentType": 5126,
      "type": "VEC3",
      "byteOffset": 2928,
      "count": 61
    },
    {
      "name": "animation_scale_output",
      "bufferView": 5,
      "componentType": 5126,
      "type": "VEC3",
      "count": 61
    },
    {
      "name": "animation_scale_output",
      "bufferView": 5,
      "componentType": 5126,
      "type": "VEC3",
      "byteOffset": 732,
      "count": 61
    },
    {
      "name": "animation_scale_output",
      "bufferView": 5,
      "componentType": 5126,
      "type": "VEC3",
      "byteOffset": 1464,
      "count": 61
    },
    {
      "name": "animation_scale_output",
      "bufferView": 5,
      "componentType": 5126,
      "type": "VEC3",
      "byteOffset": 2196,
      "count": 61
    },
    {
      "name": "animation_scale_output",
      "bufferView": 5,
      "componentType": 5126,
      "type": "VEC3",
      "byteOffset": 2928,
      "count": 61
    },
    {
      "name": "texcoord",
      "bufferView": 6,
      "componentType": 5126,
      "type": "VEC2",
      "count": 582
    },
    {
      "name": "texcoord",
      "bufferView": 6,
      "componentType": 5126,
      "type": "VEC2",
      "byteOffset": 4656,
      "count": 252
    },
    {
      "name": "texcoord",
      "bufferView": 6,
      "componentType": 5126,
      "type": "VEC2",
      "byteOffset": 6672,
      "count": 252
    },
    {
      "name": "texcoord",
      "bufferView": 6,
      "componentType": 5126,
      "type": "VEC2",
      "byteOffset": 8688,
      "count": 468
    },
    {
      "name": "texcoord",
      "bufferView": 6,
      "componentType": 5126,
      "type": "VEC2",
      "byteOffset": 12432,
      "count": 84
    },
    {
      "name": "animation_rotation_input",
      "bufferView": 2,
      "componentType": 5126,
      "type": "SCALAR",
      "count": 61,
      "min": [0],
      "max": [1.99999797]
    }
  ],
  "asset": {
    "copyright": "",
    "generator": "bukosoft corporation",
    "version": "2.0"
  },
  "bufferViews": [
    {
      "name": "vertex_buffer_view",
      "buffer": 0,
      "byteLength": 19656,
      "byteStride": 12
    },
    {
      "name": "vertex_index_buffer_view",
      "buffer": 1,
      "byteLength": 6552
    },
    {
      "name": "animation_rotation_input",
      "buffer": 2,
      "byteLength": 244
    },
    {
      "name": "animation_rotation_output_view",
      "buffer": 3,
      "byteLength": 4880
    },
    {
      "name": "animation_translation_output_view",
      "buffer": 4,
      "byteLength": 3660
    },
    {
      "name": "animation_scale_output_view",
      "buffer": 5,
      "byteLength": 3660
    },
    {
      "name": "texcoord_view",
      "buffer": 6,
      "byteLength": 13104,
      "byteStride": 8
    },
    {
      "name": "texture_view",
      "buffer": 7,
      "byteLength": 173550
    }
  ],
  "buffers": [
    {
      "name": "vertex_buffer",
      "uri": "data:application/octet-stream;base64,",
      "byteLength": 19656
    },
    {
      "name": "vertex_index_buffer",
      "uri": "data:application/octet-stream;base64,",
      "byteLength": 6552
    },
    {
      "name": "animation_rotation_input",
      "uri": "data:application/octet-stream;base64,",
      "byteLength": 244
    },
    {
      "name": "animation_rotation_output",
      "uri": "data:application/octet-stream;base64,",
      "byteLength": 4880
    },
    {
      "name": "animation_translation_output",
      "uri": "data:application/octet-stream;base64,",
      "byteLength": 3660
    },
    {
      "name": "animation_scale_output",
      "uri": "data:application/octet-stream;base64,",
      "byteLength": 3660
    },
    {
      "name": "texcoord",
      "uri": "data:application/octet-stream;base64,",
      "byteLength": 13104
    },
    {
      "name": "texture_buffer",
      "uri": "data:application/octet-stream;base64,",
      "byteLength": 173550
    }
  ],
  "images": [
    {
      "name": "texture_image",
      "bufferView": 7,
      "mimeType": "image/png"
    }
  ],
  "meshes": [
    {
      "primitives": [
        {
          "indices": 5,
          "material": 0,
          "attributes": {
            "POSITION": 0,
            "TEXCOORD_0": 25
          }
        }
      ]
    },
    {
      "primitives": [
        {
          "indices": 6,
          "material": 0,
          "attributes": {
            "POSITION": 1,
            "TEXCOORD_0": 26
          }
        }
      ]
    },
    {
      "primitives": [
        {
          "indices": 7,
          "material": 0,
          "attributes": {
            "POSITION": 2,
            "TEXCOORD_0": 27
          }
        }
      ]
    },
    {
      "primitives": [
        {
          "indices": 8,
          "material": 0,
          "attributes": {
            "POSITION": 3,
            "TEXCOORD_0": 28
          }
        }
      ]
    },
    {
      "primitives": [
        {
          "indices": 9,
          "material": 0,
          "attributes": {
            "POSITION": 4,
            "TEXCOORD_0": 29
          }
        }
      ]
    }
  ],
  "materials": [
    {
      "name": "material",
      "alphaCutoff": 0.100000001,
      "pbrMetallicRoughness": {
        "baseColorTexture": {
          "index": 0,
          "scale": 0
        },
        "metallicFactor": 0
      },
      "alphaMode": "MASK"
    }
  ],
  "nodes": [
    {
      "children": [ 1, 2, 3 ],
      "mesh": 0,
      "name": "node",
      "translation": [0, 0, 0]
    },
    {
      "mesh": 1,
      "name": "node",
      "translation": [0, 0, 0]
    },
    {
      "mesh": 2,
      "name": "node",
      "translation": [0, 0, 0]
    },
    {
      "mesh": 3,
      "name": "node",
      "translation": [0, 0, 0]
    },
    {
      "mesh": 4,
      "name": "node",
      "translation": [0, 0, 0]
    }
  ],
  "samplers": [
    {
      "name": "texture_sampler",
      "magFilter": 9728,
      "minFilter": 9728,
      "wrapS": 33071,
      "wrapT": 33071
    }
  ],
  "scenes": [
    {
      "name": "scene",
      "nodes": [ 0, 4 ]
    }
  ],
  "textures": [
    {
      "name": "texture",
      "source": 0,
      "sampler": 0
    }
  ],
  "animations": [
    {
      "name": "animation",
      "samplers": [
        {
          "interpolation": "STEP",
          "input": 30,
          "output": 10
        },
        {
          "interpolation": "STEP",
          "input": 30,
          "output": 11
        },
        {
          "interpolation": "STEP",
          "input": 30,
          "output": 12
        },
        {
          "interpolation": "STEP",
          "input": 30,
          "output": 13
        },
        {
          "interpolation": "STEP",
          "input": 30,
          "output": 14
        },
        {
          "interpolation": "STEP",
          "input": 30,
          "output": 15
        },
        {
          "interpolation": "STEP",
          "input": 30,
          "output": 16
        },
        {
          "interpolation": "STEP",
          "input": 30,
          "output": 17
        },
        {
          "interpolation": "STEP",
          "input": 30,
          "output": 18
        },
        {
          "interpolation": "STEP",
          "input": 30,
          "output": 19
        },
        {
          "interpolation": "STEP",
          "input": 30,
          "output": 20
        },
        {
          "interpolation": "STEP",
          "input": 30,
          "output": 21
        },
        {
          "interpolation": "STEP",
          "input": 30,
          "output": 22
        },
        {
          "interpolation": "STEP",
          "input": 30,
          "output": 23
        },
        {
          "interpolation": "STEP",
          "input": 30,
          "output": 24
        }
      ],
      "channels": [
        {
          "sampler": 0,
          "target": {
            "node": 0,
            "path": "rotation"
          }
        },
        {
          "sampler": 1,
          "target": {
            "node": 1,
            "path": "rotation"
          }
        },
        {
          "sampler": 2,
          "target": {
            "node": 2,
            "path": "rotation"
          }
        },
        {
          "sampler": 3,
          "target": {
            "node": 3,
            "path": "rotation"
          }
        },
        {
          "sampler": 4,
          "target": {
            "node": 4,
            "path": "rotation"
          }
        },
        {
          "sampler": 5,
          "target": {
            "node": 0,
            "path": "translation"
          }
        },
        {
          "sampler": 6,
          "target": {
            "node": 1,
            "path": "translation"
          }
        },
        {
          "sampler": 7,
          "target": {
            "node": 2,
            "path": "translation"
          }
        },
        {
          "sampler": 8,
          "target": {
            "node": 3,
            "path": "translation"
          }
        },
        {
          "sampler": 9,
          "target": {
            "node": 4,
            "path": "translation"
          }
        },
        {
          "sampler": 10,
          "target": {
            "node": 0,
            "path": "scale"
          }
        },
        {
          "sampler": 11,
          "target": {
            "node": 1,
            "path": "scale"
          }
        },
        {
          "sampler": 12,
          "target": {
            "node": 2,
            "path": "scale"
          }
        },
        {
          "sampler": 13,
          "target": {
            "node": 3,
            "path": "scale"
          }
        },
        {
          "sampler": 14,
          "target": {
            "node": 4,
            "path": "scale"
          }
        }
      ]
    }
  ]
}
