{
  "accessors": [
    {
      "name": "vertex",
      "bufferView": 0,
      "componentType": 5126,
      "type": "VEC3",
      "count": 84,
      "min": [-0.141845703, -0.189697266, -0.0737304688],
      "max": [0.0693359375, 0.0883789062, 0.0737304688]
    },
    {
      "name": "vertex",
      "bufferView": 0,
      "componentType": 5126,
      "type": "VEC3",
      "byteOffset": 1008,
      "count": 108,
      "min": [-0.239746094, -0.095703125, -0.0964355469],
      "max": [0, 0.12890625, 0.0964355469]
    },
    {
      "name": "vertex",
      "bufferView": 0,
      "componentType": 5126,
      "type": "VEC3",
      "byteOffset": 2304,
      "count": 30,
      "min": [-0.0778808594, -0.121337891, -0.078125],
      "max": [0.078125, 0, 0.078125]
    },
    {
      "name": "vertex",
      "bufferView": 0,
      "componentType": 5126,
      "type": "VEC3",
      "byteOffset": 2664,
      "count": 96,
      "min": [-0.115966797, -0.259033203, -0.0886230469],
      "max": [0.0358886719, 0.00952148438, 0.0886230469]
    },
    {
      "name": "vertex",
      "bufferView": 0,
      "componentType": 5126,
      "type": "VEC3",
      "byteOffset": 3816,
      "count": 60,
      "min": [-0.0910644531, -0.452392578, 0],
      "max": [0.0910644531, 0, 0.0495605469]
    },
    {
      "name": "vertex",
      "bufferView": 0,
      "componentType": 5126,
      "type": "VEC3",
      "byteOffset": 4536,
      "count": 60,
      "min": [-0.0910644531, -0.452392578, 0],
      "max": [0.0910644531, 0, 0.0495605469]
    },
    {
      "name": "vertex",
      "bufferView": 0,
      "componentType": 5126,
      "type": "VEC3",
      "byteOffset": 5256,
      "count": 60,
      "min": [-0.0910644531, -0.452392578, 0],
      "max": [0.0910644531, 0, 0.0495605469]
    },
    {
      "name": "vertex",
      "bufferView": 0,
      "componentType": 5126,
      "type": "VEC3",
      "byteOffset": 5976,
      "count": 60,
      "min": [-0.0910644531, -0.452392578, 0],
      "max": [0.0910644531, 0, 0.0495605469]
    },
    {
      "name": "vertex",
      "bufferView": 0,
      "componentType": 5126,
      "type": "VEC3",
      "byteOffset": 6696,
      "count": 36,
      "min": [-0.0363769531, -0.056640625, -0.0627441406],
      "max": [0.0349121094, 0.459228516, 0.0632324219]
    },
    {
      "name": "vertex_index",
      "bufferView": 1,
      "componentType": 5125,
      "type": "SCALAR",
      "count": 84
    },
    {
      "name": "vertex_index",
      "bufferView": 1,
      "componentType": 5125,
      "type": "SCALAR",
      "byteOffset": 336,
      "count": 108
    },
    {
      "name": "vertex_index",
      "bufferView": 1,
      "componentType": 5125,
      "type": "SCALAR",
      "byteOffset": 768,
      "count": 30
    },
    {
      "name": "vertex_index",
      "bufferView": 1,
      "componentType": 5125,
      "type": "SCALAR",
      "byteOffset": 888,
      "count": 96
    },
    {
      "name": "vertex_index",
      "bufferView": 1,
      "componentType": 5125,
      "type": "SCALAR",
      "byteOffset": 1272,
      "count": 60
    },
    {
      "name": "vertex_index",
      "bufferView": 1,
      "componentType": 5125,
      "type": "SCALAR",
      "byteOffset": 1512,
      "count": 60
    },
    {
      "name": "vertex_index",
      "bufferView": 1,
      "componentType": 5125,
      "type": "SCALAR",
      "byteOffset": 1752,
      "count": 60
    },
    {
      "name": "vertex_index",
      "bufferView": 1,
      "componentType": 5125,
      "type": "SCALAR",
      "byteOffset": 1992,
      "count": 60
    },
    {
      "name": "vertex_index",
      "bufferView": 1,
      "componentType": 5125,
      "type": "SCALAR",
      "byteOffset": 2232,
      "count": 36
    },
    {
      "name": "animation_rotation_output",
      "bufferView": 3,
      "componentType": 5126,
      "type": "VEC4",
      "count": 60
    },
    {
      "name": "animation_rotation_output",
      "bufferView": 3,
      "componentType": 5126,
      "type": "VEC4",
      "byteOffset": 960,
      "count": 60
    },
    {
      "name": "animation_rotation_output",
      "bufferView": 3,
      "componentType": 5126,
      "type": "VEC4",
      "byteOffset": 1920,
      "count": 60
    },
    {
      "name": "animation_rotation_output",
      "bufferView": 3,
      "componentType": 5126,
      "type": "VEC4",
      "byteOffset": 2880,
      "count": 60
    },
    {
      "name": "animation_rotation_output",
      "bufferView": 3,
      "componentType": 5126,
      "type": "VEC4",
      "byteOffset": 3840,
      "count": 60
    },
    {
      "name": "animation_rotation_output",
      "bufferView": 3,
      "componentType": 5126,
      "type": "VEC4",
      "byteOffset": 4800,
      "count": 60
    },
    {
      "name": "animation_rotation_output",
      "bufferView": 3,
      "componentType": 5126,
      "type": "VEC4",
      "byteOffset": 5760,
      "count": 60
    },
    {
      "name": "animation_rotation_output",
      "bufferView": 3,
      "componentType": 5126,
      "type": "VEC4",
      "byteOffset": 6720,
      "count": 60
    },
    {
      "name": "animation_rotation_output",
      "bufferView": 3,
      "componentType": 5126,
      "type": "VEC4",
      "byteOffset": 7680,
      "count": 60
    },
    {
      "name": "animation_translation_output",
      "bufferView": 4,
      "componentType": 5126,
      "type": "VEC3",
      "count": 60
    },
    {
      "name": "animation_translation_output",
      "bufferView": 4,
      "componentType": 5126,
      "type": "VEC3",
      "byteOffset": 720,
      "count": 60
    },
    {
      "name": "animation_translation_output",
      "bufferView": 4,
      "componentType": 5126,
      "type": "VEC3",
      "byteOffset": 1440,
      "count": 60
    },
    {
      "name": "animation_translation_output",
      "bufferView": 4,
      "componentType": 5126,
      "type": "VEC3",
      "byteOffset": 2160,
      "count": 60
    },
    {
      "name": "animation_translation_output",
      "bufferView": 4,
      "componentType": 5126,
      "type": "VEC3",
      "byteOffset": 2880,
      "count": 60
    },
    {
      "name": "animation_translation_output",
      "bufferView": 4,
      "componentType": 5126,
      "type": "VEC3",
      "byteOffset": 3600,
      "count": 60
    },
    {
      "name": "animation_translation_output",
      "bufferView": 4,
      "componentType": 5126,
      "type": "VEC3",
      "byteOffset": 4320,
      "count": 60
    },
    {
      "name": "animation_translation_output",
      "bufferView": 4,
      "componentType": 5126,
      "type": "VEC3",
      "byteOffset": 5040,
      "count": 60
    },
    {
      "name": "animation_translation_output",
      "bufferView": 4,
      "componentType": 5126,
      "type": "VEC3",
      "byteOffset": 5760,
      "count": 60
    },
    {
      "name": "animation_scale_output",
      "bufferView": 5,
      "componentType": 5126,
      "type": "VEC3",
      "count": 60
    },
    {
      "name": "animation_scale_output",
      "bufferView": 5,
      "componentType": 5126,
      "type": "VEC3",
      "byteOffset": 720,
      "count": 60
    },
    {
      "name": "animation_scale_output",
      "bufferView": 5,
      "componentType": 5126,
      "type": "VEC3",
      "byteOffset": 1440,
      "count": 60
    },
    {
      "name": "animation_scale_output",
      "bufferView": 5,
      "componentType": 5126,
      "type": "VEC3",
      "byteOffset": 2160,
      "count": 60
    },
    {
      "name": "animation_scale_output",
      "bufferView": 5,
      "componentType": 5126,
      "type": "VEC3",
      "byteOffset": 2880,
      "count": 60
    },
    {
      "name": "animation_scale_output",
      "bufferView": 5,
      "componentType": 5126,
      "type": "VEC3",
      "byteOffset": 3600,
      "count": 60
    },
    {
      "name": "animation_scale_output",
      "bufferView": 5,
      "componentType": 5126,
      "type": "VEC3",
      "byteOffset": 4320,
      "count": 60
    },
    {
      "name": "animation_scale_output",
      "bufferView": 5,
      "componentType": 5126,
      "type": "VEC3",
      "byteOffset": 5040,
      "count": 60
    },
    {
      "name": "animation_scale_output",
      "bufferView": 5,
      "componentType": 5126,
      "type": "VEC3",
      "byteOffset": 5760,
      "count": 60
    },
    {
      "name": "texcoord",
      "bufferView": 6,
      "componentType": 5126,
      "type": "VEC2",
      "count": 84
    },
    {
      "name": "texcoord",
      "bufferView": 6,
      "componentType": 5126,
      "type": "VEC2",
      "byteOffset": 672,
      "count": 108
    },
    {
      "name": "texcoord",
      "bufferView": 6,
      "componentType": 5126,
      "type": "VEC2",
      "byteOffset": 1536,
      "count": 30
    },
    {
      "name": "texcoord",
      "bufferView": 6,
      "componentType": 5126,
      "type": "VEC2",
      "byteOffset": 1776,
      "count": 96
    },
    {
      "name": "texcoord",
      "bufferView": 6,
      "componentType": 5126,
      "type": "VEC2",
      "byteOffset": 2544,
      "count": 60
    },
    {
      "name": "texcoord",
      "bufferView": 6,
      "componentType": 5126,
      "type": "VEC2",
      "byteOffset": 3024,
      "count": 60
    },
    {
      "name": "texcoord",
      "bufferView": 6,
      "componentType": 5126,
      "type": "VEC2",
      "byteOffset": 3504,
      "count": 60
    },
    {
      "name": "texcoord",
      "bufferView": 6,
      "componentType": 5126,
      "type": "VEC2",
      "byteOffset": 3984,
      "count": 60
    },
    {
      "name": "texcoord",
      "bufferView": 6,
      "componentType": 5126,
      "type": "VEC2",
      "byteOffset": 4464,
      "count": 36
    },
    {
      "name": "animation_rotation_input",
      "bufferView": 2,
      "componentType": 5126,
      "type": "SCALAR",
      "count": 60,
      "min": [0],
      "max": [1.96666467]
    }
  ],
  "asset": {
    "copyright": "",
    "generator": "bukosoft corporation",
    "version": "2.0"
  },
  "bufferViews": [
    {
      "name": "vertex_buffer_view",
      "buffer": 0,
      "byteLength": 7128,
      "byteStride": 12
    },
    {
      "name": "vertex_index_buffer_view",
      "buffer": 1,
      "byteLength": 2376
    },
    {
      "name": "animation_rotation_input",
      "buffer": 2,
      "byteLength": 240
    },
    {
      "name": "animation_rotation_output_view",
      "buffer": 3,
      "byteLength": 8640
    },
    {
      "name": "animation_translation_output_view",
      "buffer": 4,
      "byteLength": 6480
    },
    {
      "name": "animation_scale_output_view",
      "buffer": 5,
      "byteLength": 6480
    },
    {
      "name": "texcoord_view",
      "buffer": 6,
      "byteLength": 4752,
      "byteStride": 8
    },
    {
      "name": "texture_view",
      "buffer": 7,
      "byteLength": 194954
    }
  ],
  "buffers": [
    {
      "name": "vertex_buffer",
      "uri": "data:application/octet-stream;base64,",
      "byteLength": 7128
    },
    {
      "name": "vertex_index_buffer",
      "uri": "data:application/octet-stream;base64,",
      "byteLength": 2376
    },
    {
      "name": "animation_rotation_input",
      "uri": "data:application/octet-stream;base64,",
      "byteLength": 240
    },
    {
      "name": "animation_rotation_output",
      "uri": "data:application/octet-stream;base64,",
      "byteLength": 8640
    },
    {
      "name": "animation_translation_output",
      "uri": "data:application/octet-stream;base64,",
      "byteLength": 6480
    },
    {
      "name": "animation_scale_output",
      "uri": "data:application/octet-stream;base64,",
      "byteLength": 6480
    },
    {
      "name": "texcoord",
      "uri": "data:application/octet-stream;base64,",
      "byteLength": 4752
    },
    {
      "name": "texture_buffer",
      "uri": "data:application/octet-stream;base64,",
      "byteLength": 194954
    }
  ],
  "images": [
    {
      "name": "texture_image",
      "bufferView": 7,
      "mimeType": "image/png"
    }
  ],
  "meshes": [
    {
      "primitives": [
        {
          "indices": 9,
          "material": 0,
          "attributes": {
            "POSITION": 0,
            "TEXCOORD_0": 45
          }
        }
      ]
    },
    {
      "primitives": [
        {
          "indices": 10,
          "material": 0,
          "attributes": {
            "POSITION": 1,
            "TEXCOORD_0": 46
          }
        }
      ]
    },
    {
      "primitives": [
        {
          "indices": 11,
          "material": 0,
          "attributes": {
            "POSITION": 2,
            "TEXCOORD_0": 47
          }
        }
      ]
    },
    {
      "primitives": [
        {
          "indices": 12,
          "material": 0,
          "attributes": {
            "POSITION": 3,
            "TEXCOORD_0": 48
          }
        }
      ]
    },
    {
      "primitives": [
        {
          "indices": 13,
          "material": 0,
          "attributes": {
            "POSITION": 4,
            "TEXCOORD_0": 49
          }
        }
      ]
    },
    {
      "primitives": [
        {
          "indices": 14,
          "material": 0,
          "attributes": {
            "POSITION": 5,
            "TEXCOORD_0": 50
          }
        }
      ]
    },
    {
      "primitives": [
        {
          "indices": 15,
          "material": 0,
          "attributes": {
            "POSITION": 6,
            "TEXCOORD_0": 51
          }
        }
      ]
    },
    {
      "primitives": [
        {
          "indices": 16,
          "material": 0,
          "attributes": {
            "POSITION": 7,
            "TEXCOORD_0": 52
          }
        }
      ]
    },
    {
      "primitives": [
        {
          "indices": 17,
          "material": 0,
          "attributes": {
            "POSITION": 8,
            "TEXCOORD_0": 53
          }
        }
      ]
    }
  ],
  "materials": [
    {
      "name": "material",
      "alphaCutoff": 0.100000001,
      "pbrMetallicRoughness": {
        "baseColorTexture": {
          "index": 0,
          "scale": 0
        },
        "metallicFactor": 0
      },
      "alphaMode": "MASK"
    }
  ],
  "nodes": [
    {
      "mesh": 0,
      "name": "node",
      "translation": [0, 0, 0]
    },
    {
      "children": [ 2 ],
      "mesh": 1,
      "name": "node",
      "translation": [0, 0, 0]
    },
    {
      "children": [ 3 ],
      "mesh": 2,
      "name": "node",
      "translation": [0, 0, 0]
    },
    {
      "children": [ 4, 5, 6, 7 ],
      "mesh": 3,
      "name": "node",
      "translation": [0, 0, 0]
    },
    {
      "mesh": 4,
      "name": "node",
      "translation": [0, 0, 0]
    },
    {
      "mesh": 5,
      "name": "node",
      "translation": [0, 0, 0]
    },
    {
      "mesh": 6,
      "name": "node",
      "translation": [0, 0, 0]
    },
    {
      "mesh": 7,
      "name": "node",
      "translation": [0, 0, 0]
    },
    {
      "mesh": 8,
      "name": "node",
      "translation": [0, 0, 0]
    }
  ],
  "samplers": [
    {
      "name": "texture_sampler",
      "magFilter": 9728,
      "minFilter": 9728,
      "wrapS": 33071,
      "wrapT": 33071
    }
  ],
  "scenes": [
    {
      "name": "scene",
      "nodes": [ 0, 1, 8 ]
    }
  ],
  "textures": [
    {
      "name": "texture",
      "source": 0,
      "sampler": 0
    }
  ],
  "animations": [
    {
      "name": "animation",
      "samplers": [
        {
          "interpolation": "STEP",
          "input": 54,
          "output": 18
        },
        {
          "interpolation": "STEP",
          "input": 54,
          "output": 19
        },
        {
          "interpolation": "STEP",
          "input": 54,
          "output": 20
        },
        {
          "interpolation": "STEP",
          "input": 54,
          "output": 21
        },
        {
          "interpolation": "STEP",
          "input": 54,
          "output": 22
        },
        {
          "interpolation": "STEP",
          "input": 54,
          "output": 23
        },
        {
          "interpolation": "STEP",
          "input": 54,
          "output": 24
        },
        {
          "interpolation": "STEP",
          "input": 54,
          "output": 25
        },
        {
          "interpolation": "STEP",
          "input": 54,
          "output": 26
        },
        {
          "interpolation": "STEP",
          "input": 54,
          "output": 27
        },
        {
          "interpolation": "STEP",
          "input": 54,
          "output": 28
        },
        {
          "interpolation": "STEP",
          "input": 54,
          "output": 29
        },
        {
          "interpolation": "STEP",
          "input": 54,
          "output": 30
        },
        {
          "interpolation": "STEP",
          "input": 54,
          "output": 31
        },
        {
          "interpolation": "STEP",
          "input": 54,
          "output": 32
        },
        {
          "interpolation": "STEP",
          "input": 54,
          "output": 33
        },
        {
          "interpolation": "STEP",
          "input": 54,
          "output": 34
        },
        {
          "interpolation": "STEP",
          "input": 54,
          "output": 35
        },
        {
          "interpolation": "STEP",
          "input": 54,
          "output": 36
        },
        {
          "interpolation": "STEP",
          "input": 54,
          "output": 37
        },
        {
          "interpolation": "STEP",
          "input": 54,
          "output": 38
        },
        {
          "interpolation": "STEP",
          "input": 54,
          "output": 39
        },
        {
          "interpolation": "STEP",
          "input": 54,
          "output": 40
        },
        {
          "interpolation": "STEP",
          "input": 54,
          "output": 41
        },
        {
          "interpolation": "STEP",
          "input": 54,
          "output": 42
        },
        {
          "interpolation": "STEP",
          "input": 54,
          "output": 43
        },
        {
          "interpolation": "STEP",
          "input": 54,
          "output": 44
        }
      ],
      "channels": [
        {
          "sampler": 0,
          "target": {
            "node": 0,
            "path": "rotation"
          }
        },
        {
          "sampler": 1,
          "target": {
            "node": 1,
            "path": "rotation"
          }
        },
        {
          "sampler": 2,
          "target": {
            "node": 2,
            "path": "rotation"
          }
        },
        {
          "sampler": 3,
          "target": {
            "node": 3,
            "path": "rotation"
          }
        },
        {
          "sampler": 4,
          "target": {
            "node": 4,
            "path": "rotation"
          }
        },
        {
          "sampler": 5,
          "target": {
            "node": 5,
            "path": "rotation"
          }
        },
        {
          "sampler": 6,
          "target": {
            "node": 6,
            "path": "rotation"
          }
        },
        {
          "sampler": 7,
          "target": {
            "node": 7,
            "path": "rotation"
          }
        },
        {
          "sampler": 8,
          "target": {
            "node": 8,
            "path": "rotation"
          }
        },
        {
          "sampler": 9,
          "target": {
            "node": 0,
            "path": "translation"
          }
        },
        {
          "sampler": 10,
          "target": {
            "node": 1,
            "path": "translation"
          }
        },
        {
          "sampler": 11,
          "target": {
            "node": 2,
            "path": "translation"
          }
        },
        {
          "sampler": 12,
          "target": {
            "node": 3,
            "path": "translation"
          }
        },
        {
          "sampler": 13,
          "target": {
            "node": 4,
            "path": "translation"
          }
        },
        {
          "sampler": 14,
          "target": {
            "node": 5,
            "path": "translation"
          }
        },
        {
          "sampler": 15,
          "target": {
            "node": 6,
            "path": "translation"
          }
        },
        {
          "sampler": 16,
          "target": {
            "node": 7,
            "path": "translation"
          }
        },
        {
          "sampler": 17,
          "target": {
            "node": 8,
            "path": "translation"
          }
        },
        {
          "sampler": 18,
          "target": {
            "node": 0,
            "path": "scale"
          }
        },
        {
          "sampler": 19,
          "target": {
            "node": 1,
            "path": "scale"
          }
        },
        {
          "sampler": 20,
          "target": {
            "node": 2,
            "path": "scale"
          }
        },
        {
          "sampler": 21,
          "target": {
            "node": 3,
            "path": "scale"
          }
        },
        {
          "sampler": 22,
          "target": {
            "node": 4,
            "path": "scale"
          }
        },
        {
          "sampler": 23,
          "target": {
            "node": 5,
            "path": "scale"
          }
        },
        {
          "sampler": 24,
          "target": {
            "node": 6,
            "path": "scale"
          }
        },
        {
          "sampler": 25,
          "target": {
            "node": 7,
            "path": "scale"
          }
        },
        {
          "sampler": 26,
          "target": {
            "node": 8,
            "path": "scale"
          }
        }
      ]
    }
  ]
}
