{
  "accessors": [
    {
      "name": "vertex",
      "bufferView": 0,
      "componentType": 5126,
      "type": "VEC3",
      "count": 174,
      "min": [-0.119873047, -0.0502929688, -0.0427246094],
      "max": [0.000732421875, 0.0495605469, 0.0417480469]
    },
    {
      "name": "vertex",
      "bufferView": 0,
      "componentType": 5126,
      "type": "VEC3",
      "byteOffset": 2088,
      "count": 174,
      "min": [-0.119873047, -0.0502929688, -0.0417480469],
      "max": [0.000732421875, 0.0495605469, 0.0427246094]
    },
    {
      "name": "vertex",
      "bufferView": 0,
      "componentType": 5126,
      "type": "VEC3",
      "byteOffset": 4176,
      "count": 324,
      "min": [-0.1328125, -0.0983886719, -0.095703125],
      "max": [0.076171875, 0.0974121094, 0.095703125]
    },
    {
      "name": "vertex",
      "bufferView": 0,
      "componentType": 5126,
      "type": "VEC3",
      "byteOffset": 8064,
      "count": 540,
      "min": [-0.149414062, -0.109375, -0.0969238281],
      "max": [0.0209960938, 0.0861816406, 0.0969238281]
    },
    {
      "name": "vertex",
      "bufferView": 0,
      "componentType": 5126,
      "type": "VEC3",
      "byteOffset": 14544,
      "count": 144,
      "min": [-0.15234375, -0.0498046875, -0.0380859375],
      "max": [0.000732421875, 0.0505371094, 0.0236816406]
    },
    {
      "name": "vertex",
      "bufferView": 0,
      "componentType": 5126,
      "type": "VEC3",
      "byteOffset": 16272,
      "count": 144,
      "min": [-0.15234375, -0.0498046875, -0.0236816406],
      "max": [0.000732421875, 0.0505371094, 0.0380859375]
    },
    {
      "name": "vertex_index",
      "bufferView": 1,
      "componentType": 5125,
      "type": "SCALAR",
      "count": 174
    },
    {
      "name": "vertex_index",
      "bufferView": 1,
      "componentType": 5125,
      "type": "SCALAR",
      "byteOffset": 696,
      "count": 174
    },
    {
      "name": "vertex_index",
      "bufferView": 1,
      "componentType": 5125,
      "type": "SCALAR",
      "byteOffset": 1392,
      "count": 324
    },
    {
      "name": "vertex_index",
      "bufferView": 1,
      "componentType": 5125,
      "type": "SCALAR",
      "byteOffset": 2688,
      "count": 540
    },
    {
      "name": "vertex_index",
      "bufferView": 1,
      "componentType": 5125,
      "type": "SCALAR",
      "byteOffset": 4848,
      "count": 144
    },
    {
      "name": "vertex_index",
      "bufferView": 1,
      "componentType": 5125,
      "type": "SCALAR",
      "byteOffset": 5424,
      "count": 144
    },
    {
      "name": "animation_rotation_output",
      "bufferView": 3,
      "componentType": 5126,
      "type": "VEC4",
      "count": 47
    },
    {
      "name": "animation_rotation_output",
      "bufferView": 3,
      "componentType": 5126,
      "type": "VEC4",
      "byteOffset": 752,
      "count": 47
    },
    {
      "name": "animation_rotation_output",
      "bufferView": 3,
      "componentType": 5126,
      "type": "VEC4",
      "byteOffset": 1504,
      "count": 47
    },
    {
      "name": "animation_rotation_output",
      "bufferView": 3,
      "componentType": 5126,
      "type": "VEC4",
      "byteOffset": 2256,
      "count": 47
    },
    {
      "name": "animation_rotation_output",
      "bufferView": 3,
      "componentType": 5126,
      "type": "VEC4",
      "byteOffset": 3008,
      "count": 47
    },
    {
      "name": "animation_rotation_output",
      "bufferView": 3,
      "componentType": 5126,
      "type": "VEC4",
      "byteOffset": 3760,
      "count": 47
    },
    {
      "name": "animation_translation_output",
      "bufferView": 4,
      "componentType": 5126,
      "type": "VEC3",
      "count": 47
    },
    {
      "name": "animation_translation_output",
      "bufferView": 4,
      "componentType": 5126,
      "type": "VEC3",
      "byteOffset": 564,
      "count": 47
    },
    {
      "name": "animation_translation_output",
      "bufferView": 4,
      "componentType": 5126,
      "type": "VEC3",
      "byteOffset": 1128,
      "count": 47
    },
    {
      "name": "animation_translation_output",
      "bufferView": 4,
      "componentType": 5126,
      "type": "VEC3",
      "byteOffset": 1692,
      "count": 47
    },
    {
      "name": "animation_translation_output",
      "bufferView": 4,
      "componentType": 5126,
      "type": "VEC3",
      "byteOffset": 2256,
      "count": 47
    },
    {
      "name": "animation_translation_output",
      "bufferView": 4,
      "componentType": 5126,
      "type": "VEC3",
      "byteOffset": 2820,
      "count": 47
    },
    {
      "name": "animation_scale_output",
      "bufferView": 5,
      "componentType": 5126,
      "type": "VEC3",
      "count": 47
    },
    {
      "name": "animation_scale_output",
      "bufferView": 5,
      "componentType": 5126,
      "type": "VEC3",
      "byteOffset": 564,
      "count": 47
    },
    {
      "name": "animation_scale_output",
      "bufferView": 5,
      "componentType": 5126,
      "type": "VEC3",
      "byteOffset": 1128,
      "count": 47
    },
    {
      "name": "animation_scale_output",
      "bufferView": 5,
      "componentType": 5126,
      "type": "VEC3",
      "byteOffset": 1692,
      "count": 47
    },
    {
      "name": "animation_scale_output",
      "bufferView": 5,
      "componentType": 5126,
      "type": "VEC3",
      "byteOffset": 2256,
      "count": 47
    },
    {
      "name": "animation_scale_output",
      "bufferView": 5,
      "componentType": 5126,
      "type": "VEC3",
      "byteOffset": 2820,
      "count": 47
    },
    {
      "name": "texcoord",
      "bufferView": 6,
      "componentType": 5126,
      "type": "VEC2",
      "count": 174
    },
    {
      "name": "texcoord",
      "bufferView": 6,
      "componentType": 5126,
      "type": "VEC2",
      "byteOffset": 1392,
      "count": 174
    },
    {
      "name": "texcoord",
      "bufferView": 6,
      "componentType": 5126,
      "type": "VEC2",
      "byteOffset": 2784,
      "count": 324
    },
    {
      "name": "texcoord",
      "bufferView": 6,
      "componentType": 5126,
      "type": "VEC2",
      "byteOffset": 5376,
      "count": 540
    },
    {
      "name": "texcoord",
      "bufferView": 6,
      "componentType": 5126,
      "type": "VEC2",
      "byteOffset": 9696,
      "count": 144
    },
    {
      "name": "texcoord",
      "bufferView": 6,
      "componentType": 5126,
      "type": "VEC2",
      "byteOffset": 10848,
      "count": 144
    },
    {
      "name": "animation_rotation_input",
      "bufferView": 2,
      "componentType": 5126,
      "type": "SCALAR",
      "count": 47,
      "min": [0],
      "max": [1.53333175]
    }
  ],
  "asset": {
    "copyright": "",
    "generator": "bukosoft corporation",
    "version": "2.0"
  },
  "bufferViews": [
    {
      "name": "vertex_buffer_view",
      "buffer": 0,
      "byteLength": 18000,
      "byteStride": 12
    },
    {
      "name": "vertex_index_buffer_view",
      "buffer": 1,
      "byteLength": 6000
    },
    {
      "name": "animation_rotation_input",
      "buffer": 2,
      "byteLength": 188
    },
    {
      "name": "animation_rotation_output_view",
      "buffer": 3,
      "byteLength": 4512
    },
    {
      "name": "animation_translation_output_view",
      "buffer": 4,
      "byteLength": 3384
    },
    {
      "name": "animation_scale_output_view",
      "buffer": 5,
      "byteLength": 3384
    },
    {
      "name": "texcoord_view",
      "buffer": 6,
      "byteLength": 12000,
      "byteStride": 8
    },
    {
      "name": "texture_view",
      "buffer": 7,
      "byteLength": 127868
    }
  ],
  "buffers": [
    {
      "name": "vertex_buffer",
      "uri": "data:application/octet-stream;base64,",
      "byteLength": 18000
    },
    {
      "name": "vertex_index_buffer",
      "uri": "data:application/octet-stream;base64,",
      "byteLength": 6000
    },
    {
      "name": "animation_rotation_input",
      "uri": "data:application/octet-stream;base64,",
      "byteLength": 188
    },
    {
      "name": "animation_rotation_output",
      "uri": "data:application/octet-stream;base64,",
      "byteLength": 4512
    },
    {
      "name": "animation_translation_output",
      "uri": "data:application/octet-stream;base64,",
      "byteLength": 3384
    },
    {
      "name": "animation_scale_output",
      "uri": "data:application/octet-stream;base64,",
      "byteLength": 3384
    },
    {
      "name": "texcoord",
      "uri": "data:application/octet-stream;base64,",
      "byteLength": 12000
    },
    {
      "name": "texture_buffer",
      "uri": "data:application/octet-stream;base64,",
      "byteLength": 127868
    }
  ],
  "images": [
    {
      "name": "texture_image",
      "bufferView": 7,
      "mimeType": "image/png"
    }
  ],
  "meshes": [
    {
      "primitives": [
        {
          "indices": 6,
          "material": 0,
          "attributes": {
            "POSITION": 0,
            "TEXCOORD_0": 30
          }
        }
      ]
    },
    {
      "primitives": [
        {
          "indices": 7,
          "material": 0,
          "attributes": {
            "POSITION": 1,
            "TEXCOORD_0": 31
          }
        }
      ]
    },
    {
      "primitives": [
        {
          "indices": 8,
          "material": 0,
          "attributes": {
            "POSITION": 2,
            "TEXCOORD_0": 32
          }
        }
      ]
    },
    {
      "primitives": [
        {
          "indices": 9,
          "material": 0,
          "attributes": {
            "POSITION": 3,
            "TEXCOORD_0": 33
          }
        }
      ]
    },
    {
      "primitives": [
        {
          "indices": 10,
          "material": 0,
          "attributes": {
            "POSITION": 4,
            "TEXCOORD_0": 34
          }
        }
      ]
    },
    {
      "primitives": [
        {
          "indices": 11,
          "material": 0,
          "attributes": {
            "POSITION": 5,
            "TEXCOORD_0": 35
          }
        }
      ]
    }
  ],
  "materials": [
    {
      "name": "material",
      "alphaCutoff": 0.100000001,
      "pbrMetallicRoughness": {
        "baseColorTexture": {
          "index": 0,
          "scale": 0
        },
        "metallicFactor": 0
      },
      "alphaMode": "MASK"
    }
  ],
  "nodes": [
    {
      "mesh": 0,
      "name": "node",
      "translation": [0, 0, 0]
    },
    {
      "mesh": 1,
      "name": "node",
      "translation": [0, 0, 0]
    },
    {
      "children": [ 3, 4, 5 ],
      "mesh": 2,
      "name": "node",
      "translation": [0, 0, 0]
    },
    {
      "mesh": 3,
      "name": "node",
      "translation": [0, 0, 0]
    },
    {
      "mesh": 4,
      "name": "node",
      "translation": [0, 0, 0]
    },
    {
      "mesh": 5,
      "name": "node",
      "translation": [0, 0, 0]
    }
  ],
  "samplers": [
    {
      "name": "texture_sampler",
      "magFilter": 9728,
      "minFilter": 9728,
      "wrapS": 33071,
      "wrapT": 33071
    }
  ],
  "scenes": [
    {
      "name": "scene",
      "nodes": [ 0, 1, 2 ]
    }
  ],
  "textures": [
    {
      "name": "texture",
      "source": 0,
      "sampler": 0
    }
  ],
  "animations": [
    {
      "name": "animation",
      "samplers": [
        {
          "interpolation": "STEP",
          "input": 36,
          "output": 12
        },
        {
          "interpolation": "STEP",
          "input": 36,
          "output": 13
        },
        {
          "interpolation": "STEP",
          "input": 36,
          "output": 14
        },
        {
          "interpolation": "STEP",
          "input": 36,
          "output": 15
        },
        {
          "interpolation": "STEP",
          "input": 36,
          "output": 16
        },
        {
          "interpolation": "STEP",
          "input": 36,
          "output": 17
        },
        {
          "interpolation": "STEP",
          "input": 36,
          "output": 18
        },
        {
          "interpolation": "STEP",
          "input": 36,
          "output": 19
        },
        {
          "interpolation": "STEP",
          "input": 36,
          "output": 20
        },
        {
          "interpolation": "STEP",
          "input": 36,
          "output": 21
        },
        {
          "interpolation": "STEP",
          "input": 36,
          "output": 22
        },
        {
          "interpolation": "STEP",
          "input": 36,
          "output": 23
        },
        {
          "interpolation": "STEP",
          "input": 36,
          "output": 24
        },
        {
          "interpolation": "STEP",
          "input": 36,
          "output": 25
        },
        {
          "interpolation": "STEP",
          "input": 36,
          "output": 26
        },
        {
          "interpolation": "STEP",
          "input": 36,
          "output": 27
        },
        {
          "interpolation": "STEP",
          "input": 36,
          "output": 28
        },
        {
          "interpolation": "STEP",
          "input": 36,
          "output": 29
        }
      ],
      "channels": [
        {
          "sampler": 0,
          "target": {
            "node": 0,
            "path": "rotation"
          }
        },
        {
          "sampler": 1,
          "target": {
            "node": 1,
            "path": "rotation"
          }
        },
        {
          "sampler": 2,
          "target": {
            "node": 2,
            "path": "rotation"
          }
        },
        {
          "sampler": 3,
          "target": {
            "node": 3,
            "path": "rotation"
          }
        },
        {
          "sampler": 4,
          "target": {
            "node": 4,
            "path": "rotation"
          }
        },
        {
          "sampler": 5,
          "target": {
            "node": 5,
            "path": "rotation"
          }
        },
        {
          "sampler": 6,
          "target": {
            "node": 0,
            "path": "translation"
          }
        },
        {
          "sampler": 7,
          "target": {
            "node": 1,
            "path": "translation"
          }
        },
        {
          "sampler": 8,
          "target": {
            "node": 2,
            "path": "translation"
          }
        },
        {
          "sampler": 9,
          "target": {
            "node": 3,
            "path": "translation"
          }
        },
        {
          "sampler": 10,
          "target": {
            "node": 4,
            "path": "translation"
          }
        },
        {
          "sampler": 11,
          "target": {
            "node": 5,
            "path": "translation"
          }
        },
        {
          "sampler": 12,
          "target": {
            "node": 0,
            "path": "scale"
          }
        },
        {
          "sampler": 13,
          "target": {
            "node": 1,
            "path": "scale"
          }
        },
        {
          "sampler": 14,
          "target": {
            "node": 2,
            "path": "scale"
          }
        },
        {
          "sampler": 15,
          "target": {
            "node": 3,
            "path": "scale"
          }
        },
        {
          "sampler": 16,
          "target": {
            "node": 4,
            "path": "scale"
          }
        },
        {
          "sampler": 17,
          "target": {
            "node": 5,
            "path": "scale"
          }
        }
      ]
    }
  ]
}
