{
  "accessors": [
    {
      "name": "vertex",
      "bufferView": 0,
      "componentType": 5126,
      "type": "VEC3",
      "count": 708,
      "min": [-0.156005859, -0.140869141, -0.110107422],
      "max": [0.155273438, 0.170410156, 0.110107422]
    },
    {
      "name": "vertex",
      "bufferView": 0,
      "componentType": 5126,
      "type": "VEC3",
      "byteOffset": 8496,
      "count": 204,
      "min": [-0.0205078125, -0.04296875, -0.0170898438],
      "max": [0.0798339844, 0.0749511719, 0.0170898438]
    },
    {
      "name": "vertex",
      "bufferView": 0,
      "componentType": 5126,
      "type": "VEC3",
      "byteOffset": 10944,
      "count": 204,
      "min": [-0.0798339844, -0.04296875, -0.0170898438],
      "max": [0.0205078125, 0.0749511719, 0.0170898438]
    },
    {
      "name": "vertex_index",
      "bufferView": 1,
      "componentType": 5125,
      "type": "SCALAR",
      "count": 708
    },
    {
      "name": "vertex_index",
      "bufferView": 1,
      "componentType": 5125,
      "type": "SCALAR",
      "byteOffset": 2832,
      "count": 204
    },
    {
      "name": "vertex_index",
      "bufferView": 1,
      "componentType": 5125,
      "type": "SCALAR",
      "byteOffset": 3648,
      "count": 204
    },
    {
      "name": "animation_input",
      "bufferView": 2,
      "componentType": 5126,
      "type": "SCALAR",
      "count": 30,
      "min": [0],
      "max": [0.966665685]
    },
    {
      "name": "animation_rotation_output",
      "bufferView": 3,
      "componentType": 5126,
      "type": "VEC4",
      "count": 30
    },
    {
      "name": "animation_translation_output",
      "bufferView": 4,
      "componentType": 5126,
      "type": "VEC3",
      "count": 30
    },
    {
      "name": "animation_scale_output",
      "bufferView": 5,
      "componentType": 5126,
      "type": "VEC3",
      "count": 30
    },
    {
      "name": "animation_input",
      "bufferView": 2,
      "componentType": 5126,
      "type": "SCALAR",
      "count": 30,
      "min": [0],
      "max": [0.966665685]
    },
    {
      "name": "animation_rotation_output",
      "bufferView": 3,
      "componentType": 5126,
      "type": "VEC4",
      "byteOffset": 480,
      "count": 30
    },
    {
      "name": "animation_translation_output",
      "bufferView": 4,
      "componentType": 5126,
      "type": "VEC3",
      "byteOffset": 360,
      "count": 30
    },
    {
      "name": "animation_scale_output",
      "bufferView": 5,
      "componentType": 5126,
      "type": "VEC3",
      "byteOffset": 360,
      "count": 30
    },
    {
      "name": "animation_input",
      "bufferView": 2,
      "componentType": 5126,
      "type": "SCALAR",
      "count": 30,
      "min": [0],
      "max": [0.966665685]
    },
    {
      "name": "animation_rotation_output",
      "bufferView": 3,
      "componentType": 5126,
      "type": "VEC4",
      "byteOffset": 960,
      "count": 30
    },
    {
      "name": "animation_translation_output",
      "bufferView": 4,
      "componentType": 5126,
      "type": "VEC3",
      "byteOffset": 720,
      "count": 30
    },
    {
      "name": "animation_scale_output",
      "bufferView": 5,
      "componentType": 5126,
      "type": "VEC3",
      "byteOffset": 720,
      "count": 30
    },
    {
      "name": "animation_input",
      "bufferView": 6,
      "componentType": 5126,
      "type": "SCALAR",
      "count": 12,
      "min": [0],
      "max": [0.366666287]
    },
    {
      "name": "animation_rotation_output",
      "bufferView": 7,
      "componentType": 5126,
      "type": "VEC4",
      "count": 12
    },
    {
      "name": "animation_translation_output",
      "bufferView": 8,
      "componentType": 5126,
      "type": "VEC3",
      "count": 12
    },
    {
      "name": "animation_scale_output",
      "bufferView": 9,
      "componentType": 5126,
      "type": "VEC3",
      "count": 12
    },
    {
      "name": "animation_input",
      "bufferView": 6,
      "componentType": 5126,
      "type": "SCALAR",
      "count": 12,
      "min": [0],
      "max": [0.366666287]
    },
    {
      "name": "animation_rotation_output",
      "bufferView": 7,
      "componentType": 5126,
      "type": "VEC4",
      "byteOffset": 192,
      "count": 12
    },
    {
      "name": "animation_translation_output",
      "bufferView": 8,
      "componentType": 5126,
      "type": "VEC3",
      "byteOffset": 144,
      "count": 12
    },
    {
      "name": "animation_scale_output",
      "bufferView": 9,
      "componentType": 5126,
      "type": "VEC3",
      "byteOffset": 144,
      "count": 12
    },
    {
      "name": "animation_input",
      "bufferView": 6,
      "componentType": 5126,
      "type": "SCALAR",
      "count": 12,
      "min": [0],
      "max": [0.366666287]
    },
    {
      "name": "animation_rotation_output",
      "bufferView": 7,
      "componentType": 5126,
      "type": "VEC4",
      "byteOffset": 384,
      "count": 12
    },
    {
      "name": "animation_translation_output",
      "bufferView": 8,
      "componentType": 5126,
      "type": "VEC3",
      "byteOffset": 288,
      "count": 12
    },
    {
      "name": "animation_scale_output",
      "bufferView": 9,
      "componentType": 5126,
      "type": "VEC3",
      "byteOffset": 288,
      "count": 12
    },
    {
      "name": "texcoord",
      "bufferView": 10,
      "componentType": 5126,
      "type": "VEC2",
      "count": 708
    },
    {
      "name": "texcoord",
      "bufferView": 10,
      "componentType": 5126,
      "type": "VEC2",
      "byteOffset": 5664,
      "count": 204
    },
    {
      "name": "texcoord",
      "bufferView": 10,
      "componentType": 5126,
      "type": "VEC2",
      "byteOffset": 7296,
      "count": 204
    }
  ],
  "asset": {
    "copyright": "",
    "generator": "bukosoft corporation",
    "version": "2.0"
  },
  "bufferViews": [
    {
      "name": "vertex_buffer_view",
      "buffer": 0,
      "byteLength": 13392,
      "byteStride": 12
    },
    {
      "name": "vertex_index_buffer_view",
      "buffer": 1,
      "byteLength": 4464
    },
    {
      "name": "animation_input",
      "buffer": 2,
      "byteLength": 120
    },
    {
      "name": "animation_rotation_output_view",
      "buffer": 3,
      "byteLength": 1440
    },
    {
      "name": "animation_translation_output_view",
      "buffer": 4,
      "byteLength": 1080
    },
    {
      "name": "animation_scale_output_view",
      "buffer": 5,
      "byteLength": 1080
    },
    {
      "name": "animation_input",
      "buffer": 6,
      "byteLength": 48
    },
    {
      "name": "animation_rotation_output_view",
      "buffer": 7,
      "byteLength": 576
    },
    {
      "name": "animation_translation_output_view",
      "buffer": 8,
      "byteLength": 432
    },
    {
      "name": "animation_scale_output_view",
      "buffer": 9,
      "byteLength": 432
    },
    {
      "name": "texcoord_view",
      "buffer": 10,
      "byteLength": 8928,
      "byteStride": 8
    },
    {
      "name": "texture_view",
      "buffer": 11,
      "byteLength": 109972
    }
  ],
  "buffers": [
    {
      "name": "vertex_buffer",
      "uri": "data:application/octet-stream;base64,",
      "byteLength": 13392
    },
    {
      "name": "vertex_index_buffer",
      "uri": "data:application/octet-stream;base64,",
      "byteLength": 4464
    },
    {
      "name": "animation_input",
      "uri": "data:application/octet-stream;base64,",
      "byteLength": 120
    },
    {
      "name": "animation_rotation_output",
      "uri": "data:application/octet-stream;base64,",
      "byteLength": 1440
    },
    {
      "name": "animation_translation_output",
      "uri": "data:application/octet-stream;base64,",
      "byteLength": 1080
    },
    {
      "name": "animation_scale_output",
      "uri": "data:application/octet-stream;base64,",
      "byteLength": 1080
    },
    {
      "name": "animation_input",
      "uri": "data:application/octet-stream;base64,",
      "byteLength": 48
    },
    {
      "name": "animation_rotation_output",
      "uri": "data:application/octet-stream;base64,",
      "byteLength": 576
    },
    {
      "name": "animation_translation_output",
      "uri": "data:application/octet-stream;base64,",
      "byteLength": 432
    },
    {
      "name": "animation_scale_output",
      "uri": "data:application/octet-stream;base64,",
      "byteLength": 432
    },
    {
      "name": "texcoord",
      "uri": "data:application/octet-stream;base64,",
      "byteLength": 8928
    },
    {
      "name": "texture_buffer",
      "uri": "data:application/octet-stream;base64,",
      "byteLength": 109972
    }
  ],
  "images": [
    {
      "name": "texture_image",
      "bufferView": 11,
      "mimeType": "image/png"
    }
  ],
  "meshes": [
    {
      "primitives": [
        {
          "indices": 3,
          "material": 0,
          "attributes": {
            "POSITION": 0,
            "TEXCOORD_0": 30
          }
        }
      ]
    },
    {
      "primitives": [
        {
          "indices": 4,
          "material": 0,
          "attributes": {
            "POSITION": 1,
            "TEXCOORD_0": 31
          }
        }
      ]
    },
    {
      "primitives": [
        {
          "indices": 5,
          "material": 0,
          "attributes": {
            "POSITION": 2,
            "TEXCOORD_0": 32
          }
        }
      ]
    }
  ],
  "materials": [
    {
      "name": "material",
      "alphaCutoff": 0.100000001,
      "pbrMetallicRoughness": {
        "baseColorTexture": {
          "index": 0,
          "scale": 0
        },
        "metallicFactor": 0
      },
      "alphaMode": "MASK"
    }
  ],
  "nodes": [
    {
      "mesh": 0,
      "name": "node",
      "translation": [0, 0, 0]
    },
    {
      "mesh": 1,
      "name": "node",
      "translation": [0, 0, 0]
    },
    {
      "mesh": 2,
      "name": "node",
      "translation": [0, 0, 0]
    }
  ],
  "samplers": [
    {
      "name": "texture_sampler",
      "magFilter": 9728,
      "minFilter": 9728,
      "wrapS": 33071,
      "wrapT": 33071
    }
  ],
  "scenes": [
    {
      "name": "scene",
      "nodes": [ 0, 1, 2 ]
    }
  ],
  "textures": [
    {
      "name": "texture",
      "source": 0,
      "sampler": 0
    }
  ],
  "animations": [
    {
      "name": "E:1",
      "samplers": [
        {
          "interpolation": "STEP",
          "input": 6,
          "output": 7
        },
        {
          "interpolation": "STEP",
          "input": 6,
          "output": 8
        },
        {
          "interpolation": "STEP",
          "input": 6,
          "output": 9
        },
        {
          "interpolation": "STEP",
          "input": 10,
          "output": 11
        },
        {
          "interpolation": "STEP",
          "input": 10,
          "output": 12
        },
        {
          "interpolation": "STEP",
          "input": 10,
          "output": 13
        },
        {
          "interpolation": "STEP",
          "input": 14,
          "output": 15
        },
        {
          "interpolation": "STEP",
          "input": 14,
          "output": 16
        },
        {
          "interpolation": "STEP",
          "input": 14,
          "output": 17
        }
      ],
      "channels": [
        {
          "sampler": 0,
          "target": {
            "node": 0,
            "path": "rotation"
          }
        },
        {
          "sampler": 1,
          "target": {
            "node": 0,
            "path": "translation"
          }
        },
        {
          "sampler": 2,
          "target": {
            "node": 0,
            "path": "scale"
          }
        },
        {
          "sampler": 3,
          "target": {
            "node": 1,
            "path": "rotation"
          }
        },
        {
          "sampler": 4,
          "target": {
            "node": 1,
            "path": "translation"
          }
        },
        {
          "sampler": 5,
          "target": {
            "node": 1,
            "path": "scale"
          }
        },
        {
          "sampler": 6,
          "target": {
            "node": 2,
            "path": "rotation"
          }
        },
        {
          "sampler": 7,
          "target": {
            "node": 2,
            "path": "translation"
          }
        },
        {
          "sampler": 8,
          "target": {
            "node": 2,
            "path": "scale"
          }
        }
      ]
    },
    {
      "name": "E:2",
      "samplers": [
        {
          "interpolation": "STEP",
          "input": 18,
          "output": 19
        },
        {
          "interpolation": "STEP",
          "input": 18,
          "output": 20
        },
        {
          "interpolation": "STEP",
          "input": 18,
          "output": 21
        },
        {
          "interpolation": "STEP",
          "input": 22,
          "output": 23
        },
        {
          "interpolation": "STEP",
          "input": 22,
          "output": 24
        },
        {
          "interpolation": "STEP",
          "input": 22,
          "output": 25
        },
        {
          "interpolation": "STEP",
          "input": 26,
          "output": 27
        },
        {
          "interpolation": "STEP",
          "input": 26,
          "output": 28
        },
        {
          "interpolation": "STEP",
          "input": 26,
          "output": 29
        }
      ],
      "channels": [
        {
          "sampler": 0,
          "target": {
            "node": 0,
            "path": "rotation"
          }
        },
        {
          "sampler": 1,
          "target": {
            "node": 0,
            "path": "translation"
          }
        },
        {
          "sampler": 2,
          "target": {
            "node": 0,
            "path": "scale"
          }
        },
        {
          "sampler": 3,
          "target": {
            "node": 1,
            "path": "rotation"
          }
        },
        {
          "sampler": 4,
          "target": {
            "node": 1,
            "path": "translation"
          }
        },
        {
          "sampler": 5,
          "target": {
            "node": 1,
            "path": "scale"
          }
        },
        {
          "sampler": 6,
          "target": {
            "node": 2,
            "path": "rotation"
          }
        },
        {
          "sampler": 7,
          "target": {
            "node": 2,
            "path": "translation"
          }
        },
        {
          "sampler": 8,
          "target": {
            "node": 2,
            "path": "scale"
          }
        }
      ]
    }
  ],
  "extras": { "blink": [] }
}
