{
  "accessors": [
    {
      "name": "vertex",
      "bufferView": 0,
      "componentType": 5126,
      "type": "VEC3",
      "count": 612,
      "min": [-0.0810546875, -0.0786132812, -0.145751953],
      "max": [0.127685547, 0.0786132812, 0.145751953]
    },
    {
      "name": "vertex",
      "bufferView": 0,
      "componentType": 5126,
      "type": "VEC3",
      "byteOffset": 7344,
      "count": 48,
      "min": [-0.0595703125, -0.0124511719, -0.0122070312],
      "max": [0.00341796875, 0.0124511719, 0.0134277344]
    },
    {
      "name": "vertex",
      "bufferView": 0,
      "componentType": 5126,
      "type": "VEC3",
      "byteOffset": 7920,
      "count": 48,
      "min": [-0.0539550781, -0.0124511719, -0.0122070312],
      "max": [0.00903320312, 0.0124511719, 0.0134277344]
    },
    {
      "name": "vertex",
      "bufferView": 0,
      "componentType": 5126,
      "type": "VEC3",
      "byteOffset": 8496,
      "count": 162,
      "min": [-0.104492188, -0.0405273438, -0.0314941406],
      "max": [0.00415039062, 0.0388183594, 0.033203125]
    },
    {
      "name": "vertex",
      "bufferView": 0,
      "componentType": 5126,
      "type": "VEC3",
      "byteOffset": 10440,
      "count": 96,
      "min": [-0.0541992188, -0.0227050781, -0.0219726562],
      "max": [0.00634765625, 0.0231933594, 0.0258789062]
    },
    {
      "name": "vertex",
      "bufferView": 0,
      "componentType": 5126,
      "type": "VEC3",
      "byteOffset": 11592,
      "count": 72,
      "min": [-0.0581054688, -0.0180664062, -0.0183105469],
      "max": [0.0078125, 0.0170898438, 0.0161132812]
    },
    {
      "name": "vertex",
      "bufferView": 0,
      "componentType": 5126,
      "type": "VEC3",
      "byteOffset": 12456,
      "count": 582,
      "min": [-0.183349609, -0.193603516, -0.0490722656],
      "max": [0.00219726562, 0.0642089844, 0.0297851562]
    },
    {
      "name": "vertex_index",
      "bufferView": 1,
      "componentType": 5125,
      "type": "SCALAR",
      "count": 612
    },
    {
      "name": "vertex_index",
      "bufferView": 1,
      "componentType": 5125,
      "type": "SCALAR",
      "byteOffset": 2448,
      "count": 48
    },
    {
      "name": "vertex_index",
      "bufferView": 1,
      "componentType": 5125,
      "type": "SCALAR",
      "byteOffset": 2640,
      "count": 48
    },
    {
      "name": "vertex_index",
      "bufferView": 1,
      "componentType": 5125,
      "type": "SCALAR",
      "byteOffset": 2832,
      "count": 162
    },
    {
      "name": "vertex_index",
      "bufferView": 1,
      "componentType": 5125,
      "type": "SCALAR",
      "byteOffset": 3480,
      "count": 96
    },
    {
      "name": "vertex_index",
      "bufferView": 1,
      "componentType": 5125,
      "type": "SCALAR",
      "byteOffset": 3864,
      "count": 72
    },
    {
      "name": "vertex_index",
      "bufferView": 1,
      "componentType": 5125,
      "type": "SCALAR",
      "byteOffset": 4152,
      "count": 582
    },
    {
      "name": "animation_rotation_output",
      "bufferView": 3,
      "componentType": 5126,
      "type": "VEC4",
      "count": 32
    },
    {
      "name": "animation_rotation_output",
      "bufferView": 3,
      "componentType": 5126,
      "type": "VEC4",
      "byteOffset": 512,
      "count": 32
    },
    {
      "name": "animation_rotation_output",
      "bufferView": 3,
      "componentType": 5126,
      "type": "VEC4",
      "byteOffset": 1024,
      "count": 32
    },
    {
      "name": "animation_rotation_output",
      "bufferView": 3,
      "componentType": 5126,
      "type": "VEC4",
      "byteOffset": 1536,
      "count": 32
    },
    {
      "name": "animation_rotation_output",
      "bufferView": 3,
      "componentType": 5126,
      "type": "VEC4",
      "byteOffset": 2048,
      "count": 32
    },
    {
      "name": "animation_rotation_output",
      "bufferView": 3,
      "componentType": 5126,
      "type": "VEC4",
      "byteOffset": 2560,
      "count": 32
    },
    {
      "name": "animation_rotation_output",
      "bufferView": 3,
      "componentType": 5126,
      "type": "VEC4",
      "byteOffset": 3072,
      "count": 32
    },
    {
      "name": "animation_translation_output",
      "bufferView": 4,
      "componentType": 5126,
      "type": "VEC3",
      "count": 32
    },
    {
      "name": "animation_translation_output",
      "bufferView": 4,
      "componentType": 5126,
      "type": "VEC3",
      "byteOffset": 384,
      "count": 32
    },
    {
      "name": "animation_translation_output",
      "bufferView": 4,
      "componentType": 5126,
      "type": "VEC3",
      "byteOffset": 768,
      "count": 32
    },
    {
      "name": "animation_translation_output",
      "bufferView": 4,
      "componentType": 5126,
      "type": "VEC3",
      "byteOffset": 1152,
      "count": 32
    },
    {
      "name": "animation_translation_output",
      "bufferView": 4,
      "componentType": 5126,
      "type": "VEC3",
      "byteOffset": 1536,
      "count": 32
    },
    {
      "name": "animation_translation_output",
      "bufferView": 4,
      "componentType": 5126,
      "type": "VEC3",
      "byteOffset": 1920,
      "count": 32
    },
    {
      "name": "animation_translation_output",
      "bufferView": 4,
      "componentType": 5126,
      "type": "VEC3",
      "byteOffset": 2304,
      "count": 32
    },
    {
      "name": "animation_scale_output",
      "bufferView": 5,
      "componentType": 5126,
      "type": "VEC3",
      "count": 32
    },
    {
      "name": "animation_scale_output",
      "bufferView": 5,
      "componentType": 5126,
      "type": "VEC3",
      "byteOffset": 384,
      "count": 32
    },
    {
      "name": "animation_scale_output",
      "bufferView": 5,
      "componentType": 5126,
      "type": "VEC3",
      "byteOffset": 768,
      "count": 32
    },
    {
      "name": "animation_scale_output",
      "bufferView": 5,
      "componentType": 5126,
      "type": "VEC3",
      "byteOffset": 1152,
      "count": 32
    },
    {
      "name": "animation_scale_output",
      "bufferView": 5,
      "componentType": 5126,
      "type": "VEC3",
      "byteOffset": 1536,
      "count": 32
    },
    {
      "name": "animation_scale_output",
      "bufferView": 5,
      "componentType": 5126,
      "type": "VEC3",
      "byteOffset": 1920,
      "count": 32
    },
    {
      "name": "animation_scale_output",
      "bufferView": 5,
      "componentType": 5126,
      "type": "VEC3",
      "byteOffset": 2304,
      "count": 32
    },
    {
      "name": "texcoord",
      "bufferView": 6,
      "componentType": 5126,
      "type": "VEC2",
      "count": 612
    },
    {
      "name": "texcoord",
      "bufferView": 6,
      "componentType": 5126,
      "type": "VEC2",
      "byteOffset": 4896,
      "count": 48
    },
    {
      "name": "texcoord",
      "bufferView": 6,
      "componentType": 5126,
      "type": "VEC2",
      "byteOffset": 5280,
      "count": 48
    },
    {
      "name": "texcoord",
      "bufferView": 6,
      "componentType": 5126,
      "type": "VEC2",
      "byteOffset": 5664,
      "count": 162
    },
    {
      "name": "texcoord",
      "bufferView": 6,
      "componentType": 5126,
      "type": "VEC2",
      "byteOffset": 6960,
      "count": 96
    },
    {
      "name": "texcoord",
      "bufferView": 6,
      "componentType": 5126,
      "type": "VEC2",
      "byteOffset": 7728,
      "count": 72
    },
    {
      "name": "texcoord",
      "bufferView": 6,
      "componentType": 5126,
      "type": "VEC2",
      "byteOffset": 8304,
      "count": 582
    },
    {
      "name": "animation_rotation_input",
      "bufferView": 2,
      "componentType": 5126,
      "type": "SCALAR",
      "count": 32,
      "min": [0],
      "max": [1.03333235]
    }
  ],
  "asset": {
    "copyright": "",
    "generator": "bukosoft corporation",
    "version": "2.0"
  },
  "bufferViews": [
    {
      "name": "vertex_buffer_view",
      "buffer": 0,
      "byteLength": 19440,
      "byteStride": 12
    },
    {
      "name": "vertex_index_buffer_view",
      "buffer": 1,
      "byteLength": 6480
    },
    {
      "name": "animation_rotation_input",
      "buffer": 2,
      "byteLength": 128
    },
    {
      "name": "animation_rotation_output_view",
      "buffer": 3,
      "byteLength": 3584
    },
    {
      "name": "animation_translation_output_view",
      "buffer": 4,
      "byteLength": 2688
    },
    {
      "name": "animation_scale_output_view",
      "buffer": 5,
      "byteLength": 2688
    },
    {
      "name": "texcoord_view",
      "buffer": 6,
      "byteLength": 12960,
      "byteStride": 8
    },
    {
      "name": "texture_view",
      "buffer": 7,
      "byteLength": 118601
    }
  ],
  "buffers": [
    {
      "name": "vertex_buffer",
      "uri": "data:application/octet-stream;base64,",
      "byteLength": 19440
    },
    {
      "name": "vertex_index_buffer",
      "uri": "data:application/octet-stream;base64,",
      "byteLength": 6480
    },
    {
      "name": "animation_rotation_input",
      "uri": "data:application/octet-stream;base64,",
      "byteLength": 128
    },
    {
      "name": "animation_rotation_output",
      "uri": "data:application/octet-stream;base64,",
      "byteLength": 3584
    },
    {
      "name": "animation_translation_output",
      "uri": "data:application/octet-stream;base64,",
      "byteLength": 2688
    },
    {
      "name": "animation_scale_output",
      "uri": "data:application/octet-stream;base64,",
      "byteLength": 2688
    },
    {
      "name": "texcoord",
      "uri": "data:application/octet-stream;base64,",
      "byteLength": 12960
    },
    {
      "name": "texture_buffer",
      "uri": "data:application/octet-stream;base64,",
      "byteLength": 118601
    }
  ],
  "images": [
    {
      "name": "texture_image",
      "bufferView": 7,
      "mimeType": "image/png"
    }
  ],
  "meshes": [
    {
      "primitives": [
        {
          "indices": 7,
          "material": 0,
          "attributes": {
            "POSITION": 0,
            "TEXCOORD_0": 35
          }
        }
      ]
    },
    {
      "primitives": [
        {
          "indices": 8,
          "material": 0,
          "attributes": {
            "POSITION": 1,
            "TEXCOORD_0": 36
          }
        }
      ]
    },
    {
      "primitives": [
        {
          "indices": 9,
          "material": 0,
          "attributes": {
            "POSITION": 2,
            "TEXCOORD_0": 37
          }
        }
      ]
    },
    {
      "primitives": [
        {
          "indices": 10,
          "material": 0,
          "attributes": {
            "POSITION": 3,
            "TEXCOORD_0": 38
          }
        }
      ]
    },
    {
      "primitives": [
        {
          "indices": 11,
          "material": 0,
          "attributes": {
            "POSITION": 4,
            "TEXCOORD_0": 39
          }
        }
      ]
    },
    {
      "primitives": [
        {
          "indices": 12,
          "material": 0,
          "attributes": {
            "POSITION": 5,
            "TEXCOORD_0": 40
          }
        }
      ]
    },
    {
      "primitives": [
        {
          "indices": 13,
          "material": 0,
          "attributes": {
            "POSITION": 6,
            "TEXCOORD_0": 41
          }
        }
      ]
    }
  ],
  "materials": [
    {
      "name": "material",
      "alphaCutoff": 0.100000001,
      "pbrMetallicRoughness": {
        "baseColorTexture": {
          "index": 0,
          "scale": 0
        },
        "metallicFactor": 0
      },
      "alphaMode": "MASK"
    }
  ],
  "nodes": [
    {
      "mesh": 0,
      "name": "node",
      "translation": [0, 0, 0]
    },
    {
      "children": [ 2 ],
      "mesh": 1,
      "name": "node",
      "translation": [0, 0, 0]
    },
    {
      "children": [ 3 ],
      "mesh": 2,
      "name": "node",
      "translation": [0, 0, 0]
    },
    {
      "mesh": 3,
      "name": "node",
      "translation": [0, 0, 0]
    },
    {
      "children": [ 5 ],
      "mesh": 4,
      "name": "node",
      "translation": [0, 0, 0]
    },
    {
      "children": [ 6 ],
      "mesh": 5,
      "name": "node",
      "translation": [0, 0, 0]
    },
    {
      "mesh": 6,
      "name": "node",
      "translation": [0, 0, 0]
    }
  ],
  "samplers": [
    {
      "name": "texture_sampler",
      "magFilter": 9728,
      "minFilter": 9728,
      "wrapS": 33071,
      "wrapT": 33071
    }
  ],
  "scenes": [
    {
      "name": "scene",
      "nodes": [ 0, 1, 4 ]
    }
  ],
  "textures": [
    {
      "name": "texture",
      "source": 0,
      "sampler": 0
    }
  ],
  "animations": [
    {
      "name": "animation",
      "samplers": [
        {
          "interpolation": "STEP",
          "input": 42,
          "output": 14
        },
        {
          "interpolation": "STEP",
          "input": 42,
          "output": 15
        },
        {
          "interpolation": "STEP",
          "input": 42,
          "output": 16
        },
        {
          "interpolation": "STEP",
          "input": 42,
          "output": 17
        },
        {
          "interpolation": "STEP",
          "input": 42,
          "output": 18
        },
        {
          "interpolation": "STEP",
          "input": 42,
          "output": 19
        },
        {
          "interpolation": "STEP",
          "input": 42,
          "output": 20
        },
        {
          "interpolation": "STEP",
          "input": 42,
          "output": 21
        },
        {
          "interpolation": "STEP",
          "input": 42,
          "output": 22
        },
        {
          "interpolation": "STEP",
          "input": 42,
          "output": 23
        },
        {
          "interpolation": "STEP",
          "input": 42,
          "output": 24
        },
        {
          "interpolation": "STEP",
          "input": 42,
          "output": 25
        },
        {
          "interpolation": "STEP",
          "input": 42,
          "output": 26
        },
        {
          "interpolation": "STEP",
          "input": 42,
          "output": 27
        },
        {
          "interpolation": "STEP",
          "input": 42,
          "output": 28
        },
        {
          "interpolation": "STEP",
          "input": 42,
          "output": 29
        },
        {
          "interpolation": "STEP",
          "input": 42,
          "output": 30
        },
        {
          "interpolation": "STEP",
          "input": 42,
          "output": 31
        },
        {
          "interpolation": "STEP",
          "input": 42,
          "output": 32
        },
        {
          "interpolation": "STEP",
          "input": 42,
          "output": 33
        },
        {
          "interpolation": "STEP",
          "input": 42,
          "output": 34
        }
      ],
      "channels": [
        {
          "sampler": 0,
          "target": {
            "node": 0,
            "path": "rotation"
          }
        },
        {
          "sampler": 1,
          "target": {
            "node": 1,
            "path": "rotation"
          }
        },
        {
          "sampler": 2,
          "target": {
            "node": 2,
            "path": "rotation"
          }
        },
        {
          "sampler": 3,
          "target": {
            "node": 3,
            "path": "rotation"
          }
        },
        {
          "sampler": 4,
          "target": {
            "node": 4,
            "path": "rotation"
          }
        },
        {
          "sampler": 5,
          "target": {
            "node": 5,
            "path": "rotation"
          }
        },
        {
          "sampler": 6,
          "target": {
            "node": 6,
            "path": "rotation"
          }
        },
        {
          "sampler": 7,
          "target": {
            "node": 0,
            "path": "translation"
          }
        },
        {
          "sampler": 8,
          "target": {
            "node": 1,
            "path": "translation"
          }
        },
        {
          "sampler": 9,
          "target": {
            "node": 2,
            "path": "translation"
          }
        },
        {
          "sampler": 10,
          "target": {
            "node": 3,
            "path": "translation"
          }
        },
        {
          "sampler": 11,
          "target": {
            "node": 4,
            "path": "translation"
          }
        },
        {
          "sampler": 12,
          "target": {
            "node": 5,
            "path": "translation"
          }
        },
        {
          "sampler": 13,
          "target": {
            "node": 6,
            "path": "translation"
          }
        },
        {
          "sampler": 14,
          "target": {
            "node": 0,
            "path": "scale"
          }
        },
        {
          "sampler": 15,
          "target": {
            "node": 1,
            "path": "scale"
          }
        },
        {
          "sampler": 16,
          "target": {
            "node": 2,
            "path": "scale"
          }
        },
        {
          "sampler": 17,
          "target": {
            "node": 3,
            "path": "scale"
          }
        },
        {
          "sampler": 18,
          "target": {
            "node": 4,
            "path": "scale"
          }
        },
        {
          "sampler": 19,
          "target": {
            "node": 5,
            "path": "scale"
          }
        },
        {
          "sampler": 20,
          "target": {
            "node": 6,
            "path": "scale"
          }
        }
      ]
    }
  ]
}
