{
  "accessors": [
    {
      "name": "vertex",
      "bufferView": 0,
      "componentType": 5126,
      "type": "VEC3",
      "count": 552,
      "min": [-0.11328125, -0.110839844, -0.108642578],
      "max": [0.11328125, 0.129638672, 0.109375]
    },
    {
      "name": "vertex",
      "bufferView": 0,
      "componentType": 5126,
      "type": "VEC3",
      "byteOffset": 6624,
      "count": 534,
      "min": [-0.11328125, -0.0744628906, -0.108642578],
      "max": [0.11328125, 0.0708007812, 0.109375]
    },
    {
      "name": "vertex",
      "bufferView": 0,
      "componentType": 5126,
      "type": "VEC3",
      "byteOffset": 13032,
      "count": 294,
      "min": [-0.107421875, -0.0520019531, -0.103759766],
      "max": [0.107421875, 0.0671386719, 0.103515625]
    },
    {
      "name": "vertex",
      "bufferView": 0,
      "componentType": 5126,
      "type": "VEC3",
      "byteOffset": 16560,
      "count": 120,
      "min": [-0.0844726562, -0.0515136719, -0.0732421875],
      "max": [0.0844726562, 0.0581054688, 0.0729980469]
    },
    {
      "name": "vertex",
      "bufferView": 0,
      "componentType": 5126,
      "type": "VEC3",
      "byteOffset": 18000,
      "count": 132,
      "min": [-0.0288085938, -0.0383300781, -0.0268554688],
      "max": [0.01953125, 0.00366210938, 0.0251464844]
    },
    {
      "name": "vertex",
      "bufferView": 0,
      "componentType": 5126,
      "type": "VEC3",
      "byteOffset": 19584,
      "count": 66,
      "min": [-0.0266113281, -0.0302734375, -0.0268554688],
      "max": [0.021484375, -0.00805664062, 0.0256347656]
    },
    {
      "name": "vertex",
      "bufferView": 0,
      "componentType": 5126,
      "type": "VEC3",
      "byteOffset": 20376,
      "count": 222,
      "min": [-0.0727539062, -0.0241699219, -0.107666016],
      "max": [0.0395507812, 0.0170898438, 0.0456542969]
    },
    {
      "name": "vertex",
      "bufferView": 0,
      "componentType": 5126,
      "type": "VEC3",
      "byteOffset": 23040,
      "count": 132,
      "min": [-0.01953125, -0.0383300781, -0.0268554688],
      "max": [0.0288085938, 0.00366210938, 0.0251464844]
    },
    {
      "name": "vertex",
      "bufferView": 0,
      "componentType": 5126,
      "type": "VEC3",
      "byteOffset": 24624,
      "count": 66,
      "min": [-0.021484375, -0.0302734375, -0.0268554688],
      "max": [0.0266113281, -0.00805664062, 0.0256347656]
    },
    {
      "name": "vertex",
      "bufferView": 0,
      "componentType": 5126,
      "type": "VEC3",
      "byteOffset": 25416,
      "count": 222,
      "min": [-0.0395507812, -0.0241699219, -0.107666016],
      "max": [0.0727539062, 0.0170898438, 0.0456542969]
    },
    {
      "name": "vertex_index",
      "bufferView": 1,
      "componentType": 5125,
      "type": "SCALAR",
      "count": 552
    },
    {
      "name": "vertex_index",
      "bufferView": 1,
      "componentType": 5125,
      "type": "SCALAR",
      "byteOffset": 2208,
      "count": 534
    },
    {
      "name": "vertex_index",
      "bufferView": 1,
      "componentType": 5125,
      "type": "SCALAR",
      "byteOffset": 4344,
      "count": 294
    },
    {
      "name": "vertex_index",
      "bufferView": 1,
      "componentType": 5125,
      "type": "SCALAR",
      "byteOffset": 5520,
      "count": 120
    },
    {
      "name": "vertex_index",
      "bufferView": 1,
      "componentType": 5125,
      "type": "SCALAR",
      "byteOffset": 6000,
      "count": 132
    },
    {
      "name": "vertex_index",
      "bufferView": 1,
      "componentType": 5125,
      "type": "SCALAR",
      "byteOffset": 6528,
      "count": 66
    },
    {
      "name": "vertex_index",
      "bufferView": 1,
      "componentType": 5125,
      "type": "SCALAR",
      "byteOffset": 6792,
      "count": 222
    },
    {
      "name": "vertex_index",
      "bufferView": 1,
      "componentType": 5125,
      "type": "SCALAR",
      "byteOffset": 7680,
      "count": 132
    },
    {
      "name": "vertex_index",
      "bufferView": 1,
      "componentType": 5125,
      "type": "SCALAR",
      "byteOffset": 8208,
      "count": 66
    },
    {
      "name": "vertex_index",
      "bufferView": 1,
      "componentType": 5125,
      "type": "SCALAR",
      "byteOffset": 8472,
      "count": 222
    },
    {
      "name": "animation_rotation_output",
      "bufferView": 3,
      "componentType": 5126,
      "type": "VEC4",
      "count": 48
    },
    {
      "name": "animation_rotation_output",
      "bufferView": 3,
      "componentType": 5126,
      "type": "VEC4",
      "byteOffset": 768,
      "count": 48
    },
    {
      "name": "animation_rotation_output",
      "bufferView": 3,
      "componentType": 5126,
      "type": "VEC4",
      "byteOffset": 1536,
      "count": 48
    },
    {
      "name": "animation_rotation_output",
      "bufferView": 3,
      "componentType": 5126,
      "type": "VEC4",
      "byteOffset": 2304,
      "count": 48
    },
    {
      "name": "animation_rotation_output",
      "bufferView": 3,
      "componentType": 5126,
      "type": "VEC4",
      "byteOffset": 3072,
      "count": 48
    },
    {
      "name": "animation_rotation_output",
      "bufferView": 3,
      "componentType": 5126,
      "type": "VEC4",
      "byteOffset": 3840,
      "count": 48
    },
    {
      "name": "animation_rotation_output",
      "bufferView": 3,
      "componentType": 5126,
      "type": "VEC4",
      "byteOffset": 4608,
      "count": 48
    },
    {
      "name": "animation_rotation_output",
      "bufferView": 3,
      "componentType": 5126,
      "type": "VEC4",
      "byteOffset": 5376,
      "count": 48
    },
    {
      "name": "animation_rotation_output",
      "bufferView": 3,
      "componentType": 5126,
      "type": "VEC4",
      "byteOffset": 6144,
      "count": 48
    },
    {
      "name": "animation_rotation_output",
      "bufferView": 3,
      "componentType": 5126,
      "type": "VEC4",
      "byteOffset": 6912,
      "count": 48
    },
    {
      "name": "animation_translation_output",
      "bufferView": 4,
      "componentType": 5126,
      "type": "VEC3",
      "count": 48
    },
    {
      "name": "animation_translation_output",
      "bufferView": 4,
      "componentType": 5126,
      "type": "VEC3",
      "byteOffset": 576,
      "count": 48
    },
    {
      "name": "animation_translation_output",
      "bufferView": 4,
      "componentType": 5126,
      "type": "VEC3",
      "byteOffset": 1152,
      "count": 48
    },
    {
      "name": "animation_translation_output",
      "bufferView": 4,
      "componentType": 5126,
      "type": "VEC3",
      "byteOffset": 1728,
      "count": 48
    },
    {
      "name": "animation_translation_output",
      "bufferView": 4,
      "componentType": 5126,
      "type": "VEC3",
      "byteOffset": 2304,
      "count": 48
    },
    {
      "name": "animation_translation_output",
      "bufferView": 4,
      "componentType": 5126,
      "type": "VEC3",
      "byteOffset": 2880,
      "count": 48
    },
    {
      "name": "animation_translation_output",
      "bufferView": 4,
      "componentType": 5126,
      "type": "VEC3",
      "byteOffset": 3456,
      "count": 48
    },
    {
      "name": "animation_translation_output",
      "bufferView": 4,
      "componentType": 5126,
      "type": "VEC3",
      "byteOffset": 4032,
      "count": 48
    },
    {
      "name": "animation_translation_output",
      "bufferView": 4,
      "componentType": 5126,
      "type": "VEC3",
      "byteOffset": 4608,
      "count": 48
    },
    {
      "name": "animation_translation_output",
      "bufferView": 4,
      "componentType": 5126,
      "type": "VEC3",
      "byteOffset": 5184,
      "count": 48
    },
    {
      "name": "animation_scale_output",
      "bufferView": 5,
      "componentType": 5126,
      "type": "VEC3",
      "count": 48
    },
    {
      "name": "animation_scale_output",
      "bufferView": 5,
      "componentType": 5126,
      "type": "VEC3",
      "byteOffset": 576,
      "count": 48
    },
    {
      "name": "animation_scale_output",
      "bufferView": 5,
      "componentType": 5126,
      "type": "VEC3",
      "byteOffset": 1152,
      "count": 48
    },
    {
      "name": "animation_scale_output",
      "bufferView": 5,
      "componentType": 5126,
      "type": "VEC3",
      "byteOffset": 1728,
      "count": 48
    },
    {
      "name": "animation_scale_output",
      "bufferView": 5,
      "componentType": 5126,
      "type": "VEC3",
      "byteOffset": 2304,
      "count": 48
    },
    {
      "name": "animation_scale_output",
      "bufferView": 5,
      "componentType": 5126,
      "type": "VEC3",
      "byteOffset": 2880,
      "count": 48
    },
    {
      "name": "animation_scale_output",
      "bufferView": 5,
      "componentType": 5126,
      "type": "VEC3",
      "byteOffset": 3456,
      "count": 48
    },
    {
      "name": "animation_scale_output",
      "bufferView": 5,
      "componentType": 5126,
      "type": "VEC3",
      "byteOffset": 4032,
      "count": 48
    },
    {
      "name": "animation_scale_output",
      "bufferView": 5,
      "componentType": 5126,
      "type": "VEC3",
      "byteOffset": 4608,
      "count": 48
    },
    {
      "name": "animation_scale_output",
      "bufferView": 5,
      "componentType": 5126,
      "type": "VEC3",
      "byteOffset": 5184,
      "count": 48
    },
    {
      "name": "texcoord",
      "bufferView": 6,
      "componentType": 5126,
      "type": "VEC2",
      "count": 552
    },
    {
      "name": "texcoord",
      "bufferView": 6,
      "componentType": 5126,
      "type": "VEC2",
      "byteOffset": 4416,
      "count": 534
    },
    {
      "name": "texcoord",
      "bufferView": 6,
      "componentType": 5126,
      "type": "VEC2",
      "byteOffset": 8688,
      "count": 294
    },
    {
      "name": "texcoord",
      "bufferView": 6,
      "componentType": 5126,
      "type": "VEC2",
      "byteOffset": 11040,
      "count": 120
    },
    {
      "name": "texcoord",
      "bufferView": 6,
      "componentType": 5126,
      "type": "VEC2",
      "byteOffset": 12000,
      "count": 132
    },
    {
      "name": "texcoord",
      "bufferView": 6,
      "componentType": 5126,
      "type": "VEC2",
      "byteOffset": 13056,
      "count": 66
    },
    {
      "name": "texcoord",
      "bufferView": 6,
      "componentType": 5126,
      "type": "VEC2",
      "byteOffset": 13584,
      "count": 222
    },
    {
      "name": "texcoord",
      "bufferView": 6,
      "componentType": 5126,
      "type": "VEC2",
      "byteOffset": 15360,
      "count": 132
    },
    {
      "name": "texcoord",
      "bufferView": 6,
      "componentType": 5126,
      "type": "VEC2",
      "byteOffset": 16416,
      "count": 66
    },
    {
      "name": "texcoord",
      "bufferView": 6,
      "componentType": 5126,
      "type": "VEC2",
      "byteOffset": 16944,
      "count": 222
    },
    {
      "name": "animation_rotation_input",
      "bufferView": 2,
      "componentType": 5126,
      "type": "SCALAR",
      "count": 48,
      "min": [0],
      "max": [1.56666505]
    }
  ],
  "asset": {
    "copyright": "",
    "generator": "bukosoft corporation",
    "version": "2.0"
  },
  "bufferViews": [
    {
      "name": "vertex_buffer_view",
      "buffer": 0,
      "byteLength": 28080,
      "byteStride": 12
    },
    {
      "name": "vertex_index_buffer_view",
      "buffer": 1,
      "byteLength": 9360
    },
    {
      "name": "animation_rotation_input",
      "buffer": 2,
      "byteLength": 192
    },
    {
      "name": "animation_rotation_output_view",
      "buffer": 3,
      "byteLength": 7680
    },
    {
      "name": "animation_translation_output_view",
      "buffer": 4,
      "byteLength": 5760
    },
    {
      "name": "animation_scale_output_view",
      "buffer": 5,
      "byteLength": 5760
    },
    {
      "name": "texcoord_view",
      "buffer": 6,
      "byteLength": 18720,
      "byteStride": 8
    },
    {
      "name": "texture_view",
      "buffer": 7,
      "byteLength": 120457
    }
  ],
  "buffers": [
    {
      "name": "vertex_buffer",
      "uri": "data:application/octet-stream;base64,",
      "byteLength": 28080
    },
    {
      "name": "vertex_index_buffer",
      "uri": "data:application/octet-stream;base64,",
      "byteLength": 9360
    },
    {
      "name": "animation_rotation_input",
      "uri": "data:application/octet-stream;base64,",
      "byteLength": 192
    },
    {
      "name": "animation_rotation_output",
      "uri": "data:application/octet-stream;base64,",
      "byteLength": 7680
    },
    {
      "name": "animation_translation_output",
      "uri": "data:application/octet-stream;base64,",
      "byteLength": 5760
    },
    {
      "name": "animation_scale_output",
      "uri": "data:application/octet-stream;base64,",
      "byteLength": 5760
    },
    {
      "name": "texcoord",
      "uri": "data:application/octet-stream;base64,",
      "byteLength": 18720
    },
    {
      "name": "texture_buffer",
      "uri": "data:application/octet-stream;base64,",
      "byteLength": 120457
    }
  ],
  "images": [
    {
      "name": "texture_image",
      "bufferView": 7,
      "mimeType": "image/png"
    }
  ],
  "meshes": [
    {
      "primitives": [
        {
          "indices": 10,
          "material": 0,
          "attributes": {
            "POSITION": 0,
            "TEXCOORD_0": 50
          }
        }
      ]
    },
    {
      "primitives": [
        {
          "indices": 11,
          "material": 0,
          "attributes": {
            "POSITION": 1,
            "TEXCOORD_0": 51
          }
        }
      ]
    },
    {
      "primitives": [
        {
          "indices": 12,
          "material": 0,
          "attributes": {
            "POSITION": 2,
            "TEXCOORD_0": 52
          }
        }
      ]
    },
    {
      "primitives": [
        {
          "indices": 13,
          "material": 0,
          "attributes": {
            "POSITION": 3,
            "TEXCOORD_0": 53
          }
        }
      ]
    },
    {
      "primitives": [
        {
          "indices": 14,
          "material": 0,
          "attributes": {
            "POSITION": 4,
            "TEXCOORD_0": 54
          }
        }
      ]
    },
    {
      "primitives": [
        {
          "indices": 15,
          "material": 0,
          "attributes": {
            "POSITION": 5,
            "TEXCOORD_0": 55
          }
        }
      ]
    },
    {
      "primitives": [
        {
          "indices": 16,
          "material": 0,
          "attributes": {
            "POSITION": 6,
            "TEXCOORD_0": 56
          }
        }
      ]
    },
    {
      "primitives": [
        {
          "indices": 17,
          "material": 0,
          "attributes": {
            "POSITION": 7,
            "TEXCOORD_0": 57
          }
        }
      ]
    },
    {
      "primitives": [
        {
          "indices": 18,
          "material": 0,
          "attributes": {
            "POSITION": 8,
            "TEXCOORD_0": 58
          }
        }
      ]
    },
    {
      "primitives": [
        {
          "indices": 19,
          "material": 0,
          "attributes": {
            "POSITION": 9,
            "TEXCOORD_0": 59
          }
        }
      ]
    }
  ],
  "materials": [
    {
      "name": "material",
      "alphaCutoff": 0.100000001,
      "pbrMetallicRoughness": {
        "baseColorTexture": {
          "index": 0,
          "scale": 0
        },
        "metallicFactor": 0
      },
      "alphaMode": "MASK"
    }
  ],
  "nodes": [
    {
      "mesh": 0,
      "name": "node",
      "translation": [0, 0, 0]
    },
    {
      "mesh": 1,
      "name": "node",
      "translation": [0, 0, 0]
    },
    {
      "mesh": 2,
      "name": "node",
      "translation": [0, 0, 0]
    },
    {
      "mesh": 3,
      "name": "node",
      "translation": [0, 0, 0]
    },
    {
      "children": [ 5 ],
      "mesh": 4,
      "name": "node",
      "translation": [0, 0, 0]
    },
    {
      "children": [ 6 ],
      "mesh": 5,
      "name": "node",
      "translation": [0, 0, 0]
    },
    {
      "mesh": 6,
      "name": "node",
      "translation": [0, 0, 0]
    },
    {
      "children": [ 8 ],
      "mesh": 7,
      "name": "node",
      "translation": [0, 0, 0]
    },
    {
      "children": [ 9 ],
      "mesh": 8,
      "name": "node",
      "translation": [0, 0, 0]
    },
    {
      "mesh": 9,
      "name": "node",
      "translation": [0, 0, 0]
    }
  ],
  "samplers": [
    {
      "name": "texture_sampler",
      "magFilter": 9728,
      "minFilter": 9728,
      "wrapS": 33071,
      "wrapT": 33071
    }
  ],
  "scenes": [
    {
      "name": "scene",
      "nodes": [ 0, 1, 2, 3, 4, 7 ]
    }
  ],
  "textures": [
    {
      "name": "texture",
      "source": 0,
      "sampler": 0
    }
  ],
  "animations": [
    {
      "name": "animation",
      "samplers": [
        {
          "interpolation": "STEP",
          "input": 60,
          "output": 20
        },
        {
          "interpolation": "STEP",
          "input": 60,
          "output": 21
        },
        {
          "interpolation": "STEP",
          "input": 60,
          "output": 22
        },
        {
          "interpolation": "STEP",
          "input": 60,
          "output": 23
        },
        {
          "interpolation": "STEP",
          "input": 60,
          "output": 24
        },
        {
          "interpolation": "STEP",
          "input": 60,
          "output": 25
        },
        {
          "interpolation": "STEP",
          "input": 60,
          "output": 26
        },
        {
          "interpolation": "STEP",
          "input": 60,
          "output": 27
        },
        {
          "interpolation": "STEP",
          "input": 60,
          "output": 28
        },
        {
          "interpolation": "STEP",
          "input": 60,
          "output": 29
        },
        {
          "interpolation": "STEP",
          "input": 60,
          "output": 30
        },
        {
          "interpolation": "STEP",
          "input": 60,
          "output": 31
        },
        {
          "interpolation": "STEP",
          "input": 60,
          "output": 32
        },
        {
          "interpolation": "STEP",
          "input": 60,
          "output": 33
        },
        {
          "interpolation": "STEP",
          "input": 60,
          "output": 34
        },
        {
          "interpolation": "STEP",
          "input": 60,
          "output": 35
        },
        {
          "interpolation": "STEP",
          "input": 60,
          "output": 36
        },
        {
          "interpolation": "STEP",
          "input": 60,
          "output": 37
        },
        {
          "interpolation": "STEP",
          "input": 60,
          "output": 38
        },
        {
          "interpolation": "STEP",
          "input": 60,
          "output": 39
        },
        {
          "interpolation": "STEP",
          "input": 60,
          "output": 40
        },
        {
          "interpolation": "STEP",
          "input": 60,
          "output": 41
        },
        {
          "interpolation": "STEP",
          "input": 60,
          "output": 42
        },
        {
          "interpolation": "STEP",
          "input": 60,
          "output": 43
        },
        {
          "interpolation": "STEP",
          "input": 60,
          "output": 44
        },
        {
          "interpolation": "STEP",
          "input": 60,
          "output": 45
        },
        {
          "interpolation": "STEP",
          "input": 60,
          "output": 46
        },
        {
          "interpolation": "STEP",
          "input": 60,
          "output": 47
        },
        {
          "interpolation": "STEP",
          "input": 60,
          "output": 48
        },
        {
          "interpolation": "STEP",
          "input": 60,
          "output": 49
        }
      ],
      "channels": [
        {
          "sampler": 0,
          "target": {
            "node": 0,
            "path": "rotation"
          }
        },
        {
          "sampler": 1,
          "target": {
            "node": 1,
            "path": "rotation"
          }
        },
        {
          "sampler": 2,
          "target": {
            "node": 2,
            "path": "rotation"
          }
        },
        {
          "sampler": 3,
          "target": {
            "node": 3,
            "path": "rotation"
          }
        },
        {
          "sampler": 4,
          "target": {
            "node": 4,
            "path": "rotation"
          }
        },
        {
          "sampler": 5,
          "target": {
            "node": 5,
            "path": "rotation"
          }
        },
        {
          "sampler": 6,
          "target": {
            "node": 6,
            "path": "rotation"
          }
        },
        {
          "sampler": 7,
          "target": {
            "node": 7,
            "path": "rotation"
          }
        },
        {
          "sampler": 8,
          "target": {
            "node": 8,
            "path": "rotation"
          }
        },
        {
          "sampler": 9,
          "target": {
            "node": 9,
            "path": "rotation"
          }
        },
        {
          "sampler": 10,
          "target": {
            "node": 0,
            "path": "translation"
          }
        },
        {
          "sampler": 11,
          "target": {
            "node": 1,
            "path": "translation"
          }
        },
        {
          "sampler": 12,
          "target": {
            "node": 2,
            "path": "translation"
          }
        },
        {
          "sampler": 13,
          "target": {
            "node": 3,
            "path": "translation"
          }
        },
        {
          "sampler": 14,
          "target": {
            "node": 4,
            "path": "translation"
          }
        },
        {
          "sampler": 15,
          "target": {
            "node": 5,
            "path": "translation"
          }
        },
        {
          "sampler": 16,
          "target": {
            "node": 6,
            "path": "translation"
          }
        },
        {
          "sampler": 17,
          "target": {
            "node": 7,
            "path": "translation"
          }
        },
        {
          "sampler": 18,
          "target": {
            "node": 8,
            "path": "translation"
          }
        },
        {
          "sampler": 19,
          "target": {
            "node": 9,
            "path": "translation"
          }
        },
        {
          "sampler": 20,
          "target": {
            "node": 0,
            "path": "scale"
          }
        },
        {
          "sampler": 21,
          "target": {
            "node": 1,
            "path": "scale"
          }
        },
        {
          "sampler": 22,
          "target": {
            "node": 2,
            "path": "scale"
          }
        },
        {
          "sampler": 23,
          "target": {
            "node": 3,
            "path": "scale"
          }
        },
        {
          "sampler": 24,
          "target": {
            "node": 4,
            "path": "scale"
          }
        },
        {
          "sampler": 25,
          "target": {
            "node": 5,
            "path": "scale"
          }
        },
        {
          "sampler": 26,
          "target": {
            "node": 6,
            "path": "scale"
          }
        },
        {
          "sampler": 27,
          "target": {
            "node": 7,
            "path": "scale"
          }
        },
        {
          "sampler": 28,
          "target": {
            "node": 8,
            "path": "scale"
          }
        },
        {
          "sampler": 29,
          "target": {
            "node": 9,
            "path": "scale"
          }
        }
      ]
    }
  ]
}
