{
  "accessors": [
    {
      "name": "vertex",
      "bufferView": 0,
      "componentType": 5126,
      "type": "VEC3",
      "count": 249,
      "min": [-0.0803222656, -0.0747070312, -0.0649414062],
      "max": [0.0803222656, 0.230957031, 0.105712891]
    },
    {
      "name": "vertex",
      "bufferView": 0,
      "componentType": 5126,
      "type": "VEC3",
      "byteOffset": 2988,
      "count": 189,
      "min": [-0.0703125, -0.0695800781, -0.0122070312],
      "max": [0.0703125, 0.14453125, 0.0705566406]
    },
    {
      "name": "vertex",
      "bufferView": 0,
      "componentType": 5126,
      "type": "VEC3",
      "byteOffset": 5256,
      "count": 189,
      "min": [-0.0607910156, -0.0583496094, -0.0100097656],
      "max": [0.0607910156, 0.131591797, 0.07421875]
    },
    {
      "name": "vertex",
      "bufferView": 0,
      "componentType": 5126,
      "type": "VEC3",
      "byteOffset": 7524,
      "count": 189,
      "min": [-0.0505371094, -0.0485839844, -0.00854492188],
      "max": [0.0505371094, 0.112548828, 0.104003906]
    },
    {
      "name": "vertex",
      "bufferView": 0,
      "componentType": 5126,
      "type": "VEC3",
      "byteOffset": 9792,
      "count": 198,
      "min": [-0.0561523438, -0.0285644531, -0.0087890625],
      "max": [0.0561523438, 0.04296875, 0.0769042969]
    },
    {
      "name": "vertex",
      "bufferView": 0,
      "componentType": 5126,
      "type": "VEC3",
      "byteOffset": 12168,
      "count": 252,
      "min": [-0.0954589844, -0.0139160156, -0.0087890625],
      "max": [0.0954589844, 0.0187988281, 0.134521484]
    },
    {
      "name": "vertex",
      "bufferView": 0,
      "componentType": 5126,
      "type": "VEC3",
      "byteOffset": 15192,
      "count": 66,
      "min": [-0.00463867188, -0.0595703125, -0.0280761719],
      "max": [0.146484375, 0.0029296875, 0.0681152344]
    },
    {
      "name": "vertex",
      "bufferView": 0,
      "componentType": 5126,
      "type": "VEC3",
      "byteOffset": 15984,
      "count": 66,
      "min": [-0.146484375, -0.0595703125, -0.0280761719],
      "max": [0.00463867188, 0.0029296875, 0.0681152344]
    },
    {
      "name": "vertex",
      "bufferView": 0,
      "componentType": 5126,
      "type": "VEC3",
      "byteOffset": 16776,
      "count": 408,
      "min": [-0.0795898438, -0.0739746094, -0.172363281],
      "max": [0.0795898438, 0.1015625, 0.0217285156]
    },
    {
      "name": "vertex",
      "bufferView": 0,
      "componentType": 5126,
      "type": "VEC3",
      "byteOffset": 21672,
      "count": 141,
      "min": [-0.0598144531, -0.0412597656, -0.109619141],
      "max": [0.0598144531, 0.0187988281, 0.0158691406]
    },
    {
      "name": "vertex_index",
      "bufferView": 1,
      "componentType": 5125,
      "type": "SCALAR",
      "count": 249
    },
    {
      "name": "vertex_index",
      "bufferView": 1,
      "componentType": 5125,
      "type": "SCALAR",
      "byteOffset": 996,
      "count": 189
    },
    {
      "name": "vertex_index",
      "bufferView": 1,
      "componentType": 5125,
      "type": "SCALAR",
      "byteOffset": 1752,
      "count": 189
    },
    {
      "name": "vertex_index",
      "bufferView": 1,
      "componentType": 5125,
      "type": "SCALAR",
      "byteOffset": 2508,
      "count": 189
    },
    {
      "name": "vertex_index",
      "bufferView": 1,
      "componentType": 5125,
      "type": "SCALAR",
      "byteOffset": 3264,
      "count": 198
    },
    {
      "name": "vertex_index",
      "bufferView": 1,
      "componentType": 5125,
      "type": "SCALAR",
      "byteOffset": 4056,
      "count": 252
    },
    {
      "name": "vertex_index",
      "bufferView": 1,
      "componentType": 5125,
      "type": "SCALAR",
      "byteOffset": 5064,
      "count": 66
    },
    {
      "name": "vertex_index",
      "bufferView": 1,
      "componentType": 5125,
      "type": "SCALAR",
      "byteOffset": 5328,
      "count": 66
    },
    {
      "name": "vertex_index",
      "bufferView": 1,
      "componentType": 5125,
      "type": "SCALAR",
      "byteOffset": 5592,
      "count": 408
    },
    {
      "name": "vertex_index",
      "bufferView": 1,
      "componentType": 5125,
      "type": "SCALAR",
      "byteOffset": 7224,
      "count": 141
    },
    {
      "name": "animation_rotation_output",
      "bufferView": 3,
      "componentType": 5126,
      "type": "VEC4",
      "count": 33
    },
    {
      "name": "animation_rotation_output",
      "bufferView": 3,
      "componentType": 5126,
      "type": "VEC4",
      "byteOffset": 528,
      "count": 33
    },
    {
      "name": "animation_rotation_output",
      "bufferView": 3,
      "componentType": 5126,
      "type": "VEC4",
      "byteOffset": 1056,
      "count": 33
    },
    {
      "name": "animation_rotation_output",
      "bufferView": 3,
      "componentType": 5126,
      "type": "VEC4",
      "byteOffset": 1584,
      "count": 33
    },
    {
      "name": "animation_rotation_output",
      "bufferView": 3,
      "componentType": 5126,
      "type": "VEC4",
      "byteOffset": 2112,
      "count": 33
    },
    {
      "name": "animation_rotation_output",
      "bufferView": 3,
      "componentType": 5126,
      "type": "VEC4",
      "byteOffset": 2640,
      "count": 33
    },
    {
      "name": "animation_rotation_output",
      "bufferView": 3,
      "componentType": 5126,
      "type": "VEC4",
      "byteOffset": 3168,
      "count": 33
    },
    {
      "name": "animation_rotation_output",
      "bufferView": 3,
      "componentType": 5126,
      "type": "VEC4",
      "byteOffset": 3696,
      "count": 33
    },
    {
      "name": "animation_rotation_output",
      "bufferView": 3,
      "componentType": 5126,
      "type": "VEC4",
      "byteOffset": 4224,
      "count": 33
    },
    {
      "name": "animation_rotation_output",
      "bufferView": 3,
      "componentType": 5126,
      "type": "VEC4",
      "byteOffset": 4752,
      "count": 33
    },
    {
      "name": "animation_translation_output",
      "bufferView": 4,
      "componentType": 5126,
      "type": "VEC3",
      "count": 33
    },
    {
      "name": "animation_translation_output",
      "bufferView": 4,
      "componentType": 5126,
      "type": "VEC3",
      "byteOffset": 396,
      "count": 33
    },
    {
      "name": "animation_translation_output",
      "bufferView": 4,
      "componentType": 5126,
      "type": "VEC3",
      "byteOffset": 792,
      "count": 33
    },
    {
      "name": "animation_translation_output",
      "bufferView": 4,
      "componentType": 5126,
      "type": "VEC3",
      "byteOffset": 1188,
      "count": 33
    },
    {
      "name": "animation_translation_output",
      "bufferView": 4,
      "componentType": 5126,
      "type": "VEC3",
      "byteOffset": 1584,
      "count": 33
    },
    {
      "name": "animation_translation_output",
      "bufferView": 4,
      "componentType": 5126,
      "type": "VEC3",
      "byteOffset": 1980,
      "count": 33
    },
    {
      "name": "animation_translation_output",
      "bufferView": 4,
      "componentType": 5126,
      "type": "VEC3",
      "byteOffset": 2376,
      "count": 33
    },
    {
      "name": "animation_translation_output",
      "bufferView": 4,
      "componentType": 5126,
      "type": "VEC3",
      "byteOffset": 2772,
      "count": 33
    },
    {
      "name": "animation_translation_output",
      "bufferView": 4,
      "componentType": 5126,
      "type": "VEC3",
      "byteOffset": 3168,
      "count": 33
    },
    {
      "name": "animation_translation_output",
      "bufferView": 4,
      "componentType": 5126,
      "type": "VEC3",
      "byteOffset": 3564,
      "count": 33
    },
    {
      "name": "animation_scale_output",
      "bufferView": 5,
      "componentType": 5126,
      "type": "VEC3",
      "count": 33
    },
    {
      "name": "animation_scale_output",
      "bufferView": 5,
      "componentType": 5126,
      "type": "VEC3",
      "byteOffset": 396,
      "count": 33
    },
    {
      "name": "animation_scale_output",
      "bufferView": 5,
      "componentType": 5126,
      "type": "VEC3",
      "byteOffset": 792,
      "count": 33
    },
    {
      "name": "animation_scale_output",
      "bufferView": 5,
      "componentType": 5126,
      "type": "VEC3",
      "byteOffset": 1188,
      "count": 33
    },
    {
      "name": "animation_scale_output",
      "bufferView": 5,
      "componentType": 5126,
      "type": "VEC3",
      "byteOffset": 1584,
      "count": 33
    },
    {
      "name": "animation_scale_output",
      "bufferView": 5,
      "componentType": 5126,
      "type": "VEC3",
      "byteOffset": 1980,
      "count": 33
    },
    {
      "name": "animation_scale_output",
      "bufferView": 5,
      "componentType": 5126,
      "type": "VEC3",
      "byteOffset": 2376,
      "count": 33
    },
    {
      "name": "animation_scale_output",
      "bufferView": 5,
      "componentType": 5126,
      "type": "VEC3",
      "byteOffset": 2772,
      "count": 33
    },
    {
      "name": "animation_scale_output",
      "bufferView": 5,
      "componentType": 5126,
      "type": "VEC3",
      "byteOffset": 3168,
      "count": 33
    },
    {
      "name": "animation_scale_output",
      "bufferView": 5,
      "componentType": 5126,
      "type": "VEC3",
      "byteOffset": 3564,
      "count": 33
    },
    {
      "name": "texcoord",
      "bufferView": 6,
      "componentType": 5126,
      "type": "VEC2",
      "count": 249
    },
    {
      "name": "texcoord",
      "bufferView": 6,
      "componentType": 5126,
      "type": "VEC2",
      "byteOffset": 1992,
      "count": 189
    },
    {
      "name": "texcoord",
      "bufferView": 6,
      "componentType": 5126,
      "type": "VEC2",
      "byteOffset": 3504,
      "count": 189
    },
    {
      "name": "texcoord",
      "bufferView": 6,
      "componentType": 5126,
      "type": "VEC2",
      "byteOffset": 5016,
      "count": 189
    },
    {
      "name": "texcoord",
      "bufferView": 6,
      "componentType": 5126,
      "type": "VEC2",
      "byteOffset": 6528,
      "count": 198
    },
    {
      "name": "texcoord",
      "bufferView": 6,
      "componentType": 5126,
      "type": "VEC2",
      "byteOffset": 8112,
      "count": 252
    },
    {
      "name": "texcoord",
      "bufferView": 6,
      "componentType": 5126,
      "type": "VEC2",
      "byteOffset": 10128,
      "count": 66
    },
    {
      "name": "texcoord",
      "bufferView": 6,
      "componentType": 5126,
      "type": "VEC2",
      "byteOffset": 10656,
      "count": 66
    },
    {
      "name": "texcoord",
      "bufferView": 6,
      "componentType": 5126,
      "type": "VEC2",
      "byteOffset": 11184,
      "count": 408
    },
    {
      "name": "texcoord",
      "bufferView": 6,
      "componentType": 5126,
      "type": "VEC2",
      "byteOffset": 14448,
      "count": 141
    },
    {
      "name": "animation_rotation_input",
      "bufferView": 2,
      "componentType": 5126,
      "type": "SCALAR",
      "count": 33,
      "min": [0],
      "max": [1.06666565]
    }
  ],
  "asset": {
    "copyright": "",
    "generator": "bukosoft corporation",
    "version": "2.0"
  },
  "bufferViews": [
    {
      "name": "vertex_buffer_view",
      "buffer": 0,
      "byteLength": 23364,
      "byteStride": 12
    },
    {
      "name": "vertex_index_buffer_view",
      "buffer": 1,
      "byteLength": 7788
    },
    {
      "name": "animation_rotation_input",
      "buffer": 2,
      "byteLength": 132
    },
    {
      "name": "animation_rotation_output_view",
      "buffer": 3,
      "byteLength": 5280
    },
    {
      "name": "animation_translation_output_view",
      "buffer": 4,
      "byteLength": 3960
    },
    {
      "name": "animation_scale_output_view",
      "buffer": 5,
      "byteLength": 3960
    },
    {
      "name": "texcoord_view",
      "buffer": 6,
      "byteLength": 15576,
      "byteStride": 8
    },
    {
      "name": "texture_view",
      "buffer": 7,
      "byteLength": 307580
    }
  ],
  "buffers": [
    {
      "name": "vertex_buffer",
      "uri": "data:application/octet-stream;base64,",
      "byteLength": 23364
    },
    {
      "name": "vertex_index_buffer",
      "uri": "data:application/octet-stream;base64,",
      "byteLength": 7788
    },
    {
      "name": "animation_rotation_input",
      "uri": "data:application/octet-stream;base64,",
      "byteLength": 132
    },
    {
      "name": "animation_rotation_output",
      "uri": "data:application/octet-stream;base64,",
      "byteLength": 5280
    },
    {
      "name": "animation_translation_output",
      "uri": "data:application/octet-stream;base64,",
      "byteLength": 3960
    },
    {
      "name": "animation_scale_output",
      "uri": "data:application/octet-stream;base64,",
      "byteLength": 3960
    },
    {
      "name": "texcoord",
      "uri": "data:application/octet-stream;base64,",
      "byteLength": 15576
    },
    {
      "name": "texture_buffer",
      "uri": "data:application/octet-stream;base64,",
      "byteLength": 307580
    }
  ],
  "images": [
    {
      "name": "texture_image",
      "bufferView": 7,
      "mimeType": "image/png"
    }
  ],
  "meshes": [
    {
      "primitives": [
        {
          "indices": 10,
          "material": 0,
          "attributes": {
            "POSITION": 0,
            "TEXCOORD_0": 50
          }
        }
      ]
    },
    {
      "primitives": [
        {
          "indices": 11,
          "material": 0,
          "attributes": {
            "POSITION": 1,
            "TEXCOORD_0": 51
          }
        }
      ]
    },
    {
      "primitives": [
        {
          "indices": 12,
          "material": 0,
          "attributes": {
            "POSITION": 2,
            "TEXCOORD_0": 52
          }
        }
      ]
    },
    {
      "primitives": [
        {
          "indices": 13,
          "material": 0,
          "attributes": {
            "POSITION": 3,
            "TEXCOORD_0": 53
          }
        }
      ]
    },
    {
      "primitives": [
        {
          "indices": 14,
          "material": 0,
          "attributes": {
            "POSITION": 4,
            "TEXCOORD_0": 54
          }
        }
      ]
    },
    {
      "primitives": [
        {
          "indices": 15,
          "material": 0,
          "attributes": {
            "POSITION": 5,
            "TEXCOORD_0": 55
          }
        }
      ]
    },
    {
      "primitives": [
        {
          "indices": 16,
          "material": 0,
          "attributes": {
            "POSITION": 6,
            "TEXCOORD_0": 56
          }
        }
      ]
    },
    {
      "primitives": [
        {
          "indices": 17,
          "material": 0,
          "attributes": {
            "POSITION": 7,
            "TEXCOORD_0": 57
          }
        }
      ]
    },
    {
      "primitives": [
        {
          "indices": 18,
          "material": 0,
          "attributes": {
            "POSITION": 8,
            "TEXCOORD_0": 58
          }
        }
      ]
    },
    {
      "primitives": [
        {
          "indices": 19,
          "material": 0,
          "attributes": {
            "POSITION": 9,
            "TEXCOORD_0": 59
          }
        }
      ]
    }
  ],
  "materials": [
    {
      "name": "material",
      "alphaCutoff": 0.100000001,
      "pbrMetallicRoughness": {
        "baseColorTexture": {
          "index": 0,
          "scale": 0
        },
        "metallicFactor": 0
      },
      "alphaMode": "MASK"
    }
  ],
  "nodes": [
    {
      "mesh": 0,
      "name": "node",
      "translation": [0, 0, 0]
    },
    {
      "children": [ 2 ],
      "mesh": 1,
      "name": "node",
      "translation": [0, 0, 0]
    },
    {
      "children": [ 3 ],
      "mesh": 2,
      "name": "node",
      "translation": [0, 0, 0]
    },
    {
      "children": [ 4 ],
      "mesh": 3,
      "name": "node",
      "translation": [0, 0, 0]
    },
    {
      "children": [ 5 ],
      "mesh": 4,
      "name": "node",
      "translation": [0, 0, 0]
    },
    {
      "mesh": 5,
      "name": "node",
      "translation": [0, 0, 0]
    },
    {
      "mesh": 6,
      "name": "node",
      "translation": [0, 0, 0]
    },
    {
      "mesh": 7,
      "name": "node",
      "translation": [0, 0, 0]
    },
    {
      "children": [ 9 ],
      "mesh": 8,
      "name": "node",
      "translation": [0, 0, 0]
    },
    {
      "mesh": 9,
      "name": "node",
      "translation": [0, 0, 0]
    }
  ],
  "samplers": [
    {
      "name": "texture_sampler",
      "magFilter": 9728,
      "minFilter": 9728,
      "wrapS": 33071,
      "wrapT": 33071
    }
  ],
  "scenes": [
    {
      "name": "scene",
      "nodes": [ 0, 1, 6, 7, 8 ]
    }
  ],
  "textures": [
    {
      "name": "texture",
      "source": 0,
      "sampler": 0
    }
  ],
  "animations": [
    {
      "name": "animation",
      "samplers": [
        {
          "interpolation": "STEP",
          "input": 60,
          "output": 20
        },
        {
          "interpolation": "STEP",
          "input": 60,
          "output": 21
        },
        {
          "interpolation": "STEP",
          "input": 60,
          "output": 22
        },
        {
          "interpolation": "STEP",
          "input": 60,
          "output": 23
        },
        {
          "interpolation": "STEP",
          "input": 60,
          "output": 24
        },
        {
          "interpolation": "STEP",
          "input": 60,
          "output": 25
        },
        {
          "interpolation": "STEP",
          "input": 60,
          "output": 26
        },
        {
          "interpolation": "STEP",
          "input": 60,
          "output": 27
        },
        {
          "interpolation": "STEP",
          "input": 60,
          "output": 28
        },
        {
          "interpolation": "STEP",
          "input": 60,
          "output": 29
        },
        {
          "interpolation": "STEP",
          "input": 60,
          "output": 30
        },
        {
          "interpolation": "STEP",
          "input": 60,
          "output": 31
        },
        {
          "interpolation": "STEP",
          "input": 60,
          "output": 32
        },
        {
          "interpolation": "STEP",
          "input": 60,
          "output": 33
        },
        {
          "interpolation": "STEP",
          "input": 60,
          "output": 34
        },
        {
          "interpolation": "STEP",
          "input": 60,
          "output": 35
        },
        {
          "interpolation": "STEP",
          "input": 60,
          "output": 36
        },
        {
          "interpolation": "STEP",
          "input": 60,
          "output": 37
        },
        {
          "interpolation": "STEP",
          "input": 60,
          "output": 38
        },
        {
          "interpolation": "STEP",
          "input": 60,
          "output": 39
        },
        {
          "interpolation": "STEP",
          "input": 60,
          "output": 40
        },
        {
          "interpolation": "STEP",
          "input": 60,
          "output": 41
        },
        {
          "interpolation": "STEP",
          "input": 60,
          "output": 42
        },
        {
          "interpolation": "STEP",
          "input": 60,
          "output": 43
        },
        {
          "interpolation": "STEP",
          "input": 60,
          "output": 44
        },
        {
          "interpolation": "STEP",
          "input": 60,
          "output": 45
        },
        {
          "interpolation": "STEP",
          "input": 60,
          "output": 46
        },
        {
          "interpolation": "STEP",
          "input": 60,
          "output": 47
        },
        {
          "interpolation": "STEP",
          "input": 60,
          "output": 48
        },
        {
          "interpolation": "STEP",
          "input": 60,
          "output": 49
        }
      ],
      "channels": [
        {
          "sampler": 0,
          "target": {
            "node": 0,
            "path": "rotation"
          }
        },
        {
          "sampler": 1,
          "target": {
            "node": 1,
            "path": "rotation"
          }
        },
        {
          "sampler": 2,
          "target": {
            "node": 2,
            "path": "rotation"
          }
        },
        {
          "sampler": 3,
          "target": {
            "node": 3,
            "path": "rotation"
          }
        },
        {
          "sampler": 4,
          "target": {
            "node": 4,
            "path": "rotation"
          }
        },
        {
          "sampler": 5,
          "target": {
            "node": 5,
            "path": "rotation"
          }
        },
        {
          "sampler": 6,
          "target": {
            "node": 6,
            "path": "rotation"
          }
        },
        {
          "sampler": 7,
          "target": {
            "node": 7,
            "path": "rotation"
          }
        },
        {
          "sampler": 8,
          "target": {
            "node": 8,
            "path": "rotation"
          }
        },
        {
          "sampler": 9,
          "target": {
            "node": 9,
            "path": "rotation"
          }
        },
        {
          "sampler": 10,
          "target": {
            "node": 0,
            "path": "translation"
          }
        },
        {
          "sampler": 11,
          "target": {
            "node": 1,
            "path": "translation"
          }
        },
        {
          "sampler": 12,
          "target": {
            "node": 2,
            "path": "translation"
          }
        },
        {
          "sampler": 13,
          "target": {
            "node": 3,
            "path": "translation"
          }
        },
        {
          "sampler": 14,
          "target": {
            "node": 4,
            "path": "translation"
          }
        },
        {
          "sampler": 15,
          "target": {
            "node": 5,
            "path": "translation"
          }
        },
        {
          "sampler": 16,
          "target": {
            "node": 6,
            "path": "translation"
          }
        },
        {
          "sampler": 17,
          "target": {
            "node": 7,
            "path": "translation"
          }
        },
        {
          "sampler": 18,
          "target": {
            "node": 8,
            "path": "translation"
          }
        },
        {
          "sampler": 19,
          "target": {
            "node": 9,
            "path": "translation"
          }
        },
        {
          "sampler": 20,
          "target": {
            "node": 0,
            "path": "scale"
          }
        },
        {
          "sampler": 21,
          "target": {
            "node": 1,
            "path": "scale"
          }
        },
        {
          "sampler": 22,
          "target": {
            "node": 2,
            "path": "scale"
          }
        },
        {
          "sampler": 23,
          "target": {
            "node": 3,
            "path": "scale"
          }
        },
        {
          "sampler": 24,
          "target": {
            "node": 4,
            "path": "scale"
          }
        },
        {
          "sampler": 25,
          "target": {
            "node": 5,
            "path": "scale"
          }
        },
        {
          "sampler": 26,
          "target": {
            "node": 6,
            "path": "scale"
          }
        },
        {
          "sampler": 27,
          "target": {
            "node": 7,
            "path": "scale"
          }
        },
        {
          "sampler": 28,
          "target": {
            "node": 8,
            "path": "scale"
          }
        },
        {
          "sampler": 29,
          "target": {
            "node": 9,
            "path": "scale"
          }
        }
      ]
    }
  ]
}
